<?xml version="1.0" encoding="utf-8"?>
<!-- Generator: Adobe Illustrator 21.0.0, SVG Export Plug-In . SVG Version: 6.00 Build 0)  -->
<svg version="1.1" id="Layer_1" xmlns="http://www.w3.org/2000/svg" xmlns:xlink="http://www.w3.org/1999/xlink" x="0px" y="0px"
	 viewBox="0 0 92.9 92.9" style="enable-background:new 0 0 92.9 92.9;" xml:space="preserve">
<style type="text/css">
	.st0{fill:#FFFFFF;stroke:#FFFFFF;stroke-width:0.25;stroke-miterlimit:10;}
	.st1{clip-path:url(#SVGID_2_);fill:none;stroke:#FFFFFF;stroke-width:10;stroke-miterlimit:10;}
</style>
<title>Artboard 4</title>
<path class="st0" d="M24.5,20.4c-2.5,0.4-4.4,2.5-4.8,5.6l-0.6,4.5c0,0.3,0,0.7,0.1,1C13.5,35.7,9,44.1,7.6,54.5
	c-1.3,9.5,3.2,23.2,8.3,32c2.1,3.4,6.5,4.5,10,2.5c0.4-0.3,0.9-0.6,1.2-0.9c7.2-7.1,15.2-19.1,16.5-28.7C45,49.3,43.1,40.3,39,34.7
	c0.5-0.3,0.9-0.8,0.9-1.4l0.6-4.5c0.4-2.6-0.8-5.2-3.2-6.6 M39.6,58.9c-1.2,8.5-8.7,19.9-15.3,26.3c-1.3,1.2-3.4,1.1-4.6-0.2
	c-0.1-0.1-0.2-0.3-0.3-0.5c-4.7-7.9-9-20.9-7.8-29.4c1.3-9.6,5.4-17.3,10.5-20.7c-2,2.6-3.3,5.7-3.9,8.9c-1.1,7.8,2.1,14.3,7.3,15
	s9.9-4.7,11-12.5c0.3-3.3-0.2-6.6-1.4-9.7C39,40.8,40.9,49.3,39.6,58.9z M28.6,32.8c0.2-0.1,0.4-0.1,0.5,0.1c0,0,0,0,0,0
	c2,3.4,3.9,8.9,3.4,12.4c-0.7,5.3-3.7,9.5-6.5,9.1c-2.8-0.4-4.6-5.2-3.8-10.5C22.6,40.3,25.8,35.5,28.6,32.8z M33.4,21.3l-5-0.7
	 M23.7,26.5c0.1-0.7,0.5-2.4,2.1-2.2l8.9,1.2c1.2,0.2,2.1,1.4,1.9,2.6c0,0,0,0.1,0,0.1l-0.5,3.4c-1.9-1.6-4.2-2.6-6.7-3
	c-2.1-0.3-4.2,0-6.1,0.7L23.7,26.5z"/>
<path class="st0" d="M53.1,22.3c-1.9,1.8-2.5,4.7-1.5,7.1l1.7,4.2c0.2,0.6,0.7,1,1.3,1.2c-2.7,6.4-2.3,15.6,1.4,25.1
	c3.5,8.9,14.1,18.7,22.8,23.9c0.5,0.3,0.9,0.5,1.4,0.6c3.8,1.2,7.9-0.9,9.1-4.8c2.8-9.7,3.9-24.1,0.4-33.1
	c-3.9-9.8-10.2-16.9-16.8-19.6c0.1-0.3,0-0.7-0.1-1l-1.7-4.2c-1.1-2.9-3.5-4.5-6-4.3 M58.7,35.2c-0.4,3.3-0.1,6.6,0.9,9.7
	c2.9,7.3,8.8,11.4,13.6,9.5c4.8-1.9,6.4-8.9,3.5-16.3c-1.4-3-3.4-5.6-5.9-7.7C76.6,32.5,82.4,39,86,48c3.2,8,2.1,21.6-0.6,30.4
	c-0.1,0.2-0.1,0.4-0.2,0.5c-0.9,1.6-2.8,2.2-4.4,1.3c-7.9-4.6-18-13.8-21.1-21.9C56.1,49.4,56,40.7,58.7,35.2z M73,39.6
	c2,5,1.4,10.1-1.2,11.1s-6.5-2.3-8.5-7.3c-1.3-3.3-0.8-9.1,0.3-12.9c0,0,0,0,0,0c0.1-0.2,0.3-0.3,0.5-0.2
	C67.5,32.4,71.8,36.3,73,39.6z M61.3,18.6l-4.7,1.8 M68.5,25.8c-2.1-0.2-4.2,0.1-6.1,0.8c-2.3,0.9-4.3,2.5-5.8,4.5l-1.2-3.2
	c0,0,0-0.1-0.1-0.1c-0.5-1.2,0-2.5,1.2-3l8.4-3.3c1.5-0.6,2.3,1,2.6,1.6L68.5,25.8z"/>
<g>
	<defs>
		<rect id="SVGID_1_" x="0.1" y="0.1" width="92.7" height="92.7"/>
	</defs>
	<clipPath id="SVGID_2_">
		<use xlink:href="#SVGID_1_"  style="overflow:visible;"/>
	</clipPath>
	<path class="st1" d="M-15.7,10.8C-1-0.7,9.8,7.9,9.8,7.9s10.3,10,28.8,10c3,0,7.7,0.4,12.5,0.4c5.5,0,9,0.3,16-4.2
		c0,0,13-9.4,28-5.7"/>
</g>
</svg>
