<?xml version="1.0" encoding="utf-8"?>
<!-- Generator: Adobe Illustrator 21.0.0, SVG Export Plug-In . SVG Version: 6.00 Build 0)  -->
<svg version="1.1" id="Layer_1" xmlns="http://www.w3.org/2000/svg" xmlns:xlink="http://www.w3.org/1999/xlink" x="0px" y="0px"
	 viewBox="0 0 74.9 75.5" style="enable-background:new 0 0 74.9 75.5;" xml:space="preserve">
<style type="text/css">
	.st0{fill:#FFFFFF;}
</style>
<g>
	<path class="st0" d="M43.1,0.4C41.3,0.1,39.4,0,37.5,0s-3.8,0.1-5.7,0.4l-5.4,1.3C11.1,6.5,0,20.8,0,37.7
		c0,20.8,16.8,37.7,37.5,37.7s37.5-16.9,37.5-37.7c0-16.9-11.1-31.2-26.3-36L43.1,0.4z M37.5,69.9c-17.6,0-31.9-14.4-31.9-32.2
		S19.9,5.6,37.5,5.6S69.3,20,69.3,37.7S55,69.9,37.5,69.9z"/>
	<path class="st0" d="M18.6,47.9c-0.7-1.4-2.4-1.9-3.8-1.2c-1.4,0.7-1.9,2.4-1.2,3.8c0.5,1,1.2,2.1,1.9,3c0.5,0.8,1.4,1.2,2.3,1.2
		c0.6,0,1.1-0.2,1.6-0.5c1.3-0.9,1.5-2.6,0.7-3.9C19.5,49.5,19,48.7,18.6,47.9z"/>
	<path class="st0" d="M37.5,10.6c-14.8,0-26.9,12.2-26.9,27.1c0,1.5,1.2,2.8,2.8,2.8s2.8-1.2,2.8-2.8c0-11.9,9.6-21.6,21.4-21.6
		c1.5,0,2.8-1.2,2.8-2.8S39,10.6,37.5,10.6z"/>
</g>
</svg>
