<?xml version="1.0" encoding="utf-8"?>
<!-- Generator: Adobe Illustrator 21.0.0, SVG Export Plug-In . SVG Version: 6.00 Build 0)  -->
<svg version="1.1" id="Layer_1" xmlns="http://www.w3.org/2000/svg" xmlns:xlink="http://www.w3.org/1999/xlink" x="0px" y="0px"
	 viewBox="0 0 75.6 74.8" style="enable-background:new 0 0 75.6 74.8;" xml:space="preserve">
<style type="text/css">
	.st0{fill:#FFFFFF;}
</style>
<g>
	<polygon class="st0" points="47.3,28.4 39.7,30.6 33.6,25.6 33.4,33.4 26.8,37.7 34.2,40.4 36.2,48 41,41.8 48.9,42.2 44.4,35.7 	
		"/>
	<path class="st0" d="M28.3,0C12.1,4.2,0,19.1,0,36.8c0,20.9,17,38,37.8,38s37.8-17,37.8-38C75.6,19.1,63.5,4.2,47.3,0 M47.1,67.8
		l3-7.6l-8.5,2.5L34.7,57l-0.3,8.9l-3.8,2.5c-6.7-1.5-12.6-5.2-17-10.2l2.6-2.3l8.5,2.2L21.2,50l4.7-7.5l-8.8,0.8l-5.6-6.8l-1.9,8.6
		l-2.6,1c-0.9-2.9-1.4-6.1-1.4-9.3c0-11.3,5.8-21.3,14.5-27.1l0.6,0.4l0.6,8.8l6.6-5.9l8.5,2.2l-3.5-8.1l1.6-2.6
		c1-0.1,2.1-0.2,3.2-0.2c5.7,0,11.1,1.5,15.7,4.1L56,16l-5.2,7.1l8.8-0.2l5.1,7.2l2.1-7.1c1.9,4.1,3,8.7,3,13.5
		c0,2.9-0.4,5.7-1.1,8.4L62,41.2l1.3,8.8l-6.4,6l5.7,1C58.8,62.2,53.3,65.9,47.1,67.8z"/>
</g>
</svg>
