<?xml version="1.0" encoding="utf-8"?>
<!-- Generator: Adobe Illustrator 21.0.0, SVG Export Plug-In . SVG Version: 6.00 Build 0)  -->
<svg version="1.1" id="Layer_1" xmlns="http://www.w3.org/2000/svg" xmlns:xlink="http://www.w3.org/1999/xlink" x="0px" y="0px"
	 viewBox="0 0 75.6 75.6" style="enable-background:new 0 0 75.6 75.6;" xml:space="preserve">
<style type="text/css">
	.st0{fill:#FFFFFF;}
</style>
<path class="st0" d="M31,0C13.4,3.2,0,18.8,0,37.5c0,21,17,38.1,37.8,38.1s37.8-17.1,37.8-38.1c0-18.7-13.4-34.2-31-37.5 M67.9,47.5
	c-6,3-18.5,6.2-29.9,6.2c-11.3,0-24.3-3.3-30.3-6.4C7.5,47.2,7.3,47.1,7,47c-0.4-1.2-0.7-2.5-0.9-3.8c3.3-6.6,7.8-7.2,14.4-4.7
	c5.3,2,10.2,4.8,15.9,5.5c6.5,0.7,10.1-5.4,15.9-6.2c4.1-0.5,7.2,2.6,9.9,5c1.9,1.8,4,3.1,6.4,3.8c-0.1,0.2-0.1,0.5-0.2,0.7
	C68.3,47.3,68.1,47.4,67.9,47.5z M69.7,41.6c-2.8-1.1-4.8-3.3-7.3-5.3c-2.8-2.3-6.4-3.5-10-3.5c-6.9,0-10.6,7.5-18,5.8
	c-6.3-1.4-11.8-5.5-18.2-6.5c-4.3-0.7-7.8,0.6-10.4,3.2c0.4-5.2,1.9-10.2,4.5-14.4c7.2,3.3,17,5.1,27.9,5.1c10.7,0,20.3-1.8,27.5-5
	c2.8,4.8,4.5,10.5,4.5,16.5C70,38.9,69.9,40.2,69.7,41.6z M37.8,5c9.8,0,18.6,4.4,24.5,11.4C55.9,19,47.4,20.4,38,20.4
	c-9.5,0-18.2-1.5-24.6-4.2C19.4,9.4,28.1,5,37.8,5z M37.8,70C26.2,70,16,63.7,10.3,54.4c7.3,2.6,17.8,4.9,27.7,4.9
	c9.6,0,19.9-2.1,27.1-4.7C59.5,63.8,49.4,70,37.8,70z"/>
</svg>
