<?xml version="1.0" encoding="utf-8"?>
<!-- Generator: Adobe Illustrator 21.0.0, SVG Export Plug-In . SVG Version: 6.00 Build 0)  -->
<svg version="1.1" id="Layer_1" xmlns="http://www.w3.org/2000/svg" xmlns:xlink="http://www.w3.org/1999/xlink" x="0px" y="0px"
	 viewBox="0 0 75.6 75.5" style="enable-background:new 0 0 75.6 75.5;" xml:space="preserve">
<style type="text/css">
	.st0{fill:#FFFFFF;}
</style>
<g>
	<path class="st0" d="M30.3,0C13,3.5,0,18.9,0,37.3c0,21,17,38.1,37.8,38.1s37.8-17.1,37.8-38.1c0-18.4-13-33.8-30.3-37.3
		 M54.8,52.7c0.1,0,0.1,0.1,0.2,0c0.4,0,1.7-0.7,2.2-1.8c0.7-1.4,0.8-4.5-2.4-6.3c-2.3-1.4-5.2-1-6.9,0.2c-1.8,1.2-3,3.1-3.4,5.3
		c-0.4,3.5,0.5,5,1.8,6.7c1.3,1.5,3.2,2.6,5.3,3.2c7.5,1.5,14-5.1,17.1-13.2c-4,13.3-16.3,23-30.8,23c-17.7,0-32.2-14.6-32.2-32.5
		c0-0.8,0-1.5,0.1-2.3c1.2-7,7.6-19.5,17.5-16.9c1.3,0.4,2.7,1.2,3.4,2.5c0.3,0.6,0.7,1.5,0.4,3.1c-0.2,1.1-0.9,2-1.6,2.6
		c-1,0.7-2.1,0.8-3.1,0.5c-1.2-0.3-2.2-1.4-2.2-2.5c0-0.9,0.3-1.3,0.8-1.9l0,0c0.1-0.1,0.1-0.2,0-0.3c-0.1,0-0.1-0.1-0.2,0
		c-0.4,0-1.7,0.7-2.2,1.8c-0.7,1.4-0.8,4.5,2.4,6.3c2.3,1.4,5.2,1,6.9-0.2c1.8-1.2,3-3.1,3.4-5.3c0.4-3.5-0.5-5-1.8-6.7
		c-1.3-1.5-3.2-2.6-5.3-3.2c-7.5-1.5-14,5.1-17.1,13.2c4-13.3,16.3-23,30.8-23C55.6,4.9,70,19.4,70,37.3c0,0.8,0,1.5-0.1,2.3
		c-1.2,7-7.6,19.5-17.5,16.9c-1.3-0.4-2.7-1.2-3.4-2.5c-0.3-0.6-0.7-1.5-0.4-3.1c0.2-1.1,0.9-2,1.6-2.6c1-0.7,2.1-0.8,3.1-0.5
		c1.2,0.3,2.2,1.4,2.2,2.5c0,0.9-0.3,1.3-0.8,1.9l0,0C54.6,52.5,54.7,52.6,54.8,52.7z"/>
	<path class="st0" d="M20.9,50.4c-0.2-2.1,0-4.7,1.4-6.6c0.7-0.9,1.7-1.9,4.2-2.6c1.7-0.4,3.5,0.1,4.7,0.8c1.7,1,2.6,2.6,2.8,4.2
		c0.3,2-0.6,4.1-2.3,4.8c-1.3,0.6-2.1,0.3-3.3,0.1l0,0c-0.2,0-0.4,0.1-0.4,0.3c0,0.1,0,0.2,0.1,0.3c0.2,0.6,2.1,1.9,4,2
		c2.4,0.2,6.9-1.7,7.6-7.6c0.5-4.3-1.9-8.3-4.7-10c-2.9-1.8-6.4-2.4-9.8-1.6c-5.3,1.6-6.9,3.9-8.5,6.8c-1.3,2.9-1.8,6.4-1.2,9.8
		c3.1,14.3,18,16.4,28.5,14.9c8-1.1,12.4-4.6,12.4-4.6C52.7,63.5,23.5,70.6,20.9,50.4z"/>
	<path class="st0" d="M60.2,23.5C57.1,9.2,42.1,7.1,31.7,8.6c-8,1.1-12.4,4.6-12.4,4.6c3.6-2,32.9-9,35.4,11.2
		c0.2,2.1,0,4.7-1.4,6.6c-0.7,0.9-1.7,1.9-4.2,2.6c-1.7,0.4-3.5-0.1-4.7-0.8c-1.7-1-2.6-2.6-2.8-4.2c-0.3-2,0.6-4.1,2.3-4.8
		c1.3-0.6,2.1-0.3,3.3-0.1l0,0c0.2,0,0.4-0.1,0.4-0.3c0-0.1,0-0.2-0.1-0.3c-0.2-0.6-2.1-2-4-2c-2.4-0.2-6.9,1.7-7.6,7.6
		c-0.5,4.3,1.9,8.3,4.7,10c2.9,1.8,6.4,2.4,9.8,1.6c5.3-1.6,6.9-3.9,8.5-6.8C60.3,30.4,60.8,26.9,60.2,23.5z"/>
	<path class="st0" d="M18.2,34.9c0.4-1.2-0.2-2.6-1.5-3c-1.2-0.4-2.6,0.2-3,1.5c-0.4,1.2,0.2,2.6,1.5,3
		C16.4,36.8,17.8,36.1,18.2,34.9z"/>
	<path class="st0" d="M12.4,42.5c0.3-1-0.2-2-1.1-2.3c-1-0.3-2,0.2-2.3,1.1c-0.3,1,0.2,2,1.1,2.3C11.1,44,12.1,43.5,12.4,42.5z"/>
	<path class="st0" d="M12.9,49.5c-0.7-0.2-1.4,0.1-1.6,0.8c-0.2,0.7,0.1,1.4,0.8,1.6c0.7,0.2,1.4-0.1,1.6-0.8
		C13.9,50.4,13.5,49.7,12.9,49.5z"/>
	<path class="st0" d="M59,42.9c1.2,0.4,2.6-0.3,3-1.5c0.4-1.3-0.3-2.6-1.5-3c-1.2-0.4-2.6,0.3-3,1.5C57.1,41.1,57.7,42.5,59,42.9z"
		/>
	<path class="st0" d="M63.2,32.2c-0.3,1,0.2,2,1.2,2.3c1,0.3,2-0.2,2.3-1.2c0.3-1-0.2-2-1.2-2.3C64.6,30.7,63.5,31.2,63.2,32.2z"/>
	<path class="st0" d="M62.7,25.2c0.7,0.2,1.4-0.1,1.6-0.8c0.2-0.7-0.1-1.4-0.8-1.6c-0.7-0.2-1.4,0.1-1.6,0.8
		C61.6,24.3,62,25,62.7,25.2z"/>
</g>
</svg>
