<?xml version="1.0" encoding="utf-8"?>
<!-- Generator: Adobe Illustrator 21.0.0, SVG Export Plug-In . SVG Version: 6.00 Build 0)  -->
<svg version="1.1" id="Layer_1" xmlns="http://www.w3.org/2000/svg" xmlns:xlink="http://www.w3.org/1999/xlink" x="0px" y="0px"
	 viewBox="0 0 75.6 75.2" style="enable-background:new 0 0 75.6 75.2;" xml:space="preserve">
<style type="text/css">
	.st0{fill:#FFFFFF;}
</style>
<g>
	<path class="st0" d="M29.3,0C12.5,3.9,0,19.1,0,37.1c0,21,17,38.1,37.8,38.1s37.8-17.1,37.8-38.1C75.6,19.1,63.1,3.9,46.3,0
		 M70,38.4c-0.1,1.6-0.2,3.1-0.5,4.7l-2.1-2.1L70,38.4z M67.4,33.3l2.1-2.1c0.3,1.5,0.4,3.1,0.5,4.7L67.4,33.3z M34.8,5.8l-3.6,3.6
		l-3.3-3.3c1.9-0.6,3.9-1.1,6-1.3L34.8,5.8z M41.8,4.9c2,0.3,4,0.7,6,1.3l-3.3,3.3l-3.6-3.6L41.8,4.9z M15.8,13.5l2,2l6.7-6.7
		l6.7,6.7l6.7-6.7l6.7,6.7l6.7-6.7l6.7,6.7l2-2c3.7,3.5,6.6,8,8.4,13l-3.8,3.8l-6.6-6.6l-6.7,6.7l-6.7-6.7l-6.7,6.7l-6.7-6.7
		l-6.7,6.7l-6.7-6.7l-6.6,6.6l-3.8-3.8C9.1,21.5,12,17,15.8,13.5z M66.9,37.1l-2.5,2.5l-2.5-2.5l2.5-2.5L66.9,37.1z M57.7,37
		l-3.5-3.5l3.7-3.7l3.5,3.5L57.7,37z M61.4,40.9l-3.5,3.5l-3.7-3.7l3.5-3.5L61.4,40.9z M53.6,37.1l-2.5,2.5l-2.5-2.5l2.5-2.5
		L53.6,37.1z M44.5,37.1l-3.7-3.7l3.6-3.6l3.7,3.7L44.5,37.1z M48.1,40.8l-3.7,3.7l-3.6-3.6l3.7-3.7L48.1,40.8z M40.6,37.1l-2.5,2.5
		l-2.5-2.5l2.4-2.5L40.6,37.1z M31.1,37.1l-3.6-3.6l3.7-3.7l3.6,3.6L31.1,37.1z M34.8,40.8l-3.6,3.6l-3.7-3.7l3.6-3.6L34.8,40.8z
		 M27,37.1l-2.5,2.5L22,37.1l2.5-2.5L27,37.1z M17.9,37l-3.7-3.7l3.5-3.5l3.7,3.7L17.9,37z M21.5,40.8l-3.7,3.7l-3.5-3.5l3.7-3.7
		L21.5,40.8z M12.8,37.1l-1.5,1.5l-1.5-1.5l1.5-1.5L12.8,37.1z M5.7,38.4l2.6,2.6L6.2,43C5.9,41.5,5.7,39.9,5.7,38.4z M5.7,35.9
		c0.1-1.6,0.2-3.1,0.5-4.7l2.1,2.1L5.7,35.9z M40.8,68.4l3.6-3.6l3.3,3.3c-1.9,0.6-3.9,1.1-6,1.3L40.8,68.4z M33.9,69.4
		c-2.1-0.3-4-0.7-6-1.3l3.3-3.3l3.6,3.6L33.9,69.4z M59.8,60.8l-2-2l-6.7,6.7l-6.7-6.7l-6.7,6.7l-6.7-6.7l-6.7,6.7l-6.7-6.7l-2,2
		c-3.7-3.6-6.6-8-8.4-13l3.8-3.8l6.6,6.6l6.7-6.7l6.7,6.7l6.7-6.7l6.7,6.7l6.7-6.7l6.7,6.7l6.6-6.6l3.8,3.8
		C66.5,52.8,63.6,57.2,59.8,60.8z"/>
	<circle class="st0" cx="24.5" cy="25.1" r="2.4"/>
	<circle class="st0" cx="37.8" cy="25.1" r="2.4"/>
	<circle class="st0" cx="51.1" cy="25.1" r="2.4"/>
	<circle class="st0" cx="64.4" cy="25.1" r="2.4"/>
	<circle class="st0" cx="11.2" cy="25.1" r="2.4"/>
	<circle class="st0" cx="24.5" cy="49.8" r="2.4"/>
	<circle class="st0" cx="37.8" cy="49.8" r="2.4"/>
	<circle class="st0" cx="51.1" cy="49.8" r="2.4"/>
	<circle class="st0" cx="64.4" cy="49.8" r="2.4"/>
	<circle class="st0" cx="11.2" cy="49.8" r="2.4"/>
</g>
</svg>
