<?xml version="1.0" encoding="utf-8"?>
<!-- Generator: Adobe Illustrator 21.0.0, SVG Export Plug-In . SVG Version: 6.00 Build 0)  -->
<svg version="1.1" id="Layer_1" xmlns="http://www.w3.org/2000/svg" xmlns:xlink="http://www.w3.org/1999/xlink" x="0px" y="0px"
	 viewBox="0 0 75.6 76.2" style="enable-background:new 0 0 75.6 76.2;" xml:space="preserve">
<style type="text/css">
	.st0{fill:#FFFFFF;}
</style>
<g>
	<path class="st0" d="M71.3,55.8c2.8-5.3,4.4-11.3,4.4-17.7c0-6.5-1.6-12.5-4.4-17.9c0,0,0,0,0,0C64.8,8.2,52.2,0,37.8,0
		c-14.2,0-26.5,7.9-33,19.6c-0.2,0.2-0.3,0.5-0.4,0.8C1.6,25.6,0,31.7,0,38.1c0,21,17,38.1,37.8,38.1c14.2,0,26.6-7.9,33-19.6
		C71,56.4,71.2,56.1,71.3,55.8z M60.6,61c-0.3-0.1-0.6-0.3-0.9-0.3c-0.6-0.1-1.1-0.2-1.7-0.3c0,0,0,0,0,0c-1.2-0.2-2.3-0.4-3.5-0.5
		c-1.2-0.2-2.3-0.3-3.5-0.4c-1.2-0.1-2.3-0.2-3.5-0.3c-1.1-0.1-2.3-0.2-3.5-0.2c-1.2-0.1-2.3-0.1-3.5-0.1c-0.9,0-1.9,0-2.9,0h-0.6
		c-1.2,0-2.3,0-3.5,0.1c-1.2,0-2.3,0.1-3.5,0.2c-1.1,0.1-2.3,0.1-3.5,0.2c-1.2,0.1-2.3,0.2-3.4,0.3h0c-1.2,0.1-2.4,0.3-3.5,0.4
		c-1.2,0.2-2.4,0.4-3.5,0.6l0,0c0,0,0,0,0,0c-0.5,0.1-0.9,0.2-1.4,0.3c-1.1-1.2-2.2-2.4-3.2-3.8c0.4-0.1,0.9-0.2,1.3-0.3
		c1.1-0.2,2.2-0.4,3.3-0.6c1.1-0.2,2.2-0.3,3.3-0.5c1.1-0.2,2.2-0.3,3.3-0.4c0,0,0.1,0,0.1,0c1.1-0.1,2.2-0.2,3.2-0.3
		c1.1-0.1,2.2-0.2,3.3-0.3c1.1-0.1,2.2-0.1,3.3-0.2c1.1-0.1,2.2-0.1,3.3-0.1c0.9,0,2.2,0,3.3,0c1.1,0,2.2,0.1,3.3,0.1
		c1.1,0,2.2,0.1,3.3,0.2c1.1,0.1,2.3,0.2,3.3,0.3c1.1,0.1,2.2,0.2,3.3,0.3c0,0,0.1,0,0.1,0c1,0.1,2.1,0.3,3.1,0.4c0,0,0.1,0,0.1,0
		c1.1,0.2,2.2,0.3,3.3,0.5c1.1,0.2,2.2,0.4,3.2,0.6h0c0.4,0.1,0.9,0.2,1.3,0.3C62.9,58.5,61.8,59.8,60.6,61z M14.9,15.3
		c0.5,0.1,1,0.2,1.6,0.3c0,0,0,0,0,0c1.1,0.2,2.3,0.4,3.4,0.5c1.2,0.2,2.3,0.3,3.5,0.4c1.1,0.1,2.2,0.2,3.3,0.3c0,0,0.1,0,0.1,0l0,0
		c1.1,0.1,2.3,0.2,3.4,0.2c1.2,0.1,2.4,0.1,3.5,0.2c1.1,0,2.3,0.1,3.5,0.1h0.7c1,0,1.9,0,2.8,0c1.2,0,2.3-0.1,3.5-0.1
		c1.2,0,2.3-0.1,3.5-0.2c1.2-0.1,2.3-0.2,3.5-0.3c1.2-0.1,2.3-0.2,3.4-0.4l0,0c1.2-0.2,2.3-0.3,3.4-0.5c0,0,0,0,0.1,0
		c0.6-0.1,1.1-0.2,1.6-0.3c0.3-0.1,0.6-0.2,0.9-0.3c1.2,1.2,2.3,2.5,3.3,3.9c-0.4,0.1-0.9,0.2-1.3,0.3c-1.1,0.2-2.2,0.4-3.3,0.6
		c-1.1,0.2-2.2,0.3-3.3,0.5s-2.2,0.3-3.3,0.4c-1.1,0.1-2.2,0.2-3.3,0.3c-1.1,0.1-2.2,0.2-3.3,0.3c-1.1,0.1-2.2,0.1-3.3,0.2
		c-1.1,0-2.2,0.1-3.3,0.1c-0.4,0-0.9,0-1.5,0c-0.6,0-1.2,0-1.8,0c-1.1,0-2.2,0-3.3-0.1c-1.1,0-2.2-0.1-3.3-0.2
		c-1.1-0.1-2.2-0.2-3.3-0.3c-1.1-0.1-2.2-0.2-3.3-0.4c-1.1-0.1-2.2-0.3-3.3-0.4c-1-0.2-2.1-0.3-3.3-0.5c-1.1-0.2-2.2-0.4-3.3-0.6
		c-0.4-0.1-0.8-0.2-1.3-0.2C12.7,17.8,13.8,16.5,14.9,15.3z M11.8,50.4c-1.1,0.2-2.2,0.4-3.4,0.7c0,0,0,0,0,0h0c0,0,0,0,0,0
		c0,0,0,0-0.1,0c-1.7-4-2.7-8.4-2.7-13c0-4.6,1-9,2.7-13c0,0,0,0,0,0c1.1,0.2,2.3,0.5,3.4,0.7c1.1,0.2,2.3,0.4,3.4,0.6
		c1.1,0.2,2.3,0.4,3.4,0.5c1.1,0.2,2.3,0.3,3.5,0.5c1.2,0.1,2.3,0.3,3.5,0.4c1.2,0.1,2.3,0.2,3.5,0.3c1.2,0.1,2.3,0.1,3.5,0.2
		c1.1,0,2.3,0.1,3.5,0.1c0.6,0,1.3,0,1.9,0c0.7,0,1.2,0,1.6,0c1.2,0,2.3,0,3.5-0.1c1.2,0,2.3-0.1,3.5-0.2c1.2-0.1,2.3-0.2,3.5-0.3
		c1.2-0.1,2.3-0.2,3.5-0.4c1.2-0.2,2.4-0.3,3.5-0.5c1.1-0.2,2.3-0.3,3.4-0.5c1.2-0.2,2.3-0.4,3.4-0.6c1.1-0.2,2.2-0.4,3.4-0.7h0
		c0,0,0,0,0.1,0c0,0,0,0,0,0c1.7,4,2.7,8.4,2.7,13c0,4.6-1,9-2.7,13c0,0,0,0,0,0c0,0,0,0,0,0c-1.2-0.3-2.3-0.5-3.4-0.7
		c-1.2-0.2-2.3-0.4-3.4-0.6c-1.2-0.2-2.3-0.4-3.4-0.5c-1.1-0.2-2.2-0.3-3.3-0.4c0,0-0.1,0-0.1,0l-0.1,0c-1.2-0.1-2.3-0.3-3.4-0.4
		c-1.2-0.1-2.3-0.2-3.5-0.3c-1.2-0.1-2.3-0.2-3.5-0.2c-1.1,0-2.3-0.1-3.5-0.1c-1,0-2.2,0-3.5,0c-1.2,0-2.4,0.1-3.5,0.1
		c-1.2,0.1-2.3,0.1-3.5,0.2c-1.2,0.1-2.4,0.2-3.5,0.3c-1.1,0.1-2.2,0.2-3.5,0.4c-1.1,0.1-2.3,0.3-3.5,0.4c-1.1,0.2-2.2,0.3-3.4,0.5
		C14.1,50,12.9,50.2,11.8,50.4z M54.2,10.2c-0.2,0-0.3,0-0.5,0.1c-1.1,0.1-2.2,0.3-3.3,0.4h0c-1,0.1-2.1,0.2-3.2,0.3
		c0,0-0.1,0-0.1,0C46.1,11,45,11,43.9,11.1c-1.1,0-2.2,0.1-3.3,0.1c-1.1,0-2.2,0-3.3,0c-1.1,0-2.2,0-3.3-0.1c-1.1,0-2.3-0.1-3.3-0.1
		c-1.1-0.1-2.2-0.1-3.3-0.2c0,0-0.1,0-0.1,0c-1.1-0.1-2.2-0.2-3.2-0.3c-0.9-0.1-1.8-0.2-2.6-0.3c4.8-2.9,10.4-4.5,16.3-4.5
		C43.8,5.6,49.4,7.3,54.2,10.2z M21.4,66.1c0.8-0.1,1.7-0.2,2.5-0.3c1.1-0.1,2.2-0.2,3.3-0.3c1.1-0.1,2.2-0.2,3.3-0.2
		c1-0.1,2.1-0.1,3.3-0.1c1.1,0,2.2-0.1,3.3-0.1c1.1,0,2.2,0,3.3,0c1.2,0,2.3,0.1,3.3,0.1c1.1,0.1,2.2,0.1,3.3,0.2
		c1.1,0.1,2.2,0.2,3.3,0.3c1.1,0.1,2.2,0.2,3.3,0.4c0.1,0,0.3,0,0.4,0.1c-4.8,2.9-10.4,4.5-16.3,4.5C31.8,70.6,26.2,68.9,21.4,66.1z
		"/>
	<polygon class="st0" points="13,39.7 12.2,43.9 16,41.9 19.7,43.9 19,39.7 22,36.7 17.8,36.1 16,32.3 14.1,36.1 9.9,36.7 	"/>
	<polygon class="st0" points="33,45.6 37.8,43.1 42.7,45.6 41.7,40.2 45.7,36.3 40.2,35.5 37.8,30.6 35.4,35.5 30,36.3 33.9,40.2 	
		"/>
	<polygon class="st0" points="55.9,43.9 59.6,41.9 63.4,43.9 62.7,39.7 65.7,36.7 61.5,36.1 59.6,32.3 57.8,36.1 53.6,36.7 
		56.6,39.7 	"/>
	<ellipse class="st0" cx="11.3" cy="29.9" rx="2.2" ry="2.3"/>
	<ellipse class="st0" cx="10.8" cy="46.5" rx="2.2" ry="2.3"/>
	<ellipse class="st0" cx="64.8" cy="46.5" rx="2.2" ry="2.3"/>
	<ellipse class="st0" cx="27.3" cy="44" rx="2.2" ry="2.3"/>
	<ellipse class="st0" cx="50.2" cy="44" rx="2.2" ry="2.3"/>
	<ellipse class="st0" cx="64.2" cy="29.9" rx="2.2" ry="2.3"/>
	<ellipse class="st0" cx="26.2" cy="32.2" rx="2.2" ry="2.3"/>
	<ellipse class="st0" cx="49.5" cy="32.2" rx="2.2" ry="2.3"/>
</g>
</svg>
