<?xml version="1.0" encoding="utf-8"?>
<!-- Generator: Adobe Illustrator 21.0.0, SVG Export Plug-In . SVG Version: 6.00 Build 0)  -->
<svg version="1.1" id="Layer_1" xmlns="http://www.w3.org/2000/svg" xmlns:xlink="http://www.w3.org/1999/xlink" x="0px" y="0px"
	 viewBox="0 0 75.6 76.2" style="enable-background:new 0 0 75.6 76.2;" xml:space="preserve">
<style type="text/css">
	.st0{fill:#FFFFFF;}
</style>
<g>
	<path class="st0" d="M37.8,0C17,0,0,17.1,0,38.1s17,38.1,37.8,38.1s37.8-17.1,37.8-38.1S58.7,0,37.8,0z M68.5,38.1
		c0-1.2,0.5-2.3,1.4-3c0.1,1,0.1,2,0.1,3s-0.1,2-0.1,3C69,40.4,68.5,39.3,68.5,38.1z M55.9,11.3C51,13,44.8,14,38.4,14
		c-6.9,0-13.3-1.1-18.3-3c1.6-1.1,3.4-2.1,5.2-2.8c3.7,1.8,8.2,2.8,12.9,2.8c4.5,0,8.9-0.9,12.5-2.6C52.6,9.2,54.3,10.2,55.9,11.3z
		 M46.7,6.9c-2.6,0.8-5.5,1.2-8.5,1.2c-3.2,0-6.2-0.5-8.9-1.3C32,6,34.9,5.6,37.8,5.6C40.9,5.6,43.9,6.1,46.7,6.9z M7.1,38.1
		c0,1.2-0.5,2.3-1.4,3c-0.1-1-0.1-2-0.1-3c0-1,0.1-2,0.1-3C6.6,35.8,7.1,36.9,7.1,38.1z M19.7,64.9c4.9-1.7,11.1-2.7,17.6-2.7
		c6.9,0,13.3,1.1,18.3,3c-1.5,1-3.2,1.9-4.9,2.7C46.9,66,42.3,65,37.4,65c-4.7,0-9.2,1-12.9,2.7C22.8,66.9,21.2,66,19.7,64.9z
		 M28.4,69.2c2.7-0.9,5.8-1.4,9-1.4c3.4,0,6.6,0.5,9.4,1.5c-2.9,0.8-5.9,1.3-9,1.3C34.5,70.6,31.4,70.1,28.4,69.2z M58.7,62.8
		c-5.7-2.5-13.3-4-21.4-4c-7.7,0-15.1,1.3-20.7,3.6C12.8,59.2,9.9,55,8,50.3l0.8,1.4c0.3,0.5,0.8,0.9,1.4,0.9c0.3,0,0.5-0.1,0.8-0.2
		c0.8-0.4,1.1-1.4,0.7-2.2l-0.7-1.3c0.8,0.2,1.7-0.3,1.9-1.1c0.3-0.9-0.2-1.8-1.1-2l-3-1l-0.9-1.6c1.9-0.1,2.2-0.2,2.6-0.9
		c0.4-0.7,0.4-1-0.5-2.8l1.8-0.1l2.3,2.2c0.6,0.6,1.7,0.5,2.3-0.1c0.3-0.3,0.4-0.7,0.4-1.2c0-0.4-0.2-0.8-0.5-1.1l1.5,0
		c0.9,0,1.6-0.8,1.6-1.7c0-0.9-0.7-1.6-1.6-1.6l-2,0.1l0.3-0.4c0.5-0.7,0.4-1.7-0.3-2.3c-0.7-0.5-1.7-0.4-2.3,0.3l-2,2.5l-1.8,0.1
		l0.4-0.9c0.2-0.5,0.2-1-0.1-1.5c-0.3-0.5-0.7-0.8-1.2-0.8L8,32.9l0.9-1.5l3.1-0.5c0.9-0.1,1.5-0.9,1.4-1.8
		c-0.1-0.9-0.9-1.5-1.8-1.4l-0.5,0.1l1-1.7c0.5-0.8,0.2-1.8-0.5-2.2c-0.3-0.2-0.5-0.2-0.8-0.2c-0.6,0-1.1,0.3-1.4,0.8l-0.8,1.3
		c-0.1-0.2-0.2-0.4-0.3-0.6c2-4.6,5-8.6,8.7-11.8c5.7,2.5,13.3,4,21.4,4c7.7,0,15.1-1.3,20.7-3.6c3.5,3.1,6.4,7,8.3,11.4
		c-0.1,0.2-0.3,0.4-0.3,0.6l-0.8-1.3c-0.3-0.5-0.8-0.8-1.4-0.8c-0.3,0-0.6,0.1-0.8,0.2c-0.8,0.5-1,1.5-0.5,2.2l1,1.7L64,27.8
		c-0.9-0.1-1.7,0.5-1.8,1.4c-0.1,0.9,0.5,1.7,1.4,1.8l3.1,0.5l0.9,1.5L66.7,33c-0.5,0-1,0.4-1.2,0.8c-0.3,0.4-0.3,1-0.1,1.5l0.4,0.9
		L64,36.1l-2-2.5c-0.5-0.7-1.6-0.8-2.3-0.3c-0.7,0.6-0.8,1.6-0.3,2.3l0.3,0.4l-2-0.1c-0.8,0-1.6,0.7-1.6,1.6c0,0.9,0.7,1.6,1.6,1.7
		l1.5,0c-0.3,0.3-0.4,0.7-0.5,1.1c0,0.4,0.1,0.8,0.4,1.2c0.6,0.6,1.6,0.7,2.3,0.1l2.3-2.2l1.8,0.1c-0.9,1.7-0.9,2.1-0.5,2.8
		c0.4,0.7,0.7,0.8,2.6,0.9L67,44.7l-3,1c-0.8,0.3-1.3,1.2-1.1,2c0.3,0.8,1.1,1.3,1.9,1.1l-0.7,1.3c-0.4,0.8-0.1,1.8,0.7,2.2
		c0.2,0.1,0.5,0.2,0.8,0.2c0.6,0,1.1-0.3,1.4-0.9l0.8-1.4C65.7,55.2,62.6,59.5,58.7,62.8z"/>
	<path class="st0" d="M52.5,35.9l-2,0.1l0.3-0.4c0.5-0.7,0.4-1.7-0.3-2.3c-0.7-0.5-1.7-0.4-2.3,0.3l-2,2.5l-1.8,0.1l0.4-0.9
		c0.2-0.5,0.2-1-0.1-1.5c-0.3-0.5-0.7-0.8-1.2-0.8l-0.9-0.1l0.9-1.5l3.1-0.5c0.9-0.1,1.5-0.9,1.4-1.8c-0.1-0.9-0.9-1.5-1.8-1.4
		l-0.5,0.1l1-1.7c0.5-0.8,0.2-1.8-0.5-2.2c-0.3-0.2-0.5-0.2-0.8-0.2c-0.6,0-1.1,0.3-1.4,0.8l-0.8,1.3c-0.2-0.7-0.8-1.2-1.5-1.2
		c-0.1,0-0.2,0-0.4,0c-0.9,0.2-1.4,1.1-1.2,1.9l0.7,3.1l-1,1.6c-1-1.6-1.3-1.8-2.1-1.8c-0.8,0-1.1,0.2-2.1,1.8l-1-1.6l0.7-3.1
		c0.1-0.4,0-0.9-0.2-1.2s-0.6-0.6-1-0.7c-0.1,0-0.2,0-0.4,0c-0.7,0-1.3,0.5-1.5,1.2l-0.8-1.3c-0.3-0.5-0.8-0.8-1.4-0.8
		c-0.3,0-0.6,0.1-0.8,0.2c-0.4,0.2-0.6,0.6-0.7,1c-0.1,0.4,0,0.9,0.2,1.2l1,1.7l-0.5-0.1c-0.9-0.1-1.7,0.5-1.8,1.4
		c-0.1,0.4,0,0.9,0.3,1.2c0.3,0.3,0.6,0.6,1.1,0.6l3.1,0.5l0.9,1.5L32,33c-0.5,0.1-1,0.4-1.2,0.8c-0.3,0.4-0.3,1-0.1,1.5l0.4,0.9
		l-1.8-0.1l-2-2.5c-0.5-0.7-1.6-0.8-2.3-0.3c-0.7,0.6-0.8,1.6-0.3,2.3l0.3,0.4l-1.9-0.1l-0.1,0c-0.9,0-1.6,0.7-1.6,1.6
		c0,0.4,0.1,0.8,0.4,1.2c0.3,0.3,0.7,0.5,1.1,0.5l1.5,0c-0.3,0.3-0.4,0.7-0.5,1.1c0,0.4,0.1,0.8,0.4,1.2c0.6,0.6,1.6,0.7,2.3,0.1
		l2.3-2.2l1.8,0.1c-0.9,1.7-0.9,2.1-0.5,2.8c0.4,0.7,0.7,0.8,2.6,0.9l-0.9,1.6l-3,1c-0.4,0.1-0.7,0.4-0.9,0.8
		c-0.2,0.4-0.2,0.8-0.1,1.2c0.2,0.8,1.1,1.3,1.9,1.1l-0.7,1.3c-0.4,0.8-0.1,1.8,0.7,2.2c0.2,0.1,0.5,0.2,0.8,0.2
		c0.6,0,1.1-0.3,1.4-0.9l0.9-1.7l0.2,0.5c0.3,0.8,1.3,1.2,2.1,0.9c0.8-0.3,1.2-1.3,0.9-2.1l-1.2-3l0.8-1.6l0.5,0.8
		c0.3,0.4,0.8,0.7,1.3,0.7c0.5,0,1-0.3,1.3-0.7l0.5-0.8l0.8,1.6l-1.2,3C39,50,39.4,51,40.2,51.3c0.8,0.3,1.8-0.1,2.1-0.9l0.2-0.5
		l0.9,1.7c0.3,0.5,0.8,0.9,1.4,0.9c0.3,0,0.5-0.1,0.8-0.2c0.8-0.4,1.1-1.4,0.7-2.2l-0.7-1.3c0.8,0.2,1.7-0.3,1.9-1.1
		c0.3-0.9-0.2-1.8-1.1-2l-3-1l-0.9-1.6c1.9-0.1,2.2-0.2,2.6-0.9c0.4-0.7,0.4-1-0.5-2.8l1.8-0.1l2.3,2.2c0.6,0.6,1.7,0.5,2.3-0.1
		c0.3-0.3,0.4-0.7,0.4-1.2c0-0.4-0.2-0.8-0.5-1.1l1.5,0c0.9,0,1.6-0.8,1.6-1.7C54.1,36.6,53.3,35.9,52.5,35.9z M37.8,42.1
		c-2.2,0-4-1.8-4-4c0-2.2,1.8-4,4-4s4,1.8,4,4C41.8,40.3,40,42.1,37.8,42.1z"/>
</g>
</svg>
