<?xml version="1.0" encoding="utf-8"?>
<!-- Generator: Adobe Illustrator 21.0.0, SVG Export Plug-In . SVG Version: 6.00 Build 0)  -->
<svg version="1.1" id="Layer_1" xmlns="http://www.w3.org/2000/svg" xmlns:xlink="http://www.w3.org/1999/xlink" x="0px" y="0px"
	 viewBox="0 0 256 256.3" style="enable-background:new 0 0 256 256.3;" xml:space="preserve">
<style type="text/css">
	.st0{fill:#FFFFFF;}
	.st1{fill:none;stroke:#FFFFFF;stroke-width:12;stroke-miterlimit:10;}
</style>
<g>
	<path class="st0" d="M138.8,0.3c-1.9,0-14.5-0.3-27.3-0.3L97.1,4.1C40.5,18.1-1,69.7,0,130.5c0.8,47.4,27.3,88.4,66,109.8
		c19,10.5,40.9,16.4,64.2,16c70.7-1.2,127-59.5,125.8-130.2c-0.8-47.4-27.3-88.4-66-109.8c-10.9-6-22.8-10.5-35.3-13.2L138.8,0.3z
		 M51.3,54.2c19.8-20.5,46.4-32,74.9-32.5c18.7-0.3,37.2,4.3,53.5,13.3l0,0c16.1,8.9,29.7,22,39.4,37.7c9,14.7,14.3,31.5,15.4,48.8
		c-4.2,1.7-9.8,3.7-16.9,5.7c-17.3,5-46.8,11.1-89.2,11.8c-56.6,1-91.4-8.4-107-14C22.2,98.4,32.7,73.4,51.3,54.2z M204.7,202.4
		c-17.3,17.9-39.8,29-64.2,31.8l-0.5-31.5l0,0c-0.1-5.9-5-10.6-10.8-10.5c-5.9,0.1-10.6,5-10.5,10.8l0,0l0.5,31.5
		c-15-1.3-29.6-5.6-42.8-12.9c-16.1-8.9-29.7-22-39.4-37.7c-6.8-11-11.4-23.2-13.8-35.9c20.1,6.1,54.7,13.1,105.5,12.2
		c50.7-0.9,84.9-9,104.7-15.8C230.1,166.2,220.2,186.3,204.7,202.4z"/>
</g>
<circle class="st0" cx="129.8" cy="199.8" r="19.3"/>
<circle class="st0" cx="46.9" cy="199.8" r="19.3"/>
<circle class="st0" cx="210.3" cy="199.8" r="19.3"/>
<path class="st1" d="M242,104.7c-22.2,13.9-68.5,23.4-122,23.4c-43.7,0-82.6-6.4-107.5-16.3"/>
<path class="st1" d="M175.1,20c-11.2,7.5-28.5,12.3-47.9,12.3c-19.2,0-36.3-4.7-47.5-12"/>
</svg>
