<?xml version="1.0" encoding="utf-8"?>
<!-- Generator: Adobe Illustrator 21.0.0, SVG Export Plug-In . SVG Version: 6.00 Build 0)  -->
<svg version="1.1" id="Layer_1" xmlns="http://www.w3.org/2000/svg" xmlns:xlink="http://www.w3.org/1999/xlink" x="0px" y="0px"
	 viewBox="0 0 22.9 21.8" style="enable-background:new 0 0 22.9 21.8;" xml:space="preserve">
<style type="text/css">
	.st0{fill:#FFFFFF;}
</style>
<title>christmas_026-star-decoration-tree-noel</title>
<desc>Created with Sketch.</desc>
<g>
	<g transform="translate(-285.000000, -141.000000)">
		<g transform="translate(285.000000, 141.000000)">
			<path class="st0" d="M22.3,8.9c0.3,0,0.5-0.1,0.6-0.4S22.7,8,22.4,8l-7.6-1.1c-0.3,0-0.5,0.1-0.6,0.4c0,0.3,0.1,0.5,0.4,0.6
				L22.3,8.9z M17.7,21.4c0,0.3,0.3,0.5,0.6,0.4c0.3,0,0.5-0.3,0.4-0.6l-1.3-7.5c0-0.3-0.3-0.5-0.6-0.4c-0.3,0-0.5,0.3-0.4,0.6
				L17.7,21.4z M4.4,20.9c-0.2,0.1-0.3,0.4-0.2,0.7c0.1,0.2,0.4,0.3,0.7,0.2l6.8-3.6c0.2-0.1,0.3-0.4,0.2-0.7
				c-0.1-0.2-0.4-0.3-0.7-0.2L4.4,20.9z M0.8,8.1c-0.2-0.2-0.5-0.2-0.7,0S0,8.6,0.2,8.8l5.5,5.3c0.2,0.2,0.5,0.2,0.7,0
				s0.2-0.5,0-0.7L0.8,8.1z M11.9,0.7c0.1-0.2,0-0.5-0.2-0.7c-0.2-0.1-0.5,0-0.7,0.2L7.6,7.1c-0.1,0.2,0,0.5,0.2,0.7
				c0.2,0.1,0.5,0,0.7-0.2L11.9,0.7z"/>
			<path class="st0" d="M14.4,7.6c0.1,0.2,0.4,0.3,0.7,0.2c0.2-0.1,0.3-0.4,0.2-0.7l-3.4-6.8c-0.1-0.2-0.4-0.3-0.7-0.2
				C11,0.2,10.9,0.5,11,0.7L14.4,7.6z M16.6,13.4c-0.2,0.2-0.2,0.5,0,0.7c0.2,0.2,0.5,0.2,0.7,0l5.5-5.3c0.2-0.2,0.2-0.5,0-0.7
				s-0.5-0.2-0.7,0L16.6,13.4z M11.7,17.3c-0.2-0.1-0.5,0-0.7,0.2c-0.1,0.2,0,0.5,0.2,0.7l6.8,3.6c0.2,0.1,0.5,0,0.7-0.2
				c0.1-0.2,0-0.5-0.2-0.7L11.7,17.3z M6.5,13.9c0-0.3-0.1-0.5-0.4-0.6s-0.5,0.1-0.6,0.4l-1.3,7.5c0,0.3,0.1,0.5,0.4,0.6
				s0.5-0.1,0.6-0.4L6.5,13.9z M8.1,7.8c0.3,0,0.5-0.3,0.4-0.6C8.5,7,8.3,6.8,8,6.9L0.4,8C0.2,8,0,8.2,0,8.5S0.3,9,0.6,8.9L8.1,7.8z
				"/>
			<polygon class="st0" points="11.9,1 11.9,0.5 10.9,0.5 10.9,1 10.9,12 10.9,12.5 11.9,12.5 11.9,12 			"/>
			<polygon class="st0" points="1.1,8.1 0.7,8 0.3,8.9 0.8,9.1 11.3,12.5 11.8,12.6 12.1,11.7 11.6,11.5 			"/>
			<polygon class="st0" points="4.6,20.6 4.3,21 5.1,21.6 5.4,21.2 11.9,12.3 12.2,11.9 11.4,11.3 11.1,11.7 			"/>
			<polygon class="st0" points="17.5,21.2 17.8,21.6 18.6,21 18.3,20.6 11.8,11.7 11.5,11.3 10.7,11.9 11,12.3 			"/>
			<polygon class="st0" points="22.1,9.1 22.5,8.9 22.2,8 21.7,8.1 11.3,11.5 10.8,11.7 11.1,12.6 11.6,12.5 			"/>
		</g>
	</g>
</g>
</svg>
