<?xml version="1.0" encoding="utf-8"?>
<!-- Generator: Adobe Illustrator 21.0.0, SVG Export Plug-In . SVG Version: 6.00 Build 0)  -->
<svg version="1.1" id="Layer_1" xmlns="http://www.w3.org/2000/svg" xmlns:xlink="http://www.w3.org/1999/xlink" x="0px" y="0px"
	 viewBox="0 0 30.7 39.2" style="enable-background:new 0 0 30.7 39.2;" xml:space="preserve">
<style type="text/css">
	.st0{fill:#FFFFFF;}
	.st1{display:none;}
	.st2{display:inline;stroke:#36A9E1;stroke-miterlimit:10;}
</style>
<g>
	<path class="st0" d="M27.8,29.3v-2.4c0-0.2,0-0.4,0-0.5v-4.9c0-0.2,0-0.4,0-0.5v-1.9c0-3.3-1.3-6.5-3.7-8.8L24,10.2
		c-1.5-1.4-3.3-2.5-5.2-3h1.3c0.7,0,1.2-0.6,1.2-1.2s-0.6-1.2-1.2-1.2h-1.8l1.2-1.2c0.5-0.5,0.5-1.3,0-1.8s-1.3-0.5-1.8,0L16.5,3
		V1.2c0-0.7-0.6-1.2-1.2-1.2s-1.2,0.6-1.2,1.2V3l-1.2-1.2c-0.5-0.5-1.3-0.5-1.8,0s-0.5,1.3,0,1.8l1.2,1.2h-1.8
		C9.8,4.8,9.3,5.4,9.3,6s0.6,1.2,1.2,1.2h1.3c-1.9,0.6-3.7,1.6-5.2,3l-0.1,0.1c-2.4,2.4-3.7,5.5-3.7,8.8v2.1v0.1v5.2v0.1v2.6
		C1.2,29.7,0,31.3,0,33.1v2c0,2.3,1.8,4.1,4.1,4.1h22.5c2.3,0,4.1-1.8,4.1-4.1v-2C30.7,31.3,29.5,29.8,27.8,29.3z M5.4,29.1v-2
		l2.5-2.5l2.9,2.9c0.5,0.5,1.3,0.5,1.8,0l2.9-2.9l2.9,2.9c0.5,0.5,1.3,0.5,1.8,0l2.9-2.9l2.5,2.5v2H5.4z M5.4,21.8l2.5-2.5l2.9,2.9
		c0.5,0.5,1.3,0.5,1.8,0l2.9-2.9l2.9,2.9c0.5,0.5,1.3,0.5,1.8,0l2.9-2.9l2.5,2.5v1.7L24,21.9c-0.5-0.5-1.3-0.5-1.8,0l-2.9,2.9
		l-2.9-2.9c-0.5-0.5-1.3-0.5-1.8,0l-2.9,2.9l-2.9-2.9c-0.5-0.5-1.3-0.5-1.8,0l-1.6,1.6C5.4,23.5,5.4,21.8,5.4,21.8z M8.2,12.1
		L8.3,12c0.8-0.8,1.8-1.5,2.8-1.9l0,0c0.2,0.2,0.6,0.4,0.9,0.4s0.6-0.1,0.9-0.4l0.9-0.9c0.1,0,0.2,0,0.4-0.1v1.4
		c0,0.7,0.6,1.2,1.2,1.2s1.2-0.6,1.2-1.2V9.1c0.1,0,0.3,0,0.4,0.1l0.9,0.9c0.2,0.2,0.6,0.4,0.9,0.4s0.6-0.1,0.9-0.4l0,0
		c1,0.5,1.9,1.1,2.8,1.9l0.1,0.1c1.6,1.6,2.6,3.8,2.8,6l-1.5-1.5c-0.5-0.5-1.3-0.5-1.8,0l-3,2.9l-2.9-2.9c-0.5-0.5-1.3-0.5-1.8,0
		l-2.8,2.9l-2.9-2.9c-0.5-0.5-1.3-0.5-1.8,0l-1.6,1.6C5.6,15.9,6.6,13.8,8.2,12.1z M28.2,35.2c0,0.9-0.7,1.6-1.6,1.6h-0.4v-2.6
		c0-0.7-0.6-1.2-1.2-1.2s-1.2,0.6-1.2,1.2v2.6h-5.2v-2.6c0-0.7-0.6-1.2-1.2-1.2s-1.2,0.6-1.2,1.2v2.6H11v-2.6c0-0.7-0.6-1.2-1.2-1.2
		s-1.2,0.6-1.2,1.2v2.6H4.4c-0.9,0-1.6-0.7-1.6-1.6v-2c0-0.9,0.7-1.6,1.6-1.6h0.4v2.6c0,0.7,0.6,1.2,1.2,1.2s1.2-0.6,1.2-1.2v-2.6
		h5.2v2.6c0,0.7,0.6,1.2,1.2,1.2s1.2-0.6,1.2-1.2v-2.6h5.1v2.6c0,0.7,0.6,1.2,1.2,1.2s1.2-0.6,1.2-1.2v-2.6h4.2
		c0.9,0,1.6,0.7,1.6,1.6L28.2,35.2L28.2,35.2z"/>
</g>
<g class="st1">
	<circle class="st2" cx="15.3" cy="21.9" r="21.3"/>
</g>
</svg>
