<?xml version="1.0" encoding="utf-8"?>
<!-- Generator: Adobe Illustrator 21.0.0, SVG Export Plug-In . SVG Version: 6.00 Build 0)  -->
<svg version="1.1" id="Layer_1" xmlns="http://www.w3.org/2000/svg" xmlns:xlink="http://www.w3.org/1999/xlink" x="0px" y="0px"
	 viewBox="0 0 35.9 44.2" style="enable-background:new 0 0 35.9 44.2;" xml:space="preserve">
<style type="text/css">
	.st0{fill:#FFFFFF;}
	.st1{display:none;}
	.st2{display:inline;stroke:#36A9E1;stroke-miterlimit:10;}
</style>
<g>
	<g>
		<path class="st0" d="M13.5,0.2c-0.4-0.3-1-0.3-1.4,0C12,0.3,8.7,2.6,8.7,6v37c0,0.7,0.6,1.2,1.2,1.2h5.7c0.7,0,1.2-0.6,1.2-1.2V6
			C16.9,2.6,13.7,0.3,13.5,0.2z M11.2,18.1c1-0.4,2.2-0.4,3.2,0v8.2c-1,0.4-2.2,0.4-3.2,0V18.1z M12.8,2.9c0.7,0.6,1.6,1.8,1.6,3.1
			v9.4c-1-0.2-2.1-0.2-3.2,0V6C11.2,4.7,12.2,3.6,12.8,2.9z M11.2,41.8V28.9c0.5,0.1,1,0.2,1.6,0.2c0.5,0,1.1-0.1,1.6-0.2v12.9
			C14.4,41.8,11.2,41.8,11.2,41.8z"/>
		<path class="st0" d="M23.7,0.2c-0.4-0.3-1-0.3-1.4,0c-0.1,0.1-3.4,2.4-3.4,5.8v37c0,0.7,0.6,1.2,1.2,1.2h5.7
			c0.7,0,1.2-0.6,1.2-1.2V6C27.1,2.6,23.9,0.3,23.7,0.2z M21.5,18.1c1-0.4,2.2-0.4,3.2,0v8.2c-1,0.4-2.2,0.4-3.2,0V18.1z M23,2.9
			c0.7,0.6,1.6,1.8,1.6,3.1v9.4c-1-0.2-2.1-0.2-3.2,0V6C21.5,4.7,22.4,3.6,23,2.9z M21.5,41.8V28.9c0.5,0.1,1,0.2,1.6,0.2
			c0.5,0,1.1-0.1,1.6-0.2v12.9H21.5z"/>
		<path class="st0" d="M34.7,31.6h-0.9V16.1c0.7,0,1.2-0.6,1.2-1.2s-0.5-1.2-1.2-1.2V8.4c0-0.7-0.6-1.2-1.2-1.2
			c-0.6,0-1.2,0.6-1.2,1.2v5.3c-0.7,0-1.2,0.6-1.2,1.2s0.5,1.2,1.2,1.2v15.5h-0.9c-0.7,0-1.2,0.6-1.2,1.2s0.6,1.2,1.2,1.2h0.9v1.4
			c0,0.7,0.6,1.2,1.2,1.2c0.6,0,1.2-0.6,1.2-1.2v-1.3h0.9c0.7,0,1.2-0.6,1.2-1.2S35.4,31.6,34.7,31.6z"/>
		<path class="st0" d="M5.4,31.6H4.5V16.1c0.7,0,1.2-0.6,1.2-1.2s-0.5-1.2-1.2-1.2V8.4c0-0.7-0.6-1.2-1.2-1.2S2.1,7.8,2.1,8.4v5.3
			c-0.7,0-1.2,0.6-1.2,1.2s0.5,1.2,1.2,1.2v15.5H1.2c-0.7,0-1.2,0.6-1.2,1.2s0.5,1.3,1.2,1.3h0.9v1.4c0,0.7,0.6,1.2,1.2,1.2
			s1.2-0.6,1.2-1.2v-1.4h0.9c0.7,0,1.2-0.6,1.2-1.2S6.1,31.6,5.4,31.6z"/>
	</g>
</g>
<g class="st1">
	<circle class="st2" cx="17.9" cy="22.5" r="21.3"/>
</g>
</svg>
