<?xml version="1.0" encoding="utf-8"?>
<!-- Generator: Adobe Illustrator 21.0.0, SVG Export Plug-In . SVG Version: 6.00 Build 0)  -->
<svg version="1.1" id="Layer_1" xmlns="http://www.w3.org/2000/svg" xmlns:xlink="http://www.w3.org/1999/xlink" x="0px" y="0px"
	 viewBox="0 0 38.3 36.2" style="enable-background:new 0 0 38.3 36.2;" xml:space="preserve">
<style type="text/css">
	.st0{fill:#FFFFFF;}
	.st1{display:none;}
	.st2{display:inline;stroke:#36A9E1;stroke-miterlimit:10;}
</style>
<g>
	<path class="st0" d="M36.7,30.5c1-1.9,1.6-4.1,1.6-6.5c0-1.5-0.2-2.8-0.6-4.1c0-0.1,0-0.1,0-0.2c-0.9-2.9-2.5-5.4-4.1-7.8
		c-2.2-3.3-4.3-6.5-4.3-10.6c0-0.7-0.6-1.2-1.2-1.2s-1.2,0.6-1.2,1.2c0,4.1-2.1,7.2-4.3,10.6c-1,1.6-2.1,3.2-2.9,4.9
		c0-0.1,0.1-0.2,0.1-0.3s0-0.1,0-0.2c0.4-1.3,0.6-2.6,0.6-4.1c0-0.4,0-0.8,0-1.2l0,0l0,0c-0.2-2-0.7-3.8-1.5-5.3
		c0-0.1,0-0.1-0.1-0.1C17,2.3,13.8,0,10.2,0S3.5,2.2,1.6,5.6L1.5,5.7C0.7,7.3,0.1,9.1,0,11l0,0l0,0c0,0.4,0,0.8,0,1.2
		c0,1.5,0.2,2.8,0.6,4.1c0,0.1,0,0.1,0,0.2c0.9,2.9,2.5,5.4,4.1,7.8C6.9,27.6,9,30.8,9,34.9c0,0.7,0.6,1.2,1.2,1.2s1.2-0.6,1.2-1.2
		c0-4.1,2.1-7.2,4.3-10.6c1-1.6,2.1-3.2,2.9-4.9c0,0.1-0.1,0.2-0.1,0.3s0,0.1,0,0.2c-0.4,1.3-0.6,2.6-0.6,4.1c0,2.4,0.6,4.6,1.6,6.5
		c0,0,0,0.1,0.1,0.1c1.8,3.4,5,5.6,8.6,5.6S35,34,36.7,30.5C36.6,30.6,36.6,30.6,36.7,30.5z M15.5,19.8h-3.6c0.9-0.5,1.7-1.4,2-2.4
		h2.8C16.4,18.2,16,19,15.5,19.8z M13.5,23.1c-0.4,0.5-0.7,1.1-1.1,1.6H7.7c-0.3-0.5-0.7-1.1-1.1-1.6c-0.2-0.3-0.3-0.5-0.5-0.8H14
		C13.8,22.5,13.7,22.8,13.5,23.1z M3.4,7.6H8C7.1,8.1,6.5,9,6.2,10H2.6C2.8,9.1,3,8.3,3.4,7.6z M17.5,10h-3.6
		c-0.3-1-0.9-1.9-1.8-2.4h4.6C17.1,8.3,17.4,9.1,17.5,10z M11.6,16.2c0,0.9-0.7,1.6-1.6,1.6s-1.6-0.7-1.6-1.6v-5.1
		c0-0.9,0.7-1.6,1.6-1.6s1.6,0.7,1.6,1.6V16.2z M6,12.5v2.4H2.6c-0.2-0.8-0.3-1.6-0.3-2.4H6z M6.2,17.4c0.3,1,1,1.9,2,2.4H4.6
		c-0.4-0.8-0.8-1.6-1.2-2.4H6.2z M14.1,14.9v-2.4h3.6c0,0.8-0.1,1.6-0.3,2.4H14.1z M10.1,2.7c1.9,0,3.7,0.9,5.1,2.4H5
		C6.3,3.6,8.1,2.7,10.1,2.7z M10.1,29c-0.3-0.6-0.6-1.3-0.9-1.9H11C10.6,27.8,10.3,28.4,10.1,29z M22.5,16.6h3.6
		c-0.9,0.5-1.7,1.4-2,2.4h-2.8C21.7,18.2,22.1,17.4,22.5,16.6z M24.6,13.4c0.4-0.5,0.7-1.1,1.1-1.6h4.7c0.3,0.5,0.7,1.1,1.1,1.6
		c0.2,0.3,0.3,0.5,0.5,0.8h-7.9C24.2,13.9,24.4,13.6,24.6,13.4z M26.4,20.2c0-0.9,0.7-1.6,1.6-1.6s1.6,0.7,1.6,1.6v5.1
		c0,0.9-0.7,1.6-1.6,1.6l0,0c-0.9,0-1.6-0.7-1.6-1.6V20.2z M32.1,21.5h3.4c0.2,0.8,0.3,1.6,0.3,2.4h-3.6L32.1,21.5L32.1,21.5z
		 M31.9,19c-0.3-1-1-1.9-2-2.4h3.6c0.4,0.8,0.8,1.6,1.2,2.4H31.9z M23.9,21.5v2.4h-3.6c0-0.8,0.1-1.6,0.3-2.4H23.9z M20.5,26.4h3.6
		c0.3,1,0.9,1.9,1.8,2.4h-4.6C21,28.1,20.7,27.3,20.5,26.4z M31.9,26.4h3.6c-0.2,0.9-0.4,1.7-0.8,2.4h-4.6
		C31,28.3,31.7,27.5,31.9,26.4z M28,7.4c0.3,0.6,0.6,1.3,0.9,1.9h-1.8C27.4,8.6,27.7,8,28,7.4z M28,33.7c-1.9,0-3.7-0.9-5.1-2.4H33
		C31.7,32.8,30,33.7,28,33.7z"/>
</g>
<g class="st1">
	<circle class="st2" cx="19" cy="17.2" r="21.3"/>
</g>
</svg>
