<?xml version="1.0" encoding="utf-8"?>
<!-- Generator: Adobe Illustrator 21.0.0, SVG Export Plug-In . SVG Version: 6.00 Build 0)  -->
<svg version="1.1" id="Layer_1" xmlns="http://www.w3.org/2000/svg" xmlns:xlink="http://www.w3.org/1999/xlink" x="0px" y="0px"
	 viewBox="0 0 25.6 42.5" style="enable-background:new 0 0 25.6 42.5;" xml:space="preserve">
<style type="text/css">
	.st0{fill:#FFFFFF;}
	.st1{display:none;}
	.st2{display:inline;stroke:#36A9E1;stroke-miterlimit:10;}
</style>
<g>
	<g>
		<path class="st0" d="M22.5,21.5v-3c0-0.4-0.2-0.7-0.4-0.9c0.2-0.9,0.4-1.8,0.4-2.7c0-2.3-0.8-4.5-2.2-6.2h0.2
			c0.7,0,1.2-0.6,1.2-1.2s-0.6-1.2-1.2-1.2h-2.3V1.2C18.2,0.5,17.6,0,17,0H8.7C8,0,7.5,0.6,7.5,1.2v5.1H5.2C4.5,6.3,4,6.9,4,7.5
			s0.3,1.2,1,1.2h0.2C3.8,10.4,3,12.6,3,14.9c0,0.9,0.1,1.8,0.4,2.7C3.2,17.8,3,18.1,3,18.5v3c-1.9,2.3-3,5.2-3,8.2
			c0,7,5.7,12.8,12.8,12.8c7,0,12.8-5.7,12.8-12.8C25.5,26.6,24.4,23.8,22.5,21.5z M5.4,14.9c0-2.5,1.3-4.9,3.5-6.2h7.6
			c2.2,1.3,3.5,3.7,3.5,6.2c0,0.8-0.1,1.6-0.4,2.3H5.8C5.6,16.5,5.4,15.7,5.4,14.9z M7.3,24.1H6.5v-0.8h0.8V24.1z M8.5,20.8H5.4v-1
			h0.1h14.4H20v1H8.5z M9.8,2.4h5.8v3.8H9.8V2.4z M12.7,39.9C7,39.9,2.4,35.3,2.4,29.6c0-1.9,0.5-3.7,1.5-5.3v1v1.8
			c0,0.7,0.6,1.2,1.2,1.2c0.3,0,0.6-0.1,0.8-0.3c0.2,0.2,0.5,0.3,0.8,0.3s0.6-0.1,0.8-0.3c0.2,0.2,0.5,0.3,0.8,0.3
			c0.7,0,1.3-0.6,1.3-1.2v-1.8v-2.1h11c1.4,1.8,2.2,4.1,2.2,6.4C23,35.3,18.4,39.9,12.7,39.9z"/>
		<path class="st0" d="M8.4,11.3C8.2,11.5,8,11.9,8,12.2s0.1,0.6,0.4,0.9c0.2,0.2,0.6,0.4,0.9,0.4s0.7-0.1,0.9-0.4
			c0.2-0.2,0.4-0.5,0.4-0.9s-0.1-0.7-0.4-0.9C9.7,10.8,8.9,10.8,8.4,11.3z"/>
		<path class="st0" d="M16.2,13.4c0.3,0,0.7-0.1,0.9-0.4c0.2-0.2,0.4-0.5,0.4-0.9s-0.1-0.7-0.4-0.9c-0.5-0.5-1.3-0.5-1.8,0
			c-0.2,0.2-0.4,0.6-0.4,0.9s0.1,0.6,0.4,0.9C15.6,13.3,15.9,13.4,16.2,13.4z"/>
		<path class="st0" d="M12.7,29.2c-0.7,0-1.2,0.5-1.2,1.2s0.6,1.2,1.2,1.2c0.7,0,1.2-0.6,1.2-1.2C14,29.8,13.4,29.2,12.7,29.2z"/>
		<path class="st0" d="M12.7,33.2c-0.7,0-1.2,0.5-1.2,1.2s0.6,1.2,1.2,1.2c0.7,0,1.2-0.6,1.2-1.2S13.4,33.2,12.7,33.2z"/>
		<path class="st0" d="M12.7,25.2c-0.7,0-1.2,0.5-1.2,1.2s0.6,1.2,1.2,1.2c0.7,0,1.2-0.6,1.2-1.2S13.4,25.2,12.7,25.2z"/>
		<path class="st0" d="M17.2,13.8L13,13.2c-0.4,0-0.7,0.1-1,0.3s-0.4,0.6-0.4,0.9v1.3c0,0.4,0.2,0.7,0.4,0.9s0.5,0.3,0.8,0.3
			c0.1,0,0.1,0,0.2,0l4.2-0.6c0.6-0.1,1.1-0.6,1.1-1.2S17.8,13.9,17.2,13.8z"/>
	</g>
</g>
<g class="st1">
	<circle class="st2" cx="12.7" cy="21.1" r="21.3"/>
</g>
</svg>
