<?xml version="1.0" encoding="utf-8"?>
<!-- Generator: Adobe Illustrator 21.0.0, SVG Export Plug-In . SVG Version: 6.00 Build 0)  -->
<svg version="1.1" id="Layer_1" xmlns="http://www.w3.org/2000/svg" xmlns:xlink="http://www.w3.org/1999/xlink" x="0px" y="0px"
	 viewBox="0 0 42.8 23.9" style="enable-background:new 0 0 42.8 23.9;" xml:space="preserve">
<style type="text/css">
	.st0{fill:#FFFFFF;}
	.st1{display:none;}
	.st2{display:inline;stroke:#36A9E1;stroke-miterlimit:10;}
</style>
<g>
	<g>
		<path class="st0" d="M42.2,9.9C42.2,9.9,42.3,9.9,42.2,9.9c0-0.3-0.1-0.4-0.2-0.6c-0.7-2.8-2.2-5-4.3-5H19.6
			c-0.7-1-1.1-1.9-1.5-2.6C17.8,0.6,16.5,0,14.5,0c-2.2,0-3.6,0.8-3.6,2.1c0,0.7,0.1,1.5,0.2,2.2H4.9c-3.2,0-4.9,5-4.9,9.8
			s1.7,9.8,4.9,9.8h33c3.2,0,4.9-5,4.9-9.8C42.7,12.7,42.5,11.2,42.2,9.9z M2.5,14.1c0-4.6,1.5-7.3,2.4-7.3s2.4,2.8,2.4,7.3
			s-1.5,7.3-2.4,7.3S2.5,18.7,2.5,14.1z M37.8,21.5H8.2c0.9-1.6,1.4-3.8,1.5-6.1h3c0.7,0,1.2-0.6,1.2-1.2S13.3,13,12.7,13h-3
			c-0.1-2.3-0.6-4.5-1.5-6.1h3.5c0.5,2,1.2,3.4,1.2,3.5c0.2,0.5,0.7,0.8,1.1,0.8c0.2,0,0.3,0,0.5-0.1c0.6-0.3,0.9-1,0.6-1.6
			c0,0-1.1-2.6-1.6-5.2c0.3,0,0.6,0.1,0.9,0.1c0.7,0,1.4-0.1,1.9-0.3c1.5,2.9,4.6,7.2,9.4,7.2c0.7,0,1.2-0.6,1.2-1.3
			s-0.6-1.2-1.2-1.2c-1.6,0-3-0.8-4.2-1.8h16.1c0.4,0,1,0.6,1.4,1.8h-4.5c-0.7,0-1.2,0.6-1.2,1.2s0.6,1.3,1.2,1.3h5.4
			c0.1,0.6,0.2,1.2,0.2,1.8h-16c-0.7,0-1.2,0.6-1.2,1.2s0.6,1.2,1.2,1.2h16.1C39.9,19.2,38.6,21.5,37.8,21.5z"/>
		<path class="st0" d="M31.9,17.2H17.3c-0.7,0-1.2,0.6-1.2,1.2s0.6,1.2,1.2,1.2h14.6c0.7,0,1.2-0.6,1.2-1.2S32.6,17.2,31.9,17.2z"/>
	</g>
</g>
<g class="st1">
	<circle class="st2" cx="21.3" cy="14.1" r="21.3"/>
</g>
</svg>
