<?xml version="1.0" encoding="utf-8"?>
<!-- Generator: Adobe Illustrator 21.0.0, SVG Export Plug-In . SVG Version: 6.00 Build 0)  -->
<svg version="1.1" id="Layer_1" xmlns="http://www.w3.org/2000/svg" xmlns:xlink="http://www.w3.org/1999/xlink" x="0px" y="0px"
	 viewBox="0 0 36.1 29.6" style="enable-background:new 0 0 36.1 29.6;" xml:space="preserve">
<style type="text/css">
	.st0{fill:#FFFFFF;}
	.st1{display:none;}
	.st2{display:inline;stroke:#36A9E1;stroke-miterlimit:10;}
</style>
<g>
	<path class="st0" d="M29.6,13.6c-0.2-2.2-0.8-4.3-1.8-6.1c0,0,0-0.1-0.1-0.1c-1.9-3.3-5.1-5.8-8.9-6.9h-0.1C17.5,0.2,16.2,0,14.9,0
		s-2.5,0.2-3.7,0.5h-0.1C7.2,1.5,4,4.1,2,7.5c0,0,0,0.1-0.1,0.1C0.7,9.7,0,12.2,0,14.8v6.8v6.8c0,0.7,0.6,1.2,1.2,1.2H8h13.3H25h3.3
		h2.9h3.7c0.7,0,1.2-0.6,1.2-1.2v-6.8C36.2,17.6,33.4,14.3,29.6,13.6z M2.6,20.2v-4.3h1v4.3H2.6z M3.9,9.2h3v4.3H2.7
		C2.8,12,3.3,10.5,3.9,9.2z M13.8,9.2v4.3H9.4V9.2H13.8z M20.6,9.2v4.3h-4.4V9.2H20.6z M25.9,9.2c0.7,1.3,1.1,2.7,1.3,4.3h-4V9.2
		C23.2,9.2,25.9,9.2,25.9,9.2z M12.9,20.2v-4.3h3c-1.1,1.2-1.8,2.6-2.1,4.3H12.9z M6.1,16h4.3v4.3H8.2h-2L6.1,16L6.1,16z M11.6,22.8
		C11.7,22.8,11.7,22.7,11.6,22.8h2v4.3H9.3v-4.3H11.6z M16.1,22.7h4.1V27h-4.1V22.7z M20.3,20.2h-4c0.6-2.4,2.7-4.2,5.3-4.3h0.3l0,0
		h0.5C21.3,17.1,20.6,18.6,20.3,20.2z M24.2,6.7h-4.6V3.4C21.4,4.1,22.9,5.3,24.2,6.7z M17.1,2.6v4.1h-4.2V2.6
		c0.7-0.1,1.3-0.2,2-0.2C15.6,2.4,16.4,2.5,17.1,2.6z M10.4,3.3v3.4H5.6C6.9,5.2,8.5,4,10.4,3.3z M2.6,27v-4.3h2.2c0,0,0,0,0.1,0h2
		V27H2.6z M33.7,27h-1.2v-5.5c0-2.4-1.9-4.3-4.3-4.3s-4.3,1.9-4.3,4.3V27h-1.2v-5.5c0-3,2.5-5.5,5.5-5.5s5.5,2.5,5.5,5.5V27z"/>
	<g>
		<path class="st0" d="M18.3,29.5L18.3,29.5c-0.7,0-1.2-0.6-1.2-1.2v-6.8c0-0.7,0.6-1.2,1.2-1.2l0,0c0.7,0,1.2,0.6,1.2,1.2v6.8
			C19.6,29,19,29.5,18.3,29.5z"/>
	</g>
</g>
<g class="st1">
	<circle class="st2" cx="18.3" cy="18.2" r="21.3"/>
</g>
</svg>
