<?xml version="1.0" encoding="utf-8"?>
<!-- Generator: Adobe Illustrator 21.0.0, SVG Export Plug-In . SVG Version: 6.00 Build 0)  -->
<svg version="1.1" id="Layer_1" xmlns="http://www.w3.org/2000/svg" xmlns:xlink="http://www.w3.org/1999/xlink" x="0px" y="0px"
	 viewBox="0 0 39.5 25.5" style="enable-background:new 0 0 39.5 25.5;" xml:space="preserve">
<style type="text/css">
	.st0{fill:#FFFFFF;}
	.st1{display:none;}
	.st2{display:inline;stroke:#36A9E1;stroke-miterlimit:10;}
</style>
<g>
	<g>
		<path class="st0" d="M17,14.2L17,14.2L17,14.2c0.2,0,0.3,0,0.4-0.1c0.1,0,0.1,0,0.2-0.1c0.1,0,0.1-0.1,0.2-0.1
			c0.1-0.1,0.2-0.2,0.3-0.3l0,0l0,0c0.1-0.1,0.1-0.3,0.1-0.4l0,0v-0.1c0-0.3-0.1-0.6-0.3-0.8c-0.6-1.2-0.6-2.6,0-3.7l0,0
			c0.2-0.4,0.2-0.9,0-1.3s-0.7-0.6-1.1-0.6c-0.7,0-1.4-0.2-1.9-0.5c-1-0.6-1.6-1.5-1.9-2.6c-0.1-0.4-0.3-0.7-0.6-0.8
			c-0.3-0.2-0.7-0.2-1-0.1c-1,0.4-2.2,0.3-3.2-0.3C7.6,2.1,7.1,1.6,6.9,1c-0.2-0.4-0.6-0.6-1-0.6S5.1,0.6,4.8,1L4.6,1.1
			C3.9,2.3,2.6,3,1.3,3C0.8,3,0.4,3.2,0.1,3.6C0,4,0,4.5,0.1,4.9c0.7,1.2,0.7,2.6,0.1,3.9L0.1,8.9C0,9.3,0,9.7,0.3,10.1
			c0.2,0.4,0.6,0.6,1.1,0.6c0.7,0,1.4,0.2,1.9,0.5c1,0.6,1.6,1.5,1.8,2.6c0.1,0.4,0.3,0.7,0.6,0.8c0.3,0.2,0.7,0.2,1,0.1
			c1.1-0.4,2.2-0.3,3.2,0.3c0.6,0.3,1.1,0.8,1.4,1.4c0.2,0.4,0.6,0.6,1.1,0.6l0,0c0.5,0,0.9-0.3,1.1-0.7l0,0
			C14.3,14.9,15.5,14.2,17,14.2L17,14.2z M12.5,13.5c-0.4-0.4-0.8-0.7-1.3-1c-1-0.6-2-0.8-3.2-0.8c-0.3,0-0.6,0-0.8,0.1
			c-0.5-1.3-1.5-2.4-2.7-3.1C4,8.4,3.6,8.2,3,8.1C3.3,7.1,3.2,6,3,5c1-0.3,2-0.8,2.7-1.6c0.4,0.4,0.8,0.7,1.3,1c1.2,0.7,2.6,1,4,0.8
			c0.5,1.3,1.5,2.4,2.7,3.1c0.5,0.3,0.9,0.5,1.5,0.6C15.1,9.4,15,10,15,10.5L6.1,5.3C5.5,5,4.7,5.2,4.4,5.8C4.1,6.4,4.3,7.2,4.9,7.5
			l8.9,5.2C13.3,12.8,12.8,13.1,12.5,13.5z"/>
		<path class="st0" d="M39.2,8.4c-0.7-1.2-0.7-2.7,0.1-3.9c0.2-0.4,0.2-0.9,0-1.3s-0.7-0.6-1.1-0.6c-1.4,0-2.7-0.7-3.4-1.9
			c0,0,0-0.1-0.1-0.1c-0.2-0.4-0.5-0.6-1-0.6c-0.4,0-0.8,0.3-1,0.6c-0.4,0.6-0.8,1.1-1.4,1.4c-1,0.6-2.1,0.7-3.2,0.3
			c-0.3-0.1-0.7-0.1-1,0.1s-0.5,0.5-0.6,0.8c-0.2,1.1-0.9,2.1-1.9,2.6c-0.6,0.3-1.2,0.5-2,0.5l0,0c-0.4,0-0.9,0.2-1.1,0.6
			s-0.2,0.9,0,1.3l0,0c0.7,1.2,0.6,2.7-0.1,3.9c-0.1,0.1-0.1,0.2-0.1,0.3v0.1c0,0.1,0,0.2,0,0.3s0,0.1,0,0.2c0,0.1,0,0.1,0.1,0.2
			c0,0.1,0,0.1,0.1,0.2c0.2,0.4,0.7,0.6,1.1,0.6l0,0l0,0c1.4,0,2.6,0.7,3.4,1.9c0,0.1,0.1,0.1,0.1,0.2c0.2,0.3,0.6,0.5,1,0.5h0.1
			c0.4,0,0.8-0.3,1-0.6c0.4-0.6,0.8-1.1,1.4-1.4c1-0.6,2.1-0.7,3.2-0.3c0.3,0.1,0.7,0.1,1-0.1c0.3-0.2,0.5-0.5,0.6-0.8
			c0.2-1.1,0.9-2.1,1.8-2.6c0.6-0.3,1.2-0.5,2-0.5c0.5,0,0.8-0.2,1.1-0.6c0.2-0.4,0.3-0.8,0.1-1.2C39.2,8.5,39.2,8.5,39.2,8.4z
			 M36.4,8.1c-0.5,0.1-1,0.3-1.4,0.6c-1.2,0.7-2.1,1.8-2.7,3.1c-1.4-0.2-2.8,0.1-4,0.8c-0.5,0.3-0.9,0.6-1.3,1
			c-0.4-0.4-0.8-0.7-1.3-1l8.9-5.2c0.6-0.3,0.8-1.1,0.5-1.7S34,4.9,33.4,5.2l-8.9,5.2c0-0.5-0.1-1.1-0.2-1.6c0.5-0.1,1-0.3,1.5-0.6
			c1.2-0.7,2.1-1.8,2.7-3.1c1.4,0.2,2.8-0.1,4-0.8c0.5-0.3,0.9-0.6,1.3-1c0.8,0.7,1.7,1.3,2.7,1.6C36.1,6,36.1,7.1,36.4,8.1z"/>
		<path class="st0" d="M19.6,18.4c0-1.4-1.1-2.5-2.5-2.5s-2.5,1.1-2.5,2.5s1.1,2.5,2.5,2.5S19.6,19.8,19.6,18.4z"/>
		<path class="st0" d="M22.3,15.9c-1.4,0-2.5,1.1-2.5,2.5s1.1,2.5,2.5,2.5s2.5-1.1,2.5-2.5S23.7,15.9,22.3,15.9z"/>
		<path class="st0" d="M19.7,20.5c-1.4,0-2.5,1.1-2.5,2.5s1.1,2.5,2.5,2.5s2.5-1.1,2.5-2.5S21.1,20.5,19.7,20.5z"/>
	</g>
</g>
<g class="st1">
	<circle class="st2" cx="19.7" cy="11.4" r="21.3"/>
</g>
</svg>
