<?xml version="1.0" encoding="utf-8"?>
<!-- Generator: Adobe Illustrator 21.0.0, SVG Export Plug-In . SVG Version: 6.00 Build 0)  -->
<svg version="1.1" id="Layer_1" xmlns="http://www.w3.org/2000/svg" xmlns:xlink="http://www.w3.org/1999/xlink" x="0px" y="0px"
	 viewBox="0 0 34.9 34.2" style="enable-background:new 0 0 34.9 34.2;" xml:space="preserve">
<style type="text/css">
	.st0{fill:#FFFFFF;}
	.st1{display:none;}
	.st2{display:inline;stroke:#36A9E1;stroke-miterlimit:10;}
</style>
<g>
	<g>
		<path class="st0" d="M33.7,31.7h-7.1c3.1-2.3,5.1-6,5.1-10.1v-5.7c0-0.7-0.6-1.2-1.2-1.2H7.7c-0.7,0-1.2,0.6-1.2,1.2v1.2h-2
			c-2.5,0-4.5,2-4.5,4.5s2,4.5,4.5,4.5h2.8c0.9,2.3,2.4,4.2,4.3,5.7H4.5c-0.7,0-1.2,0.6-1.2,1.2c0,0.6,0.6,1.2,1.2,1.2h29.2
			c0.7,0,1.2-0.6,1.2-1.2C34.9,32.4,34.4,31.7,33.7,31.7z M4.5,23.5c-1.1,0-2-0.9-2-2s0.9-2,2-2h2v2c0,0.7,0.1,1.3,0.2,2H4.5z
			 M9,21.6v-4.4h13.9v1.2h-1.5c-0.7,0-1.2,0.6-1.2,1.2V25c0,0.7,0.6,1.2,1.2,1.2h5.4c0.7,0,1.2-0.6,1.2-1.2v-5.4
			c0-0.7-0.6-1.2-1.2-1.2h-1.5v-1.2h3.9v4.4c0,5.6-4.6,10.1-10.1,10.1S9,27.2,9,21.6z"/>
		<path class="st0" d="M13.6,12.2c0.2,0.2,0.6,0.4,0.9,0.4s0.6-0.1,0.9-0.4c0.5-0.5,0.5-1.3,0-1.8c-0.9-0.9-0.9-2.3,0-3.2
			s1.4-2.1,1.4-3.4s-0.5-2.5-1.4-3.4c-0.5-0.5-1.3-0.5-1.8,0s-0.5,1.3,0,1.8c0.4,0.4,0.7,1,0.7,1.6S14.1,5,13.6,5.4
			C11.8,7.3,11.8,10.3,13.6,12.2z"/>
		<path class="st0" d="M18.7,3.9c0,0.6-0.2,1.2-0.7,1.6c-1.9,1.9-1.9,4.9,0,6.7c0.2,0.2,0.6,0.4,0.9,0.4s0.6-0.1,0.9-0.4
			c0.5-0.5,0.5-1.3,0-1.8c-0.9-0.9-0.9-2.3,0-3.2s1.4-2.1,1.4-3.4s-0.5-2.5-1.4-3.4c-0.5-0.5-1.3-0.5-1.8,0s-0.5,1.3,0,1.8
			S18.7,3.3,18.7,3.9z"/>
		<path class="st0" d="M23.1,3.9c0,0.6-0.2,1.2-0.7,1.6c-1.9,1.9-1.9,4.9,0,6.7c0.2,0.2,0.6,0.4,0.9,0.4s0.6-0.1,0.9-0.4
			c0.5-0.5,0.5-1.3,0-1.8c-0.9-0.9-0.9-2.3,0-3.2s1.4-2.1,1.4-3.4s-0.5-2.5-1.4-3.4c-0.5-0.5-1.3-0.5-1.8,0s-0.5,1.3,0,1.8
			S23.1,3.3,23.1,3.9z"/>
	</g>
</g>
<g class="st1">
	<circle class="st2" cx="18.9" cy="19.2" r="21.3"/>
</g>
</svg>
