<?xml version="1.0" encoding="utf-8"?>
<!-- Generator: Adobe Illustrator 21.0.0, SVG Export Plug-In . SVG Version: 6.00 Build 0)  -->
<svg version="1.1" id="Layer_1" xmlns="http://www.w3.org/2000/svg" xmlns:xlink="http://www.w3.org/1999/xlink" x="0px" y="0px"
	 viewBox="0 0 37.6 36.7" style="enable-background:new 0 0 37.6 36.7;" xml:space="preserve">
<style type="text/css">
	.st0{fill:#FFFFFF;}
	.st1{display:none;}
	.st2{display:inline;stroke:#36A9E1;stroke-miterlimit:10;}
</style>
<g>
	<path class="st0" d="M36.5,17.2V6c0-3.3-2.7-6-6-6s-6,2.7-6,6v2.8c-1.1-0.7-2.6-0.6-3.6,0.3c-1.3,1.1-1.5,3-0.4,4.3l3.5,4.2
		c-0.5,0.6-0.9,1.4-0.9,2.2c0,1.1,0.5,2.1,1.3,2.7v6.2c0,3-2.5,5.5-5.5,5.5s-5.5-2.5-5.5-5.5v-6.2c0.8-0.6,1.3-1.6,1.3-2.7
		c0-0.9-0.3-1.6-0.9-2.2l3.5-4.2c1.1-1.3,0.9-3.2-0.4-4.3c-1-0.8-2.5-0.9-3.6-0.3V6c0-3.3-2.7-6-6-6s-6,2.7-6,6v11.1
		C0.5,17.7,0,18.7,0,19.8c0,1.9,1.5,3.4,3.4,3.4h7.4v5.5c0,4.4,3.6,8,8,8s8-3.6,8-8v-5.5h7.4c1.9,0,3.4-1.5,3.4-3.4
		C37.8,18.8,37.3,17.8,36.5,17.2z M4.1,6c0-1.9,1.6-3.5,3.5-3.5s3.5,1.6,3.5,3.5v6c0,0.5,0.3,1,0.8,1.2s1,0,1.4-0.4l1.5-1.8
		c0.2-0.2,0.4-0.4,0.8-0.1c0.2,0.2,0.3,0.6,0.1,0.8l-3.9,4.7h-0.2H4.2L4.1,6L4.1,6z M2.8,19.9c0-0.5,0.4-0.9,0.9-0.9h7.8
		c0.5,0,0.9,0.4,0.9,0.9s-0.4,0.9-0.9,0.9H3.6C3.2,20.7,2.8,20.3,2.8,19.9z M22.5,11c0.4-0.3,0.6-0.1,0.8,0.1l1.5,1.8
		c0.3,0.4,0.9,0.6,1.4,0.4c0.5-0.2,0.8-0.6,0.8-1.2v-6c0-1.9,1.6-3.5,3.5-3.5S34,4.2,34,6.1v10.4h-7.4h-0.2l-3.9-4.7
		C22.3,11.6,22.3,11.2,22.5,11z M34.4,20.7h-7.8c-0.5,0-0.9-0.4-0.9-0.9s0.4-0.9,0.9-0.9h7.8c0.5,0,0.9,0.4,0.9,0.9
		S34.9,20.7,34.4,20.7z"/>
</g>
<g class="st1">
	<circle class="st2" cx="19" cy="16" r="21.3"/>
</g>
</svg>
