<?xml version="1.0" encoding="utf-8"?>
<!-- Generator: Adobe Illustrator 21.0.0, SVG Export Plug-In . SVG Version: 6.00 Build 0)  -->
<svg version="1.1" id="Layer_1" xmlns="http://www.w3.org/2000/svg" xmlns:xlink="http://www.w3.org/1999/xlink" x="0px" y="0px"
	 viewBox="0 0 38.3 42" style="enable-background:new 0 0 38.3 42;" xml:space="preserve">
<style type="text/css">
	.st0{fill:#FFFFFF;}
	.st1{display:none;}
	.st2{display:inline;stroke:#36A9E1;stroke-miterlimit:10;}
</style>
<g>
	<g>
		<path class="st0" d="M38,13.4c-0.7-1.8-2.5-3.1-4.4-3.1c-0.6,0-1.1,0.1-1.7,0.3l-5.1,1.9c0.6-1.2,0.9-2.5,0.9-3.9
			c0-4.7-3.8-8.6-8.6-8.6c-4.7,0-8.6,3.8-8.6,8.6c0,1.4,0.3,2.7,0.9,3.9l-3-1.1c0,0,0,0-0.1-0.1c-0.1,0-0.1,0-0.2,0l-1.7-0.7
			c-0.5-0.2-1.1-0.3-1.7-0.3c-2,0-3.7,1.2-4.4,3.1c-0.4,1.2-0.4,2.5,0.1,3.6c0.5,1.2,1.5,2,2.6,2.5l8.1,3.1v4.8l-5.5,6.8
			c-1.7,2-1.3,5,0.7,6.7c0.8,0.7,1.9,1.1,3,1.1c1.4,0,2.8-0.6,3.7-1.8l1.1-1.4c0,0,0,0,0.1-0.1l0,0l4.9-6.1l4.9,6v0.1l0.1,0.1
			l1.1,1.3c0.9,1.1,2.3,1.8,3.7,1.8c1.1,0,2.1-0.4,3-1.1c2-1.7,2.3-4.6,0.7-6.7l-5.5-6.8v-4.7l8.1-3.1c1.2-0.4,2.1-1.3,2.6-2.5
			C38.4,15.8,38.5,14.6,38,13.4z M2.6,16c-0.2-0.5-0.3-1.2-0.1-1.7c0.4-1.1,1.8-1.7,2.9-1.3l0.7,0.3l-1.9,4.1l-0.4-0.2
			C3.3,16.9,2.9,16.5,2.6,16z M7.9,38.9c-1-0.8-1.1-2.2-0.3-3.2L8,35.2l3.5,2.8l-0.4,0.6C10.3,39.5,8.9,39.7,7.9,38.9z M30.4,38.9
			c-0.9,0.8-2.4,0.6-3.2-0.3l-0.4-0.5l3.5-2.8l0.4,0.5C31.5,36.7,31.3,38.2,30.4,38.9z M25.4,20.5c-0.5,0.2-0.8,0.6-0.8,1.2v5.6
			c-0.1,0.4-0.1,0.9,0.2,1.2l3.9,4.8l-3.5,2.8l-5.1-6.3c-0.5-0.6-1.5-0.6-1.9,0l-5.1,6.3l-3.5-2.8l3.9-4.8c0.3-0.3,0.3-0.7,0.2-1.1
			v-5.8c0-0.5-0.3-1-0.8-1.2l-6.2-2.2l1.9-4.1l5.4,2.1c0.4,0.1,0.8,0.1,1.2-0.1c0.3-0.2,0.5-0.6,0.5-1v-0.7c0-0.4-0.2-0.7-0.4-1
			c-1.4-1.2-2.1-2.8-2.1-4.6c0-3.3,2.7-6.1,6.1-6.1s6.1,2.7,6.1,6.1c0,1.8-0.8,3.4-2.1,4.6c-0.3,0.2-0.4,0.6-0.4,1v0.7
			c0,0.4,0.2,0.8,0.5,1s0.8,0.3,1.2,0.1l5.5-2.1l1.8,4.1L25.4,20.5z M35.6,16c-0.2,0.5-0.7,1-1.3,1.2l-0.4,0.1l-1.8-4.1l0.6-0.2
			c1.1-0.4,2.5,0.2,2.9,1.3C35.9,14.8,35.9,15.4,35.6,16z"/>
		<path class="st0" d="M22.8,11.9c0.5-0.5,0.5-1.3,0-1.8s-1.3-0.5-1.8,0c-1,1-2.8,1-3.8,0c-0.5-0.5-1.3-0.5-1.8,0s-0.5,1.3,0,1.8
			c1,1,2.3,1.5,3.7,1.5S21.8,12.9,22.8,11.9z"/>
		<path class="st0" d="M16.4,8c0.3,0,0.6-0.1,0.9-0.4c0.2-0.2,0.4-0.6,0.4-0.9S17.6,6,17.3,5.8c-0.5-0.5-1.3-0.5-1.8,0
			c-0.2,0.2-0.4,0.6-0.4,0.9s0.1,0.6,0.4,0.9C15.7,7.9,16,8,16.4,8z"/>
		<path class="st0" d="M21.9,8c0.3,0,0.7-0.1,0.9-0.4C23,7.4,23.2,7,23.2,6.7S23.1,6,22.8,5.8c-0.5-0.5-1.3-0.5-1.8,0
			c-0.2,0.2-0.4,0.6-0.4,0.9s0.1,0.6,0.4,0.9C21.3,7.9,21.6,8,21.9,8z"/>
		<path class="st0" d="M18.3,17.3c-0.2,0.2-0.4,0.5-0.4,0.9s0.1,0.6,0.4,0.9c0.2,0.2,0.5,0.4,0.9,0.4s0.7-0.1,0.9-0.4
			c0.2-0.2,0.4-0.6,0.4-0.9s-0.1-0.7-0.4-0.9C19.5,16.8,18.7,16.8,18.3,17.3z"/>
		<path class="st0" d="M18.3,21.3c-0.2,0.2-0.4,0.6-0.4,0.9s0.1,0.7,0.4,0.9c0.2,0.2,0.5,0.4,0.9,0.4s0.7-0.1,0.9-0.4
			c0.2-0.2,0.4-0.6,0.4-0.9s-0.1-0.7-0.4-0.9C19.6,20.9,18.7,20.9,18.3,21.3z"/>
		<path class="st0" d="M18.3,25.4c-0.2,0.2-0.4,0.6-0.4,0.9s0.1,0.6,0.4,0.9c0.2,0.2,0.5,0.4,0.9,0.4s0.7-0.1,0.9-0.4
			c0.2-0.2,0.4-0.5,0.4-0.9s-0.1-0.7-0.4-0.9C19.6,25,18.7,25,18.3,25.4z"/>
	</g>
</g>
<g class="st1">
	<circle class="st2" cx="19.1" cy="22" r="21.3"/>
</g>
</svg>
