<?xml version="1.0" encoding="utf-8"?>
<!-- Generator: Adobe Illustrator 21.0.0, SVG Export Plug-In . SVG Version: 6.00 Build 0)  -->
<svg version="1.1" id="Layer_1" xmlns="http://www.w3.org/2000/svg" xmlns:xlink="http://www.w3.org/1999/xlink" x="0px" y="0px"
	 viewBox="0 0 85.2 97.6" style="enable-background:new 0 0 85.2 97.6;" xml:space="preserve">
<style type="text/css">
	.st0{fill:#FFFFFF;}
</style>
<path class="st0" d="M84.7,70.5l-5.6-9.3c-0.6-0.9-1.7-1.4-2.7-1.1L70,61.8l-4-2.3l9.2-2.5c1.3-0.4,2.1-1.7,1.7-3
	c-0.4-1.3-1.7-2.1-3-1.7L60,56l-2.6-1.5l2-0.5c1.3-0.4,2.1-1.7,1.7-3c-0.3-1.3-1.7-2.1-3-1.7l-6.7,1.8l-3.9-2.3l3.9-2.3l6.7,1.8
	c0.2,0.1,0.4,0.1,0.6,0.1c1.1,0,2.1-0.7,2.4-1.8c0.4-1.3-0.4-2.7-1.7-3l-2-0.5l2.6-1.5L74,45.3c0.2,0.1,0.4,0.1,0.6,0.1
	c1.1,0,2.1-0.7,2.4-1.8c0.4-1.3-0.4-2.7-1.7-3l-9.2-2.5l4-2.3l6.4,1.7c0.2,0.1,0.4,0.1,0.6,0.1c0.8,0,1.7-0.4,2.1-1.2l5.7-9.5
	c0.5-0.8,0.5-1.7,0-2.5c-0.4-0.8-1.3-1.2-2.2-1.2l-11.1,0.2c-1.1,0-2,0.8-2.3,1.8l-1.7,6.4l-4,2.3l2.5-9.2c0.4-1.3-0.4-2.7-1.7-3
	c-1.3-0.4-2.7,0.4-3,1.7l-3.7,13.9L55,38.8l0.5-2c0.4-1.3-0.4-2.7-1.7-3c-1.3-0.4-2.7,0.4-3,1.7L49,42.3l-3.9,2.3V40l4.9-4.9
	c1-1,1-2.5,0-3.5c-1-1-2.5-1-3.5,0l-1.5,1.5v-3l10.2-10.2c1-1,1-2.5,0-3.5c-1-1-2.5-1-3.5,0l-6.7,6.7v-4.6l4.7-4.7
	c0.8-0.8,0.9-2,0.4-2.9l-5.4-9.7C44.3,0.5,43.5,0,42.6,0s-1.7,0.5-2.2,1.3L35.1,11c-0.5,1-0.4,2.2,0.4,2.9l4.7,4.7v4.6l-6.7-6.7
	c-1-1-2.5-1-3.5,0c-1,1-1,2.5,0,3.5l10.2,10.2v3l-1.5-1.5c-1-1-2.5-1-3.5,0c-1,1-1,2.5,0,3.5l4.9,4.9v4.5l-3.9-2.3l-1.8-6.7
	c-0.4-1.3-1.7-2.1-3-1.7c-1.3,0.4-2.1,1.7-1.7,3l0.5,2l-2.6-1.5l-3.7-13.9c-0.4-1.3-1.7-2.1-3-1.7c-1.3,0.4-2.1,1.7-1.7,3l2.5,9.2
	l-4-2.3l-1.7-6.4c-0.3-1.1-1.2-1.8-2.3-1.8L2.5,23.2c-0.9,0-1.7,0.5-2.2,1.2c-0.4,0.8-0.4,1.7,0,2.5l5.7,9.5
	c0.5,0.8,1.3,1.2,2.1,1.2c0.2,0,0.4,0,0.6-0.1l6.4-1.7l4,2.3L10,40.6c-1.3,0.4-2.1,1.7-1.7,3c0.3,1.1,1.3,1.8,2.4,1.8
	c0.2,0,0.4,0,0.6-0.1l13.9-3.7l2.6,1.5l-2,0.5c-1.3,0.4-2.1,1.7-1.7,3c0.3,1.1,1.3,1.8,2.4,1.8c0.2,0,0.4,0,0.6-0.1l6.7-1.8l3.9,2.3
	l-3.9,2.3L27,49.3c-1.3-0.4-2.7,0.4-3,1.7s0.4,2.7,1.7,3l2,0.5L25.2,56l-13.9-3.7c-1.3-0.4-2.7,0.4-3,1.7c-0.4,1.3,0.4,2.7,1.7,3
	l9.2,2.5l-4,2.3l-6.4-1.7c-1.1-0.3-2.2,0.2-2.7,1.1l-5.7,9.5c-0.5,0.8-0.5,1.7,0,2.5c0.4,0.8,1.3,1.2,2.1,1.2c0,0,0,0,0,0l11.1-0.2
	c1.1,0,2-0.8,2.3-1.8l1.7-6.4l4-2.3L19.1,73c-0.4,1.3,0.4,2.7,1.7,3c0.2,0.1,0.4,0.1,0.6,0.1c1.1,0,2.1-0.7,2.4-1.8l3.7-13.9
	l2.6-1.5l-0.5,2c-0.4,1.3,0.4,2.7,1.7,3c0.2,0.1,0.4,0.1,0.6,0.1c1.1,0,2.1-0.7,2.4-1.8l1.8-6.7l3.9-2.3v4.5l-4.9,4.9
	c-1,1-1,2.5,0,3.5c0.5,0.5,1.1,0.7,1.7,0.7s1.3-0.2,1.7-0.7l1.5-1.5v3L29.9,77.7c-1,1-1,2.5,0,3.5c0.5,0.5,1.1,0.7,1.7,0.7
	c0.6,0,1.3-0.2,1.7-0.7l6.7-6.7v4.6l-4.7,4.7c-0.8,0.8-0.9,2-0.4,2.9l5.4,9.7c0.4,0.8,1.3,1.3,2.2,1.3s1.7-0.5,2.2-1.3l5.4-9.7
	c0.5-1,0.4-2.2-0.4-2.9l-4.7-4.7v-4.6l6.7,6.7c0.5,0.5,1.1,0.7,1.7,0.7s1.3-0.2,1.7-0.7c1-1,1-2.5,0-3.5L45.1,67.5v-3l1.5,1.5
	c0.5,0.5,1.1,0.7,1.7,0.7s1.3-0.2,1.7-0.7c1-1,1-2.5,0-3.5l-4.9-4.9v-4.5l3.9,2.3l1.8,6.7c0.3,1.1,1.3,1.8,2.4,1.8
	c0.2,0,0.4,0,0.6-0.1c1.3-0.4,2.1-1.7,1.7-3l-0.5-2l2.6,1.5l3.7,13.9c0.3,1.1,1.3,1.8,2.4,1.8c0.2,0,0.4,0,0.6-0.1
	c1.3-0.4,2.1-1.7,1.7-3l-2.5-9.2l4,2.3l1.7,6.4c0.3,1.1,1.2,1.8,2.3,1.8l11.1,0.2c0,0,0,0,0,0c0,0,0,0,0,0c1.4,0,2.5-1.1,2.5-2.5
	C85.2,71.4,85,70.9,84.7,70.5z M73.5,28.3l4.8-0.1l-2.5,4.1l-3.2-0.9L73.5,28.3z M42.6,7.5l2.3,4.2l-2.3,2.3l-2.3-2.3L42.6,7.5z
	 M9.3,32.3l-2.5-4.1l4.8,0.1l0.9,3.2L9.3,32.3z M11.7,69.4l-4.8,0.1l2.5-4.1l3.2,0.9L11.7,69.4z M42.6,90.1l-2.3-4.2l2.3-2.3
	l2.3,2.3L42.6,90.1z M73.5,69.4l-0.8-3.2l3.2-0.9l2.5,4.1L73.5,69.4z"/>
</svg>
