<?xml version="1.0" encoding="utf-8"?>
<!-- Generator: Adobe Illustrator 21.0.0, SVG Export Plug-In . SVG Version: 6.00 Build 0)  -->
<svg version="1.1" id="Layer_1" xmlns="http://www.w3.org/2000/svg" xmlns:xlink="http://www.w3.org/1999/xlink" x="0px" y="0px"
	 viewBox="0 0 85.4 96.3" style="enable-background:new 0 0 85.4 96.3;" xml:space="preserve">
<style type="text/css">
	.st0{fill:#FFFFFF;}
</style>
<path class="st0" d="M81.7,62.1c-1.1-0.7-2.4-1-3.7-1c-1.9,0-3.6,0.7-5,1.9l-3.2-1.8l10.3-2.8c1.4-0.4,2.2-1.8,1.9-3.2
	c-0.4-1.4-1.8-2.2-3.2-1.9l-15.4,4.1l-9.3-5.4c0.7-2.3,0.7-4.7,0-7.1l9.3-5.4l15.4,4.1c0.2,0.1,0.5,0.1,0.7,0.1
	c1.2,0,2.2-0.8,2.5-1.9c0.4-1.4-0.5-2.8-1.9-3.2L69.8,36l3.8-2.2c1.3,0.9,2.8,1.4,4.4,1.4c1.3,0,2.6-0.3,3.7-1
	c3.5-2,4.8-6.6,2.7-10.1c-1.3-2.3-3.8-3.7-6.4-3.7c-1.3,0-2.6,0.3-3.7,1c-1.7,1-2.9,2.6-3.5,4.5c-0.3,1.2-0.3,2.4-0.1,3.5l-3.5,2
	L70,21.1c0.4-1.4-0.5-2.8-1.9-3.2c-1.4-0.4-2.8,0.5-3.2,1.9l-4.1,15.4l-9.3,5.4c-1.6-1.8-3.8-3-6.1-3.5V26.3L56.6,15
	c1-1,1-2.7,0-3.7c-1-1-2.7-1-3.7,0l-7.6,7.6v-4.5c2.8-1.1,4.8-3.8,4.8-6.9c0-4.1-3.3-7.4-7.4-7.4c-4.1,0-7.4,3.3-7.4,7.4
	c0,3.2,2,5.9,4.8,7v4.5l-7.6-7.6c-1-1-2.7-1-3.7,0c-1,1-1,2.7,0,3.7l11.3,11.3V37c-1.2,0.3-2.3,0.7-3.3,1.3c-1.1,0.6-2,1.4-2.8,2.2
	l-9.3-5.4l-4.1-15.4c-0.4-1.4-1.8-2.2-3.2-1.9c-1.4,0.4-2.2,1.8-1.9,3.2l2.8,10.3l-3.6-2.1c0.3-1.1,0.2-2.3-0.1-3.5
	c-0.5-1.9-1.7-3.5-3.5-4.5c-1.1-0.7-2.4-1-3.7-1c-2.6,0-5.1,1.4-6.4,3.7c-1,1.7-1.3,3.7-0.7,5.6c0.5,1.9,1.7,3.5,3.5,4.5
	c1.1,0.7,2.4,1,3.7,1c1.6,0,3.1-0.5,4.4-1.4l3.8,2.2L5.3,38.8c-1.4,0.4-2.2,1.8-1.9,3.2c0.3,1.2,1.4,1.9,2.5,1.9
	c0.2,0,0.5,0,0.7-0.1l15.4-4.1l9.3,5.4c0,0.2-0.1,0.3-0.1,0.4c-0.6,2.2-0.5,4.5,0.1,6.6l-9.3,5.4L6.7,53.4c-1.4-0.4-2.8,0.5-3.2,1.9
	s0.5,2.8,1.9,3.2l10.3,2.8l-3.2,1.8c-1.4-1.2-3.1-2-5-2c-1.3,0-2.6,0.3-3.7,1C0.2,64.2-1,68.7,1,72.2C2.3,74.5,4.8,76,7.4,76
	c1.3,0,2.6-0.3,3.7-1c2.6-1.5,4-4.4,3.7-7.2l3.5-2l-2.8,10.3c-0.4,1.4,0.5,2.8,1.9,3.2c0.2,0.1,0.5,0.1,0.7,0.1
	c1.2,0,2.2-0.8,2.5-1.9l4.1-15.4l9.3-5.4c1.6,1.8,3.8,3,6.1,3.5V71L28.8,82.2c-1,1-1,2.7,0,3.7c0.5,0.5,1.2,0.8,1.9,0.8
	s1.3-0.3,1.9-0.8l7.6-7.6V82c-2.8,1.1-4.8,3.8-4.8,7c0,4.1,3.3,7.4,7.4,7.4c4.1,0,7.4-3.3,7.4-7.4c0-3.2-2-5.9-4.8-6.9v-3.6l7.6,7.6
	c0.5,0.5,1.2,0.8,1.9,0.8c0.7,0,1.3-0.3,1.9-0.8c1-1,1-2.7,0-3.7L45.4,71V60.2c1.2-0.3,2.3-0.7,3.3-1.3c1.1-0.6,2-1.4,2.8-2.2
	l9.3,5.4l4.1,15.4c0.3,1.2,1.4,1.9,2.5,1.9c0.2,0,0.5,0,0.7-0.1c1.4-0.4,2.2-1.8,1.9-3.2l-2.8-10.3l3.4,2c-0.3,2.8,1,5.7,3.7,7.2
	c1.1,0.7,2.4,1,3.7,1c2.6,0,5.1-1.4,6.4-3.7C86.5,68.7,85.3,64.2,81.7,62.1z M6.3,29.7c-0.5-0.3-0.9-0.8-1-1.3
	c-0.2-0.6-0.1-1.2,0.2-1.7c0.4-0.7,1.1-1.1,1.9-1.1c0.4,0,0.8,0.1,1.1,0.3c0.5,0.3,0.9,0.8,1,1.3c0.2,0.6,0.1,1.2-0.2,1.7
	C8.7,29.9,7.4,30.3,6.3,29.7z M75.9,27.2c0.2-0.6,0.5-1,1-1.3c0.3-0.2,0.7-0.3,1.1-0.3c0.8,0,1.5,0.4,1.9,1.1c0.6,1,0.2,2.4-0.8,3
	c-1,0.6-2.4,0.2-3-0.8C75.8,28.4,75.7,27.8,75.9,27.2z M42.7,5.2c1.2,0,2.2,1,2.2,2.2s-1,2.2-2.2,2.2s-2.2-1-2.2-2.2
	S41.5,5.2,42.7,5.2z M8.5,70.4c-1,0.6-2.4,0.2-3-0.8c-0.6-1-0.2-2.4,0.8-3c0.3-0.2,0.7-0.3,1.1-0.3c0.8,0,1.5,0.4,1.9,1.1
	C9.9,68.5,9.6,69.8,8.5,70.4z M42.7,91.1c-1.2,0-2.2-1-2.2-2.2c0-1.2,1-2.2,2.2-2.2s2.2,1,2.2,2.2C44.9,90.1,43.9,91.1,42.7,91.1z
	 M46.1,54.4c-1,0.6-2.1,0.9-3.3,0.9c0,0,0,0,0,0s0,0,0,0c-2.4,0-4.6-1.3-5.7-3.3c-0.9-1.5-1.1-3.3-0.7-5c0.5-1.7,1.6-3.2,3.1-4
	c1-0.6,2.2-0.9,3.3-0.9c0,0,0,0,0,0c0,0,0,0,0,0c2.4,0,4.6,1.3,5.8,3.3c0,0,0,0,0,0c0,0,0,0,0,0C50.3,48.5,49.2,52.5,46.1,54.4z
	 M79.9,69.6c-0.6,1-2,1.4-3,0.8c-1-0.6-1.4-1.9-0.8-3c0.4-0.7,1.1-1.1,1.9-1.1c0.4,0,0.8,0.1,1.1,0.3C80.1,67.2,80.5,68.6,79.9,69.6
	z"/>
</svg>
