<?xml version="1.0" encoding="utf-8"?>
<!-- Generator: Adobe Illustrator 21.0.0, SVG Export Plug-In . SVG Version: 6.00 Build 0)  -->
<svg version="1.1" id="Layer_1" xmlns="http://www.w3.org/2000/svg" xmlns:xlink="http://www.w3.org/1999/xlink" x="0px" y="0px"
	 viewBox="0 0 88.2 94" style="enable-background:new 0 0 88.2 94;" xml:space="preserve">
<style type="text/css">
	.st0{fill:#FFFFFF;}
</style>
<path class="st0" d="M46.8,69.6v-9.4c0-1.5-1.2-2.7-2.7-2.7s-2.7,1.2-2.7,2.7v9.3L27.8,83.1c-1,1-1,2.7,0,3.8
	c0.5,0.5,1.2,0.8,1.9,0.8s1.4-0.3,1.9-0.8l9.9-9.9v7.3l-5.2,5.2c-1,1-1,2.7,0,3.8c0.5,0.5,1.2,0.8,1.9,0.8c0.7,0,1.4-0.3,1.9-0.8
	l4-4c0,0,0,0,0.1,0s0,0,0.1,0l4,4c0.5,0.5,1.2,0.8,1.9,0.8c0.7,0,1.4-0.3,1.9-0.8c1-1,1-2.7,0-3.8l-5.2-5.2v-7.1l9.8,9.8
	c0.5,0.5,1.2,0.8,1.9,0.8c0.7,0,1.4-0.3,1.9-0.8c1-1,1-2.7,0-3.8L46.8,69.6z"/>
<path class="st0" d="M41.3,24.4v9.4c0,1.5,1.2,2.7,2.7,2.7s2.7-1.2,2.7-2.7v-9.3l13.7-13.7c1-1,1-2.7,0-3.8s-2.7-1-3.8,0L46.7,17
	V9.7l5.2-5.2c1-1,1-2.7,0-3.8c-1-1-2.7-1-3.8,0l-4,4c0,0,0,0-0.1,0c0,0,0,0-0.1,0l-4-4c-1-1-2.7-1-3.8,0c-1,1-1,2.7,0,3.8l5.2,5.2
	v7.1l-9.8-9.8c-1-1-2.7-1-3.8,0c-1,1-1,2.7,0,3.8L41.3,24.4z"/>
<path class="st0" d="M88.1,63.2c-0.4-1.4-1.8-2.3-3.3-1.9l-7.1,1.9l-6.2-3.6l13.3-3.6c1.4-0.4,2.3-1.8,1.9-3.3s-1.8-2.3-3.3-1.9
	l-18.5,5l-8.2-4.7c-1.3-0.7-2.9-0.3-3.6,1c-0.7,1.3-0.3,2.9,1,3.6l8,4.6l5,18.7c0.3,1.2,1.4,2,2.6,2c0.2,0,0.5,0,0.7-0.1
	c1.4-0.4,2.3-1.8,1.9-3.3l-3.6-13.5l6.3,3.6l1.9,7.1c0.3,1.2,1.4,2,2.6,2c0.2,0,0.5,0,0.7-0.1c1.4-0.4,2.3-1.8,1.9-3.3l-1.5-5.5
	c0,0,0,0,0-0.1c0,0,0,0,0-0.1l5.5-1.5C87.6,66.1,88.4,64.6,88.1,63.2z"/>
<path class="st0" d="M2.7,32.7c0.2,0,0.5,0,0.7-0.1l7.1-1.9l6.2,3.6L3.3,37.9c-1.4,0.4-2.3,1.8-1.9,3.3c0.3,1.2,1.4,2,2.6,2
	c0.2,0,0.5,0,0.7-0.1l18.5-4.9l8.2,4.7c0.4,0.2,0.9,0.4,1.3,0.4c0.9,0,1.8-0.5,2.3-1.3c0.7-1.3,0.3-2.9-1-3.6l-8-4.6l-5-18.7
	c-0.4-1.4-1.8-2.3-3.3-1.9c-1.4,0.4-2.3,1.8-1.9,3.3l3.6,13.5l-6.3-3.6L11.2,19c-0.4-1.4-1.8-2.3-3.3-1.9c-1.4,0.4-2.3,1.8-1.9,3.3
	l1.5,5.5c0,0,0,0,0,0c0,0,0,0,0,0.1L2,27.5c-1.4,0.4-2.3,1.8-1.9,3.3C0.4,32,1.5,32.7,2.7,32.7z"/>
<path class="st0" d="M54.1,38.1c-1.3,0.7-1.7,2.4-1,3.6c0.5,0.9,1.4,1.3,2.3,1.3c0.5,0,0.9-0.1,1.3-0.4l8-4.6l18.7,5
	c0.2,0.1,0.5,0.1,0.7,0.1c1.2,0,2.3-0.8,2.6-2c0.4-1.4-0.5-2.9-1.9-3.3l-13.5-3.6l6.3-3.6l7.1,1.9c0.2,0.1,0.5,0.1,0.7,0.1
	c1.2,0,2.3-0.8,2.6-2c0.4-1.4-0.5-2.9-1.9-3.3l-5.5-1.5c0,0,0,0,0-0.1c0,0,0,0,0,0l1.5-5.5c0.4-1.4-0.5-2.9-1.9-3.3
	c-1.4-0.4-2.9,0.5-3.3,1.9L75,26l-6.2,3.6l3.6-13.3c0.4-1.4-0.5-2.9-1.9-3.3c-1.4-0.4-2.9,0.5-3.3,1.9l-4.9,18.5L54.1,38.1z"/>
<path class="st0" d="M34.1,55.9c1.3-0.7,1.7-2.4,1-3.6c-0.7-1.3-2.4-1.7-3.6-1l-8,4.6l-18.7-5c-1.4-0.4-2.9,0.5-3.3,1.9
	c-0.4,1.4,0.5,2.9,1.9,3.3l13.5,3.6l-6.3,3.6l-7.1-1.9c-1.4-0.4-2.9,0.5-3.3,1.9c-0.4,1.4,0.5,2.9,1.9,3.3l5.5,1.5c0,0,0,0,0,0.1
	c0,0,0,0,0,0.1l-1.5,5.5C5.8,75.1,6.6,76.6,8,77c0.2,0.1,0.5,0.1,0.7,0.1c1.2,0,2.3-0.8,2.6-2l1.9-7.1l6.2-3.6l-3.6,13.3
	c-0.4,1.4,0.5,2.9,1.9,3.3c0.2,0.1,0.5,0.1,0.7,0.1c1.2,0,2.3-0.8,2.6-2l5-18.5L34.1,55.9z"/>
<circle class="st0" cx="44.1" cy="47" r="6"/>
</svg>
