<?xml version="1.0" encoding="utf-8"?>
<!-- Generator: Adobe Illustrator 21.0.0, SVG Export Plug-In . SVG Version: 6.00 Build 0)  -->
<svg version="1.1" id="Layer_1" xmlns="http://www.w3.org/2000/svg" xmlns:xlink="http://www.w3.org/1999/xlink" x="0px" y="0px"
	 viewBox="0 0 97.8 97.4" style="enable-background:new 0 0 97.8 97.4;" xml:space="preserve">
<style type="text/css">
	.st0{fill:#FFFFFF;}
</style>
<path class="st0" d="M91.4,48.8l5.7-5.7c0.8-0.8,0.8-2.1,0-3c-0.8-0.8-2.1-0.8-3,0l-6.4,6.4H76l10.2-10.7c0.4-0.4,0.6-1,0.6-1.6
	c0,0,0-0.1,0-0.1c0-1.2-0.9-2.1-2.1-2.1l-17.2,0l9.6-9.6h9.4c1.2,0,2.1-0.9,2.1-2.1s-0.9-2.1-2.1-2.1h-8.1v-8.1
	c0-1.2-0.9-2.1-2.1-2.1c-1.2,0-2.1,0.9-2.1,2.1v9.3L66,27.6l0-14.6c0-0.1,0-0.1,0-0.2c0-0.6-0.1-1.1-0.6-1.6c-0.8-0.8-2.1-0.9-3-0.1
	L51.5,21.4V10.2l6.6-6.6c0.8-0.8,0.8-2.1,0-3c-0.8-0.8-2.1-0.8-3,0l-5.7,5.7l-5.7-5.7c-0.8-0.8-2.1-0.8-3,0c-0.8,0.8-0.8,2.1,0,3
	l6.6,6.6v11.3L36.4,11.1c-0.8-0.8-2.2-0.8-3,0.1c-0.4,0.5-0.6,1.1-0.6,1.6c0,0.1,0,0.1,0,0.2l0,14.6l-8.2-8.2v-9.3
	c0-1.2-0.9-2.1-2.1-2.1c-1.2,0-2.1,0.9-2.1,2.1v8.1h-8.1c-1.2,0-2.1,0.9-2.1,2.1s0.9,2.1,2.1,2.1h9.4l9.9,9.9l-18.2,0l0,0
	c-0.1,0-0.1,0-0.2,0c-0.6,0-1.1,0.1-1.6,0.6c-0.8,0.8-0.9,2.1-0.1,3L22,46.7H10.2l-6.6-6.6c-0.8-0.8-2.1-0.8-3,0s-0.8,2.1,0,3
	l5.7,5.7l-5.7,5.7c-0.8,0.8-0.8,2.1,0,3c0.4,0.4,0.9,0.6,1.5,0.6c0.5,0,1.1-0.2,1.5-0.6l6.6-6.6h11.9L11.9,61.6
	c-0.4,0.4-0.6,1-0.6,1.6c0,0,0,0.1,0,0.1c0,1.2,0.9,2.1,2.1,2.1l17.2,0L21,75.1h-9.4c-1.2,0-2.1,0.9-2.1,2.1c0,1.2,0.9,2.1,2.1,2.1
	h8.1v8.1c0,1.2,0.9,2.1,2.1,2.1c1.2,0,2.1-0.9,2.1-2.1v-9.3l8.2-8.2l0,14.6c0,0.1,0,0.1,0,0.2c0,0.6,0.1,1.1,0.6,1.6
	c0.4,0.4,1,0.7,1.5,0.7c0.5,0,1-0.2,1.4-0.6L46.5,76v11.2L40,93.8c-0.8,0.8-0.8,2.1,0,3c0.4,0.4,0.9,0.6,1.5,0.6
	c0.5,0,1.1-0.2,1.5-0.6l5.7-5.7l5.7,5.7c0.4,0.4,0.9,0.6,1.5,0.6s1.1-0.2,1.5-0.6c0.8-0.8,0.8-2.1,0-3l-6.6-6.6V76l10.9,10.4
	c0.4,0.4,0.9,0.6,1.4,0.6c0.6,0,1.1-0.2,1.5-0.7c0.4-0.5,0.6-1,0.6-1.6c0-0.1,0-0.1,0-0.2l0-14.6l8.2,8.2v9.3c0,1.2,0.9,2.1,2.1,2.1
	c1.2,0,2.1-0.9,2.1-2.1v-8.1h8.1c1.2,0,2.1-0.9,2.1-2.1c0-1.2-0.9-2.1-2.1-2.1h-9.4l-9.9-9.9H84c0.2,0,0.3,0,0.5-0.1
	c0.2,0,0.3,0.1,0.5,0.1c0.5,0,1-0.2,1.4-0.6c0.8-0.8,0.9-2.1,0.1-3L76.2,50.9h11.4l6.6,6.6c0.4,0.4,0.9,0.6,1.5,0.6
	c0.5,0,1.1-0.2,1.5-0.6c0.8-0.8,0.8-2.1,0-3L91.4,48.8z M49.4,60c-6.4,0-11.6-5.2-11.6-11.6S43,36.8,49.4,36.8S61,42,61,48.4
	S55.8,60,49.4,60z M34.8,61.2l-16.7,0l9.8-10.3h5.9c0.5,2.9,1.7,5.6,3.6,7.8L34.8,61.2z M35.9,36.5l1.6,1.6c-2,2.4-3.4,5.3-3.8,8.6
	h-5.8c-0.1,0-0.1,0-0.2-0.1L18,36.5L35.9,36.5z M63.3,36.2l16.8,0l-9.8,10.3h-5.1c-0.4-3.2-1.7-6.1-3.7-8.5L63.3,36.2z M62.2,61
	l-1.5-1.5c2.3-2.3,3.8-5.3,4.3-8.6h5.4L80,61H62.2z M61.8,17.5l0,14.3l-3.6,3.5c-2-1.3-4.2-2.2-6.7-2.5v-5.6L61.8,17.5z M37.1,17.5
	l10.2,9.7v5.6c-2.5,0.3-4.7,1.2-6.7,2.5l-2.4-2.4c0,0,0,0,0,0l-1.1-1.1L37.1,17.5z M36.3,80l0-14.3l4.2-4.2c1.8,1.2,3.8,2.1,6,2.5
	v6.3L36.3,80z M61,80l-10.2-9.7v-6.1c2.4-0.2,4.7-0.9,6.6-2.1l2.5,2.5c0,0,0,0,0,0l1.1,1.1L61,80z"/>
</svg>
