<?xml version="1.0" encoding="utf-8"?>
<!-- Generator: Adobe Illustrator 21.0.0, SVG Export Plug-In . SVG Version: 6.00 Build 0)  -->
<svg version="1.1" id="Layer_1" xmlns="http://www.w3.org/2000/svg" xmlns:xlink="http://www.w3.org/1999/xlink" x="0px" y="0px"
	 viewBox="0 0 97.4 97.4" style="enable-background:new 0 0 97.4 97.4;" xml:space="preserve">
<style type="text/css">
	.st0{fill:#FFFFFF;}
</style>
<path class="st0" d="M97.4,48.7c0-1.6-1.3-2.8-2.8-2.8h-8.8l10.8-10.8c1.1-1.1,1.1-2.9,0-4c-1.1-1.1-2.9-1.1-4,0L77.9,45.9H51.5
	V19.6L66.3,4.8c1.1-1.1,1.1-2.9,0-4C65.7,0.3,65,0,64.3,0c-0.7,0-1.4,0.3-2,0.8L51.5,11.6V2.8c0-1.6-1.3-2.8-2.8-2.8
	s-2.8,1.3-2.8,2.8v8.8L35.1,0.8c-0.5-0.6-1.3-0.8-2-0.8c-0.7,0-1.4,0.3-2,0.8c-1.1,1.1-1.1,2.9,0,4l14.8,14.8v26.3H19.6L4.8,31.1
	c-1.1-1.1-2.9-1.1-4,0c-1.1,1.1-1.1,2.9,0,4l10.8,10.8H2.8c-1.6,0-2.8,1.3-2.8,2.8s1.3,2.8,2.8,2.8h8.8L0.8,62.3
	c-1.1,1.1-1.1,2.9,0,4c0.5,0.5,1.3,0.8,2,0.8c0.7,0,1.4-0.3,2-0.8l14.8-14.8h26.3v26.4L31.1,92.6c-1.1,1.1-1.1,2.9,0,4
	c0.5,0.5,1.3,0.8,2,0.8s1.4-0.3,2-0.8l10.8-10.8v8.8c0,1.6,1.3,2.8,2.8,2.8s2.8-1.3,2.8-2.8v-8.8l10.8,10.8c0.5,0.5,1.3,0.8,2,0.8
	s1.4-0.3,2-0.8c1.1-1.1,1.1-2.9,0-4L51.5,77.9V51.5h26.4l14.8,14.8c0.5,0.5,1.3,0.8,2,0.8c0.7,0,1.4-0.3,2-0.8c1.1-1.1,1.1-2.9,0-4
	L85.8,51.5h8.8C96.2,51.5,97.4,50.3,97.4,48.7z"/>
<path class="st0" d="M61.3,17.4c-1.6,0-2.8,1.3-2.8,2.8v16c0,1.6,1.3,2.8,2.8,2.8h13.9c1.6,0,2.8-1.3,2.8-2.8s-1.3-2.8-2.8-2.8H64.1
	V20.2C64.1,18.7,62.8,17.4,61.3,17.4z"/>
<path class="st0" d="M71.3,29.2h8.5c1.6,0,2.8-1.3,2.8-2.8c0-1.6-1.3-2.8-2.8-2.8h-5.7v-7c0-1.6-1.3-2.8-2.8-2.8
	c-1.6,0-2.8,1.3-2.8,2.8v9.8C68.5,27.9,69.8,29.2,71.3,29.2z"/>
<path class="st0" d="M19.4,36.2c0,1.6,1.3,2.8,2.8,2.8h13.9c1.6,0,2.8-1.3,2.8-2.8v-16c0-1.6-1.3-2.8-2.8-2.8
	c-1.6,0-2.8,1.3-2.8,2.8v13.2H22.2C20.7,33.4,19.4,34.6,19.4,36.2z"/>
<path class="st0" d="M17.6,29.2h8.5c1.6,0,2.8-1.3,2.8-2.8v-9.8c0-1.6-1.3-2.8-2.8-2.8c-1.6,0-2.8,1.3-2.8,2.8v7h-5.7
	c-1.6,0-2.8,1.3-2.8,2.8C14.8,27.9,16,29.2,17.6,29.2z"/>
<path class="st0" d="M78,60.8c0-1.5-1.3-2.8-2.8-2.8H61.3c-1.6,0-2.8,1.3-2.8,2.8v16c0,1.6,1.3,2.8,2.8,2.8c1.6,0,2.8-1.3,2.8-2.8
	V63.6h11.1C76.7,63.6,78,62.3,78,60.8z"/>
<path class="st0" d="M79.8,67.8h-8.5c-1.6,0-2.8,1.3-2.8,2.8v9.8c0,1.6,1.3,2.8,2.8,2.8c1.6,0,2.8-1.3,2.8-2.8v-7h5.7
	c1.6,0,2.8-1.3,2.8-2.8S81.4,67.8,79.8,67.8z"/>
<path class="st0" d="M36.1,79.5c1.6,0,2.8-1.3,2.8-2.8v-16c0-1.5-1.3-2.8-2.8-2.8H22.2c-1.6,0-2.8,1.3-2.8,2.8
	c0,1.6,1.3,2.8,2.8,2.8h11.1v13.2C33.3,78.3,34.6,79.5,36.1,79.5z"/>
<path class="st0" d="M26.1,67.8h-8.5c-1.6,0-2.8,1.3-2.8,2.8s1.3,2.8,2.8,2.8h5.7v7c0,1.6,1.3,2.8,2.8,2.8c1.6,0,2.8-1.3,2.8-2.8
	v-9.8C28.9,69,27.6,67.8,26.1,67.8z"/>
</svg>
