<?xml version="1.0" encoding="utf-8"?>
<!-- Generator: Adobe Illustrator 21.0.0, SVG Export Plug-In . SVG Version: 6.00 Build 0)  -->
<svg version="1.1" id="Layer_1" xmlns="http://www.w3.org/2000/svg" xmlns:xlink="http://www.w3.org/1999/xlink" x="0px" y="0px"
	 viewBox="0 0 96.6 96.6" style="enable-background:new 0 0 96.6 96.6;" xml:space="preserve">
<style type="text/css">
	.st0{fill:#FFFFFF;}
</style>
<path class="st0" d="M85.5,48.3C85.5,48.3,85.5,48.3,85.5,48.3c0-0.1,0-0.1,0-0.1L96,37.7c0.8-0.8,0.8-2,0-2.7c-0.8-0.8-2-0.8-2.7,0
	L81.9,46.4h-3.3l8.6-8.6c0.8-0.8,0.8-2,0-2.7c-0.8-0.8-2-0.8-2.7,0L73.2,46.4H62c-0.3-2.4-1.2-4.6-2.6-6.5l7.8-7.8h16
	c1.1,0,1.9-0.9,1.9-1.9c0-1.1-0.9-1.9-1.9-1.9H71.1l2.3-2.3h16.1c1.1,0,1.9-0.9,1.9-1.9c0-1.1-0.9-1.9-1.9-1.9H74.6V7.1
	c0-1.1-0.9-1.9-1.9-1.9c-1.1,0-1.9,0.9-1.9,1.9v16l-2.3,2.3l0-12.2c0-1.1-0.9-1.9-1.9-1.9s-1.9,0.9-1.9,1.9l0,16l-7.8,7.8
	c-1.9-1.4-4.1-2.4-6.5-2.7v-11l11.3-11.3c0.8-0.8,0.8-2,0-2.7s-2-0.8-2.7,0L50.2,18v-3.3L61.6,3.3c0.8-0.8,0.8-2,0-2.7s-2-0.8-2.7,0
	L48.3,11c0,0,0,0-0.1,0c0,0,0,0-0.1,0L37.7,0.6c-0.8-0.8-2-0.8-2.7,0c-0.8,0.8-0.8,2,0,2.7l11.3,11.3V18l-8.6-8.6
	c-0.8-0.8-2-0.8-2.7,0c-0.8,0.8-0.8,2,0,2.7l11.3,11.3v11c-2.4,0.3-4.7,1.3-6.5,2.7l-7.8-7.8l0-16c0-1.1-0.9-1.9-1.9-1.9
	c-1.1,0-1.9,0.9-1.9,1.9l0,12.2l-2.3-2.3v-16c0-1.1-0.9-1.9-1.9-1.9C22.9,5.2,22,6,22,7.1V22H7.1c-1.1,0-1.9,0.9-1.9,1.9
	s0.9,1.9,1.9,1.9h16l2.3,2.3H13.3c-1.1,0-1.9,0.9-1.9,1.9c0,1.1,0.9,1.9,1.9,1.9l16,0l7.8,7.8c-1.4,1.9-2.3,4.1-2.6,6.5l-11.1,0
	L12.1,35c-0.8-0.8-2-0.8-2.7,0c-0.8,0.8-0.8,2,0,2.7l8.6,8.6h-3.3L3.3,35c-0.8-0.8-2-0.8-2.7,0c-0.8,0.8-0.8,2,0,2.7l10.5,10.5
	L0.6,58.8c-0.8,0.8-0.8,2,0,2.7c0.4,0.4,0.9,0.6,1.4,0.6c0.5,0,1-0.2,1.4-0.6l11.3-11.3H18l-8.6,8.6c-0.8,0.8-0.8,2,0,2.7
	c0.4,0.4,0.9,0.6,1.4,0.6c0.5,0,1-0.2,1.4-0.6l11.3-11.3h11.2c0.4,2.3,1.3,4.5,2.7,6.3l-8,8l-16,0c-1.1,0-1.9,0.9-1.9,1.9
	s0.9,1.9,1.9,1.9l12.2,0l-2.3,2.3h-16c-1.1,0-1.9,0.9-1.9,1.9c0,1.1,0.9,1.9,1.9,1.9h14.8c0,0,0,0,0,0.1c0,0,0,0,0.1,0v14.8
	c0,1.1,0.9,1.9,1.9,1.9c1.1,0,1.9-0.9,1.9-1.9v-16l2.3-2.3v12.2c0,1.1,0.9,1.9,1.9,1.9c1.1,0,1.9-0.9,1.9-1.9v-16l8-8
	c1.8,1.3,3.9,2.2,6.3,2.6v11.4L35,84.5c-0.8,0.8-0.8,2,0,2.7c0.4,0.4,0.9,0.6,1.4,0.6c0.5,0,1-0.2,1.4-0.6l8.6-8.6v3.3L35,93.3
	c-0.8,0.8-0.8,2,0,2.7c0.4,0.4,0.9,0.6,1.4,0.6c0.5,0,1-0.2,1.4-0.6l10.5-10.6L58.8,96c0.4,0.4,0.9,0.6,1.4,0.6c0.5,0,1-0.2,1.4-0.6
	c0.8-0.8,0.8-2,0-2.7L50.2,81.9v-3.3l8.6,8.6c0.4,0.4,0.9,0.6,1.4,0.6c0.5,0,1-0.2,1.4-0.6c0.8-0.8,0.8-2,0-2.7L50.2,73.2V61.8
	c2.3-0.3,4.5-1.2,6.3-2.6l8,8v16.1c0,1.1,0.9,1.9,1.9,1.9c1.1,0,1.9-0.9,1.9-1.9V71.1l2.3,2.3v16c0,1.1,0.9,1.9,1.9,1.9
	s1.9-0.9,1.9-1.9V74.7c0,0,0,0,0.1,0c0,0,0,0,0-0.1h14.8c1.1,0,1.9-0.9,1.9-1.9s-0.9-1.9-1.9-1.9h-16l-2.3-2.3h12.2
	c1.1,0,1.9-0.9,1.9-1.9c0-1.1-0.9-1.9-1.9-1.9h-16l-8-8c1.4-1.8,2.3-3.9,2.7-6.3h11.2l11.3,11.3c0.4,0.4,0.9,0.6,1.4,0.6
	c0.5,0,1-0.2,1.4-0.6c0.8-0.8,0.8-2,0-2.7l-8.6-8.6h3.3l11.3,11.3c0.4,0.4,0.9,0.6,1.4,0.6c0.5,0,1-0.2,1.4-0.6c0.8-0.8,0.8-2,0-2.7
	L85.5,48.3z M48.3,58c-5.5,0-10-4.5-10-10s4.5-10,10-10s10,4.5,10,10S53.8,58,48.3,58z"/>
</svg>
