<?xml version="1.0" encoding="utf-8"?>
<!-- Generator: Adobe Illustrator 21.0.0, SVG Export Plug-In . SVG Version: 6.00 Build 0)  -->
<svg version="1.1" id="Layer_1" xmlns="http://www.w3.org/2000/svg" xmlns:xlink="http://www.w3.org/1999/xlink" x="0px" y="0px"
	 viewBox="0 0 96.8 96.8" style="enable-background:new 0 0 96.8 96.8;" xml:space="preserve">
<style type="text/css">
	.st0{fill:#FFFFFF;}
</style>
<path class="st0" d="M96.8,48.4c0-1.5-1.2-2.8-2.8-2.8h-1.7L96,42c1.1-1.1,1.1-2.9,0-3.9c-1.1-1.1-2.9-1.1-3.9,0l-7.6,7.6H55.1
	l20.7-20.7h10.7c1.5,0,2.8-1.2,2.8-2.8s-1.2-2.8-2.8-2.8h-5.1l1.2-1.2c1.1-1.1,1.1-2.9,0-3.9c-1.1-1.1-2.9-1.1-3.9,0l-1.2,1.2v-5.1
	c0-1.5-1.2-2.8-2.8-2.8c-1.5,0-2.8,1.2-2.8,2.8v10.7L51.2,41.7V12.3l7.6-7.6c1.1-1.1,1.1-2.9,0-3.9c-1.1-1.1-2.9-1.1-3.9,0l-3.6,3.6
	V2.8c0-1.5-1.2-2.8-2.8-2.8s-2.8,1.2-2.8,2.8v1.7L42,0.8c-1.1-1.1-2.9-1.1-3.9,0c-1.1,1.1-1.1,2.9,0,3.9l7.6,7.6v29.3L24.9,20.9
	l0-10.7c0-1.5-1.2-2.8-2.8-2.8l0,0c-1.5,0-2.8,1.2-2.8,2.8v5.1l-1.2-1.2c-1.1-1.1-2.9-1.1-3.9,0c-1.1,1.1-1.1,2.9,0,3.9l1.2,1.2
	h-5.1c-1.5,0-2.8,1.2-2.8,2.8s1.2,2.8,2.8,2.8h10.7l20.7,20.7H12.3L4.8,38c-1.1-1.1-2.9-1.1-3.9,0s-1.1,2.9,0,3.9l3.6,3.6H2.8
	c-1.5,0-2.8,1.2-2.8,2.8s1.2,2.8,2.8,2.8h1.7l-3.6,3.6c-1.1,1.1-1.1,2.9,0,3.9c0.5,0.5,1.3,0.8,2,0.8c0.7,0,1.4-0.3,2-0.8l7.6-7.6
	h29.3L20.9,71.9l-10.7,0c-1.5,0-2.8,1.2-2.8,2.8c0,1.5,1.2,2.8,2.8,2.8h5.1l-1.2,1.2c-1.1,1.1-1.1,2.9,0,3.9c0.5,0.5,1.3,0.8,2,0.8
	c0.7,0,1.4-0.3,2-0.8l1.2-1.2v5.1c0,1.5,1.2,2.8,2.8,2.8c1.5,0,2.8-1.2,2.8-2.8V75.9l20.7-20.7v29.3L38,92c-1.1,1.1-1.1,2.9,0,3.9
	c0.5,0.5,1.3,0.8,2,0.8c0.7,0,1.4-0.3,2-0.8l3.6-3.6V94c0,1.5,1.2,2.8,2.8,2.8c1.5,0,2.8-1.2,2.8-2.8v-1.7l3.6,3.6
	c0.5,0.5,1.3,0.8,2,0.8c0.7,0,1.4-0.3,2-0.8c1.1-1.1,1.1-2.9,0-3.9l-7.6-7.6V55.1l20.7,20.7l0,10.7c0,1.5,1.2,2.8,2.8,2.8
	c1.5,0,2.8-1.2,2.8-2.8v-5.1l1.2,1.2c0.5,0.5,1.3,0.8,2,0.8c0.7,0,1.4-0.3,2-0.8c1.1-1.1,1.1-2.9,0-3.9l-1.2-1.2h5.1
	c1.5,0,2.8-1.2,2.8-2.8c0-1.5-1.2-2.8-2.8-2.8H75.9L55.1,51.2h29.3l7.6,7.6c0.5,0.5,1.3,0.8,2,0.8s1.4-0.3,2-0.8
	c1.1-1.1,1.1-2.9,0-3.9l-3.6-3.6H94C95.5,51.2,96.8,49.9,96.8,48.4z"/>
<circle class="st0" cx="60.4" cy="20.4" r="4.2"/>
<circle class="st0" cx="64.6" cy="7" r="2.1"/>
<circle class="st0" cx="72.7" cy="38.1" r="4.2"/>
<circle class="st0" cx="85.2" cy="31.7" r="2.1"/>
<circle class="st0" cx="76.4" cy="59.2" r="4.2"/>
<circle class="st0" cx="90.5" cy="65.5" r="2.1"/>
<circle class="st0" cx="60.4" cy="76.2" r="4.2"/>
<circle class="st0" cx="65.9" cy="87.4" r="2.1"/>
<circle class="st0" cx="36.4" cy="20.4" r="4.2"/>
<circle class="st0" cx="32.2" cy="7" r="2.1"/>
<circle class="st0" cx="24.1" cy="38.1" r="4.2"/>
<circle class="st0" cx="11.6" cy="31.7" r="2.1"/>
<circle class="st0" cx="20.4" cy="59.2" r="4.2"/>
<circle class="st0" cx="6.3" cy="65.5" r="2.1"/>
<circle class="st0" cx="36.4" cy="76.2" r="4.2"/>
<circle class="st0" cx="30.9" cy="87.4" r="2.1"/>
</svg>
