<?xml version="1.0" encoding="utf-8"?>
<!-- Generator: Adobe Illustrator 21.0.0, SVG Export Plug-In . SVG Version: 6.00 Build 0)  -->
<svg version="1.1" id="Layer_1" xmlns="http://www.w3.org/2000/svg" xmlns:xlink="http://www.w3.org/1999/xlink" x="0px" y="0px"
	 viewBox="0 0 95 95" style="enable-background:new 0 0 95 95;" xml:space="preserve">
<style type="text/css">
	.st0{fill:#FFFFFF;}
</style>
<path class="st0" d="M83.5,50.2h8.6c1.5,0,2.7-1.2,2.7-2.7c0-1.5-1.2-2.7-2.7-2.7h-8.2l10.3-10.3c1.1-1.1,1.1-2.8,0-3.9
	c-1.1-1.1-2.8-1.1-3.9,0L77.1,43.7L51.5,18.1L64.7,4.8c1.1-1.1,1.1-2.8,0-3.9c-1.1-1.1-2.8-1.1-3.9,0L50.2,11.7V2.7
	c0-1.5-1.2-2.7-2.7-2.7c-1.5,0-2.7,1.2-2.7,2.7v8.6L34.4,1c-1.1-1.1-2.8-1.1-3.9,0c-1.1,1.1-1.1,2.8,0,3.9l13.2,13.2L18.1,43.7
	L4.8,30.5c-1.1-1.1-2.8-1.1-3.9,0c-1.1,1.1-1.1,2.8,0,3.9l10.3,10.3H2.7c-1.5,0-2.7,1.2-2.7,2.7c0,1.5,1.2,2.7,2.7,2.7h8.9L1,60.8
	c-1.1,1.1-1.1,2.8,0,3.9c0.5,0.5,1.2,0.8,1.9,0.8s1.4-0.3,1.9-0.8l13.2-13.2l25.7,25.7L30.5,90.4c-1.1,1.1-1.1,2.8,0,3.9
	c0.5,0.5,1.2,0.8,1.9,0.8c0.7,0,1.4-0.3,1.9-0.8l10.3-10.3v8.2c0,1.5,1.2,2.7,2.7,2.7c1.5,0,2.7-1.2,2.7-2.7v-8.6l10.7,10.7
	c0.5,0.5,1.2,0.8,1.9,0.8s1.4-0.3,1.9-0.8c1.1-1.1,1.1-2.8,0-3.9L51.5,77.1l12.8-12.8c0,0,0,0,0,0c0,0,0,0,0,0l12.8-12.8l13.2,13.2
	c0.5,0.5,1.2,0.8,1.9,0.8c0.7,0,1.4-0.3,1.9-0.8c1.1-1.1,1.1-2.8,0-3.9L83.5,50.2z M62.4,58.5L54,50.2h16.7L62.4,58.5z M24.5,50.2
	h16.3l-8.2,8.2L24.5,50.2z M32.8,36.7l8,8h-16L32.8,36.7z M70.3,44.7H54l8.2-8.2L70.3,44.7z M50.2,40.8l0-16.3l8.2,8.2L50.2,40.8z
	 M44.7,40.8l-8-8l8-8L44.7,40.8z M44.7,54l0,16.3l-8.2-8.2L44.7,54z M50.2,54l8.3,8.3l-8.3,8.3L50.2,54z"/>
</svg>
