<?xml version="1.0" encoding="utf-8"?>
<!-- Generator: Adobe Illustrator 21.0.0, SVG Export Plug-In . SVG Version: 6.00 Build 0)  -->
<svg version="1.1" id="Layer_1" xmlns="http://www.w3.org/2000/svg" xmlns:xlink="http://www.w3.org/1999/xlink" x="0px" y="0px"
	 viewBox="0 0 97.8 91.8" style="enable-background:new 0 0 97.8 91.8;" xml:space="preserve">
<style type="text/css">
	.st0{fill:#FFFFFF;}
</style>
<path class="st0" d="M95.8,44.2h-7.5l7.1-9c0.7-0.8,0.5-2.1-0.3-2.7c-0.8-0.7-2.1-0.5-2.7,0.3l-9,11.4h-8.9l13-17.8
	c0.5-0.6,0.5-1.5,0.1-2.1c-0.4-0.7-1.1-1-1.9-1l-21.8,2.4l4.4-7.6l14.4-2c1.1-0.1,1.8-1.1,1.7-2.2c-0.1-1.1-1.1-1.8-2.2-1.7
	l-11.4,1.6l3.8-6.5c0.5-0.9,0.2-2.1-0.7-2.7c-0.9-0.5-2.1-0.2-2.7,0.7l-3.7,6.5L63.1,1.2c-0.4-1-1.5-1.5-2.5-1.1
	c-1,0.4-1.5,1.5-1.1,2.5l5.4,13.5l-4.4,7.7L51.5,3.6c-0.3-0.7-1-1.2-1.8-1.2c-0.8,0-1.5,0.5-1.8,1.2L39,23.9l-4.4-7.7l5.4-13.5
	c0.4-1-0.1-2.1-1.1-2.5c-1-0.4-2.1,0.1-2.5,1.1L32,11.9l-3.7-6.5c-0.5-0.9-1.7-1.3-2.7-0.7c-0.9,0.5-1.3,1.7-0.7,2.7l3.8,6.5
	l-11.4-1.6c-1.1-0.1-2.1,0.6-2.2,1.7c-0.1,1.1,0.6,2.1,1.7,2.2l14.4,2l4.4,7.6l-21.8-2.4c-0.8-0.1-1.5,0.3-1.9,1
	c-0.4,0.7-0.3,1.5,0.1,2.1l13,17.8H14.4L5.5,32.8c-0.7-0.9-1.9-1-2.7-0.3c-0.9,0.7-1,1.9-0.3,2.7l7,9.1H2c-1.1,0-2,0.9-2,2
	s0.9,2,2,2h7.5l-7.1,9c-0.7,0.9-0.5,2.1,0.3,2.7c0.4,0.3,0.8,0.4,1.2,0.4c0.6,0,1.2-0.3,1.5-0.7l9-11.4h10.5L11.9,66
	c-0.5,0.6-0.5,1.5-0.1,2.1c0.4,0.7,1.1,1.1,1.9,1l21.4-2.3l-4,6.9l-14.4,2c-1.1,0.1-1.8,1.1-1.7,2.2c0.1,1,1,1.7,1.9,1.7
	c0.1,0,0.2,0,0.3,0l11.4-1.6l-3.7,6.5c-0.5,0.9-0.2,2.1,0.7,2.7c0.3,0.2,0.6,0.3,1,0.3c0.7,0,1.3-0.4,1.7-1l3.7-6.5l4.3,10.6
	c0.3,0.8,1,1.2,1.8,1.2c0.2,0,0.5,0,0.7-0.1c1-0.4,1.5-1.5,1.1-2.5l-5.4-13.5l4.3-7.4l9.1,20.6c0.3,0.7,1,1.2,1.8,1.2
	c0.8,0,1.5-0.5,1.8-1.2l9.1-20.6l4.3,7.4l-5.4,13.5c-0.4,1,0.1,2.1,1.1,2.5c0.2,0.1,0.5,0.1,0.7,0.1c0.8,0,1.5-0.5,1.8-1.2l4.3-10.6
	l3.7,6.5c0.4,0.6,1,1,1.7,1c0.3,0,0.7-0.1,1-0.3c0.9-0.5,1.3-1.7,0.7-2.7l-3.7-6.5l11.4,1.6c0.1,0,0.2,0,0.3,0c1,0,1.8-0.7,1.9-1.7
	c0.1-1.1-0.6-2.1-1.7-2.2l-14.4-2l-4-6.9l21.4,2.3c0.8,0.1,1.5-0.3,1.9-1c0.4-0.7,0.3-1.5-0.1-2.1l-13-17.8h8.9l8.9,11.5
	c0.4,0.5,1,0.8,1.5,0.8c0.4,0,0.8-0.1,1.2-0.4c0.9-0.7,1-1.9,0.3-2.7l-7-9.1h7.5c1.1,0,2-0.9,2-2C97.8,45.1,96.9,44.2,95.8,44.2z
	 M60.3,62.4c-0.8-0.1-1.7,0.4-2,1.2l-8.7,19.6L41,63.5c-0.3-0.7-1-1.2-1.8-1.2c-0.1,0-0.1,0-0.2,0l-21.3,2.3l12.7-17.3
	c0.5-0.7,0.5-1.6,0-2.3L17.7,27.7L39,30.1c0.9,0.1,1.7-0.4,2-1.2l8.7-19.6l8.7,19.6c0.3,0.8,1.2,1.2,2,1.2l21.3-2.3L69,45.1
	c-0.5,0.7-0.5,1.6,0,2.3l12.7,17.3L60.3,62.4z"/>
</svg>
