<?xml version="1.0" encoding="utf-8"?>
<!-- Generator: Adobe Illustrator 21.0.0, SVG Export Plug-In . SVG Version: 6.00 Build 0)  -->
<svg version="1.1" id="Layer_1" xmlns="http://www.w3.org/2000/svg" xmlns:xlink="http://www.w3.org/1999/xlink" x="0px" y="0px"
	 viewBox="0 0 84.3 96.5" style="enable-background:new 0 0 84.3 96.5;" xml:space="preserve">
<style type="text/css">
	.st0{fill:#FFFFFF;}
</style>
<circle class="st0" cx="23.5" cy="16.9" r="4.7"/>
<circle class="st0" cx="29.6" cy="27.4" r="2.7"/>
<circle class="st0" cx="60.9" cy="16.9" r="4.7"/>
<circle class="st0" cx="54.8" cy="27.4" r="2.7"/>
<path class="st0" d="M62.2,76.7c-2-1.6-5-1.3-6.6,0.8c-1.6,2-1.3,5,0.8,6.6c2,1.6,5,1.3,6.6-0.8C64.6,81.3,64.3,78.3,62.2,76.7z"/>
<path class="st0" d="M55.4,71.6c0.9-1.1,0.7-2.8-0.4-3.7c-1.1-0.9-2.8-0.7-3.7,0.4c-0.9,1.1-0.7,2.8,0.4,3.7
	C52.8,72.9,54.5,72.7,55.4,71.6z"/>
<path class="st0" d="M75.9,43.9c-2.4,1-3.6,3.7-2.6,6.1c1,2.4,3.7,3.6,6.1,2.6c2.4-1,3.6-3.7,2.6-6.1C81,44.1,78.3,43,75.9,43.9z"/>
<circle class="st0" cx="65.5" cy="48.3" r="2.7"/>
<path class="st0" d="M8.1,53.7c2.4-1,3.6-3.7,2.6-6.1c-1-2.4-3.7-3.6-6.1-2.6C2.2,46,1,48.7,2,51.1C2.9,53.5,5.7,54.7,8.1,53.7z"/>
<circle class="st0" cx="18.4" cy="49.4" r="2.7"/>
<circle class="st0" cx="22" cy="80.4" r="4.7"/>
<circle class="st0" cx="28" cy="69.9" r="2.7"/>
<path class="st0" d="M83.8,69.7l-5.5-9.2c-0.6-0.9-1.7-1.4-2.7-1.1l-6.3,1.7L56,53.5l2.3-4c0.4-0.8,0.4-1.7,0-2.4l-2.3-4l13.3-7.7
	l6.3,1.7c0.2,0.1,0.4,0.1,0.6,0.1c0.8,0,1.6-0.4,2.1-1.2l5.7-9.4c0.5-0.8,0.5-1.7,0-2.5c-0.4-0.8-1.3-1.2-2.2-1.2l-11,0.2
	c-1.1,0-2,0.8-2.3,1.8l-1.7,6.3l-13.3,7.7l-2.3-4c-0.4-0.8-1.2-1.2-2.1-1.2h-4.6V18.4l4.6-4.6c0.8-0.8,0.9-1.9,0.4-2.9l-5.3-9.6
	C43.8,0.5,43,0,42.1,0S40.4,0.5,40,1.3l-5.3,9.6c-0.5,0.9-0.4,2.1,0.4,2.9l4.6,4.6v15.3h-4.6c-0.9,0-1.7,0.5-2.1,1.2l-2.3,4
	l-13.3-7.7l-1.7-6.3c-0.3-1-1.2-1.8-2.3-1.8l-11-0.2c-0.9,0-1.7,0.5-2.2,1.2c-0.4,0.8-0.4,1.7,0,2.5L6,36c0.4,0.7,1.2,1.2,2.1,1.2
	c0.2,0,0.4,0,0.6-0.1l6.3-1.7l13.3,7.7L26,47c-0.4,0.8-0.4,1.7,0,2.4l2.3,4L15,61.1l-6.3-1.7c-1-0.3-2.2,0.2-2.7,1.1l-5.7,9.4
	c-0.5,0.8-0.5,1.7,0,2.5c0.4,0.8,1.2,1.2,2.1,1.2c0,0,0,0,0,0l11-0.2c1.1,0,2-0.8,2.3-1.8l1.7-6.3l13.3-7.7l2.3,4
	c0.4,0.8,1.2,1.2,2.1,1.2h4.6v15.3l-4.6,4.6c-0.8,0.8-0.9,1.9-0.4,2.9l5.3,9.6c0.4,0.8,1.2,1.3,2.1,1.3c0.9,0,1.7-0.5,2.1-1.3
	l5.3-9.6c0.5-0.9,0.4-2.1-0.4-2.9l-4.6-4.6V62.9h4.6c0.9,0,1.7-0.5,2.1-1.2l2.3-4l13.3,7.7l1.7,6.3c0.3,1,1.2,1.8,2.3,1.8l11,0.2
	c0,0,0,0,0,0c0,0,0,0,0,0c1.3,0,2.4-1.1,2.4-2.4C84.3,70.6,84.1,70.1,83.8,69.7z M72.7,27.9l4.7-0.1L75,31.9l-3.1-0.8L72.7,27.9z
	 M42.1,7.5l2.3,4.2l-2.3,2.3l-2.3-2.3L42.1,7.5z M9.2,31.9l-2.4-4.1l4.7,0.1l0.8,3.1L9.2,31.9z M11.5,68.6l-4.7,0.1l2.4-4.1l3.1,0.8
	L11.5,68.6z M42.1,89.1l-2.3-4.2l2.3-2.3l2.3,2.3L42.1,89.1z M47.7,58H36.5l-5.6-9.7l2.8-4.8c0,0,0,0,0-0.1c0,0,0,0,0,0l2.8-4.8
	h11.2l2.8,4.9c0,0,0,0,0,0c0,0,0,0,0,0l2.8,4.9L47.7,58z M72.7,68.6l-0.8-3.1l3.1-0.8l2.4,4.1L72.7,68.6z"/>
</svg>
