<?xml version="1.0" encoding="utf-8"?>
<!-- Generator: Adobe Illustrator 21.0.0, SVG Export Plug-In . SVG Version: 6.00 Build 0)  -->
<svg version="1.1" id="Layer_1" xmlns="http://www.w3.org/2000/svg" xmlns:xlink="http://www.w3.org/1999/xlink" x="0px" y="0px"
	 viewBox="0 0 82.5 82.5" style="enable-background:new 0 0 82.5 82.5;" xml:space="preserve">
<style type="text/css">
	.st0{fill:#FFFFFF;}
</style>
<g>
	<path class="st0" d="M82.5,41.2c0-3.9-1.9-7.5-5-9.7C79.1,28,79,23.9,77,20.6c-1.9-3.3-5.4-5.5-9.2-5.9c-0.3-3.8-2.5-7.3-5.9-9.2
		c-1.8-1-3.8-1.6-5.9-1.6c-1.7,0-3.4,0.4-5,1.1c-2.2-3.1-5.8-5-9.7-5s-7.5,1.9-9.7,5c-1.6-0.7-3.3-1.1-5-1.1c-2.1,0-4.1,0.6-5.9,1.6
		c-3.4,1.9-5.5,5.4-5.9,9.2C11,15,7.5,17.2,5.6,20.6C3.6,24,3.4,28.1,5,31.5c-3.1,2.2-5,5.8-5,9.7s1.9,7.5,5,9.7
		c-1.6,3.5-1.5,7.6,0.5,10.9c1.9,3.3,5.4,5.5,9.2,5.9c0.3,3.8,2.5,7.3,5.9,9.2c1.8,1,3.8,1.6,5.9,1.6c1.7,0,3.4-0.4,5-1.1
		c2.2,3.1,5.8,5,9.7,5s7.5-1.9,9.7-5c1.6,0.7,3.3,1.1,5,1.1c2.1,0,4.1-0.6,5.9-1.6c3.4-1.9,5.5-5.4,5.9-9.2c3.8-0.3,7.3-2.5,9.2-5.9
		c1.9-3.4,2.1-7.5,0.5-10.9C80.5,48.7,82.5,45.1,82.5,41.2z M73.9,48.4c-0.5,0.2-0.9,0.7-1.1,1.3s0,1.2,0.3,1.7
		c1.8,2.5,1.9,5.9,0.4,8.5c-1.4,2.4-4,4-6.9,4c-0.2,0-0.5,0-0.7,0c-0.6-0.1-1.2,0.2-1.6,0.6s-0.6,1-0.6,1.6c0.3,3.1-1.3,6-3.9,7.6
		c-1.2,0.7-2.6,1.1-3.9,1.1c-0.5,0-0.9,0-1.4-0.1c-1.1-0.2-2.2-0.7-3.2-1.3c-0.5-0.3-1.1-0.4-1.7-0.3c-0.3,0.1-0.6,0.3-0.8,0.5
		s-0.3,0.4-0.4,0.6c-1.3,2.8-4.1,4.6-7.2,4.6c-0.5,0-0.9,0-1.4-0.1c-2.5-0.4-4.7-2.1-5.8-4.5c-0.2-0.5-0.7-0.9-1.3-1.1
		c-0.2,0-0.3-0.1-0.5-0.1c-0.4,0-0.8,0.1-1.1,0.4c-0.1,0.1-0.2,0.1-0.3,0.2c-1.3,0.8-2.8,1.3-4.3,1.3c-0.5,0-0.9,0-1.4-0.1
		c-0.9-0.2-1.8-0.5-2.6-0.9c-2.7-1.5-4.2-4.5-3.9-7.6c0.1-0.6-0.2-1.2-0.6-1.6s-1-0.6-1.6-0.6c-0.2,0-0.5,0-0.7,0
		c-2.8,0-5.5-1.5-6.9-4c-1.5-2.7-1.4-6,0.4-8.5c0.3-0.5,0.4-1.1,0.3-1.7c-0.2-0.6-0.5-1-1.1-1.3C5.8,47.1,4,44.3,4,41.2
		s1.8-5.9,4.6-7.2c0.5-0.2,0.9-0.7,1.1-1.3c0.2-0.6,0-1.2-0.3-1.7c-1.8-2.5-1.9-5.9-0.4-8.5c1.4-2.4,4-4,6.9-4c0.2,0,0.5,0,0.7,0
		c0.6,0.1,1.2-0.2,1.6-0.6s0.6-1,0.6-1.6c-0.3-3.1,1.3-6,3.9-7.6c0.8-0.5,1.7-0.8,2.6-0.9c0.5-0.1,0.9-0.1,1.4-0.1
		c1.5,0,3,0.4,4.3,1.3c0.1,0.1,0.2,0.1,0.3,0.2c0.5,0.3,1.1,0.4,1.7,0.3c0.6-0.2,1-0.5,1.3-1.1c1.1-2.4,3.3-4,5.8-4.5
		C40.3,4,40.8,4,41.2,4c3.1,0,5.9,1.8,7.2,4.6c0.1,0.2,0.3,0.4,0.4,0.6c0.2,0.2,0.5,0.4,0.8,0.5c0.6,0.2,1.2,0,1.7-0.3
		c0.9-0.7,2-1.1,3.2-1.3C55,8,55.4,8,55.9,8c1.4,0,2.7,0.4,3.9,1.1c2.7,1.5,4.2,4.5,3.9,7.6c-0.1,0.6,0.2,1.2,0.6,1.6s1,0.6,1.6,0.6
		c0.2,0,0.5,0,0.7,0c2.8,0,5.5,1.5,6.9,4c1.5,2.7,1.4,6-0.4,8.5c-0.3,0.5-0.4,1.1-0.3,1.7s0.5,1,1.1,1.3c2.8,1.3,4.6,4.1,4.6,7.2
		C78.5,44.3,76.7,47.1,73.9,48.4z"/>
	<path class="st0" d="M41.3,23.6c9.7,0,17.6,7.9,17.6,17.6S51,58.8,41.3,58.8s-17.6-7.9-17.6-17.6C23.6,31.5,31.5,23.6,41.3,23.6
		 M41.3,20.6c-11.4,0-20.6,9.2-20.6,20.6s9.2,20.6,20.6,20.6s20.6-9.2,20.6-20.6C61.9,29.9,52.6,20.6,41.3,20.6L41.3,20.6z"/>
	<path class="st0" d="M41.3,24.8c-9.1,0-16.5,7.4-16.5,16.5s7.4,16.5,16.5,16.5s16.5-7.4,16.5-16.5C57.7,32.1,50.3,24.8,41.3,24.8z
		 M41.2,45.3c-0.7,0-1.4-0.5-1.5-1.3s0.5-1.6,1.3-1.7c0.2,0,0.5-0.1,0.7-0.4c0.2-0.2,0.4-0.6,0.4-0.9c0-0.3-0.1-0.6-0.4-0.9
		c-0.5-0.5-1.3-0.5-1.8,0c-0.6,0.6-1.5,0.6-2.1,0s-0.6-1.5,0-2.1c1.7-1.7,4.4-1.7,6,0c0.8,0.8,1.2,1.9,1.2,3s-0.4,2.2-1.2,3
		c-0.7,0.7-1.5,1.1-2.4,1.2C41.4,45.3,41.3,45.3,41.2,45.3z"/>
</g>
</svg>
