<?xml version="1.0" encoding="utf-8"?>
<!-- Generator: Adobe Illustrator 21.0.0, SVG Export Plug-In . SVG Version: 6.00 Build 0)  -->
<svg version="1.1" id="Layer_1" xmlns="http://www.w3.org/2000/svg" xmlns:xlink="http://www.w3.org/1999/xlink" x="0px" y="0px"
	 viewBox="0 0 88.8 88.8" style="enable-background:new 0 0 88.8 88.8;" xml:space="preserve">
<style type="text/css">
	.st0{fill:#FFFFFF;}
</style>
<g>
	<path class="st0" d="M44.6,88.3c-14.7,0-29.2-7.4-37.4-20.9l3.5-2.1c7.5,12.2,20.6,18.9,33.9,18.9c7.1,0,14.2-1.9,20.7-5.8
		c9-5.5,15.4-14.3,17.8-24.6c2.5-10.3,0.8-21-4.7-30l3.5-2.1c6.1,10,8,21.7,5.2,33.1c-2.7,11.4-9.7,21-19.7,27.1
		C60.3,86.3,52.4,88.3,44.6,88.3z"/>
	<g>
		<path class="st0" d="M52.3,39.8l21.6-13.3c2.3,3.7,1.1,8.6-2.6,10.9C67.5,39.8,52.3,39.8,52.3,39.8z"/>
		<path class="st0" d="M15.2,62.5l21.6-13.3c0,0-7,13.6-10.7,15.9C22.4,67.5,17.5,66.3,15.2,62.5z"/>
	</g>
	<g>
		<path class="st0" d="M49.3,52.3c0,0,13.6,7,15.9,10.7c2.3,3.7,1.1,8.6-2.6,10.9c-3.7,2.3-8.6,1.1-10.9-2.6S49.3,52.3,49.3,52.3z"
			/>
	</g>
	<g>
		<path class="st0" d="M52.3,39.8l21.6-13.3c2.3,3.7,1.1,8.6-2.6,10.9C67.5,39.8,52.3,39.8,52.3,39.8z"/>
		<path class="st0" d="M15.2,62.5l21.6-13.3c0,0-7,13.6-10.7,15.9C22.4,67.5,17.5,66.3,15.2,62.5z"/>
	</g>
	<g>
		<path class="st0" d="M42.4,53.4c0,0-10.8,10.8-11.8,15.1c-1,4.3,1.6,8.5,5.9,9.6s8.5-1.6,9.6-5.9C47.1,67.9,42.4,53.4,42.4,53.4z"
			/>
	</g>
	<g>
		<path class="st0" d="M53.3,46.7c0,0,14.5-4.7,18.8-3.7c4.3,1,6.9,5.3,5.9,9.6s-5.3,6.9-9.6,5.9C64.2,57.4,53.3,46.7,53.3,46.7z"/>
	</g>
	<g>
		<path class="st0" d="M42.4,53.4c0,0-10.8,10.8-11.8,15.1c-1,4.3,1.6,8.5,5.9,9.6s8.5-1.6,9.6-5.9C47.1,67.9,42.4,53.4,42.4,53.4z"
			/>
	</g>
</g>
<path class="st0" d="M71.1,19.2c6,6.5,9.7,15.2,9.7,24.8c0,20.1-16.3,36.4-36.4,36.4c-16.2,0-29.5-9.1-34.2-23.7 M3.4,60.2
	c6.3,16.8,22,28.1,41,28.1c24.5,0,44.4-19.9,44.4-44.4c0-11-4-21-10.6-28.8"/>
<g>
	<rect x="-1.5" y="37.6" transform="matrix(0.855 -0.5186 0.5186 0.855 -14.5077 27.2677)" class="st0" width="86" height="4"/>
</g>
</svg>
