<?xml version="1.0" encoding="utf-8"?>
<!-- Generator: Adobe Illustrator 21.0.0, SVG Export Plug-In . SVG Version: 6.00 Build 0)  -->
<svg version="1.1" id="Layer_1" xmlns="http://www.w3.org/2000/svg" xmlns:xlink="http://www.w3.org/1999/xlink" x="0px" y="0px"
	 viewBox="0 0 87.5 84.4" style="enable-background:new 0 0 87.5 84.4;" xml:space="preserve">
<style type="text/css">
	.st0{fill:#FFFFFF;}
</style>
<path class="st0" d="M38.7,63.8c-1.6,0-3,1.3-3,3v0.3c0,1.6,1.3,3,3,3l10.1,0.1c1.6,0,3-1.3,3-3v-0.3c0-1.6-1.3-3-3-3L38.7,63.8z"/>
<path class="st0" d="M43.7,6c20.8,0,37.7,16.2,37.7,36.2S64.5,78.4,43.7,78.4S6,62.2,6,42.2S22.9,6,43.7,6 M43.7,0
	C19.6,0,0,18.9,0,42.2s19.6,42.2,43.7,42.2s43.7-18.9,43.7-42.2S67.9,0,43.7,0L43.7,0z"/>
<path class="st0" d="M43.7,11.4c17.6,0,32,13.8,32,30.8S61.4,73,43.7,73s-32-13.8-32-30.8S26.1,11.4,43.7,11.4 M43.7,8.4
	c-19.3,0-35,15.1-35,33.8c0,18.6,15.7,33.8,35,33.8s35-15.1,35-33.8C78.7,23.6,63.1,8.4,43.7,8.4L43.7,8.4z"/>
<g>
	<path class="st0" d="M61.3,61.6H26c-0.4,0-0.7-0.1-1-0.4c-5.4-5-8.4-11.8-8.4-19c0-14.5,12.2-26.3,27.2-26.3S71,27.7,71,42.2
		c0,7.1-3.2,14.2-8.6,19C62.1,61.5,61.7,61.6,61.3,61.6z M26.6,58.6h34.2c4.5-4.3,7.2-10.4,7.2-16.4c0-12.9-10.9-23.3-24.2-23.3
		S19.5,29.3,19.5,42.2C19.5,48.4,22,54.2,26.6,58.6z"/>
</g>
</svg>
