<?xml version="1.0" encoding="utf-8"?>
<!-- Generator: Adobe Illustrator 21.0.0, SVG Export Plug-In . SVG Version: 6.00 Build 0)  -->
<svg version="1.1" id="Layer_1" xmlns="http://www.w3.org/2000/svg" xmlns:xlink="http://www.w3.org/1999/xlink" x="0px" y="0px"
	 viewBox="0 0 60.3 77.2" style="enable-background:new 0 0 60.3 77.2;" xml:space="preserve">
<style type="text/css">
	.st0{fill:#FFFFFF;stroke:#FFFFFF;stroke-width:2;stroke-miterlimit:10;}
	.st1{fill:#FFFFFF;}
</style>
<g>
	<path class="st0" d="M59.3,36.7c0-6.3-5.1-11.4-11.4-11.4h-5.3c1.9-2.6,2.9-5.7,2.9-8.9C45.5,7.9,38.6,1,30.2,1
		c-8.5,0-15.3,6.9-15.3,15.3c0,3.2,1,6.3,2.9,8.9h-5.3C6.1,25.3,1,30.4,1,36.7C1,42.8,5.9,47.9,12.1,48L6.3,59.9
		c-1.3,2.7-1.5,5.8-0.5,8.7c1,2.9,3.1,5.2,5.8,6.5c1.6,0.8,3.2,1.1,4.9,1.1c4.3,0,8.4-2.5,10.3-6.4l3.1-6.5l3.1,6.5
		c1.9,3.9,5.9,6.4,10.3,6.4c1.7,0,3.4-0.4,4.9-1.1c2.7-1.3,4.8-3.6,5.8-6.5s0.8-6-0.5-8.7L47.9,48H48C54.2,48,59.3,42.9,59.3,36.7z
		 M44.1,47.2l6.8,14c1,2,1.1,4.3,0.4,6.4c-0.7,2.1-2.3,3.8-4.3,4.8c-1.1,0.6-2.4,0.8-3.6,0.8c-3.2,0-6.2-1.9-7.6-4.7l-4.5-9.3
		c-0.2-0.5-0.8-0.8-1.4-0.8s-1.1,0.3-1.4,0.8L24,68.5c-1.4,2.9-4.4,4.7-7.6,4.7c-1.3,0-2.5-0.3-3.6-0.8c-2-1-3.5-2.7-4.3-4.8
		c-0.7-2.1-0.6-4.4,0.4-6.4l6.8-14c0.2-0.5,0.2-1-0.1-1.4S15,45,14.4,45h-2.1C7.8,45,4,41.3,4,36.7s3.8-8.4,8.4-8.4h8.7
		c0.6,0,1.2-0.4,1.4-1c0.2-0.6,0.1-1.2-0.4-1.7c-2.7-2.4-4.2-5.7-4.2-9.3C17.8,9.5,23.4,4,30.2,4s12.3,5.5,12.3,12.3
		c0,3.6-1.5,6.9-4.2,9.3c-0.5,0.4-0.6,1.1-0.4,1.7c0.2,0.6,0.8,1,1.4,1H48c4.6,0,8.4,3.8,8.4,8.4s-3.8,8.4-8.4,8.4h-2.5
		c-0.5,0-1,0.3-1.3,0.7S43.9,46.7,44.1,47.2z"/>
	<path class="st1" d="M25.6,15.5c0.1,0,0.2,0,0.3,0c0.1,0,0.2,0,0.3-0.1s0.2-0.1,0.3-0.1c0.1,0,0.2-0.1,0.2-0.2
		c0.3-0.3,0.4-0.7,0.4-1.1c0-0.4-0.2-0.8-0.4-1.1c-0.1-0.1-0.2-0.1-0.2-0.2c-0.1-0.1-0.2-0.1-0.3-0.1s-0.2-0.1-0.3-0.1
		c-0.2,0-0.4,0-0.6,0c-0.1,0-0.2,0.1-0.3,0.1s-0.2,0.1-0.2,0.1c-0.1,0.1-0.2,0.1-0.2,0.2c-0.3,0.3-0.4,0.7-0.4,1.1
		c0,0.4,0.2,0.8,0.4,1.1c0.1,0.1,0.1,0.1,0.2,0.2c0.1,0.1,0.2,0.1,0.2,0.1s0.2,0.1,0.3,0.1C25.4,15.5,25.5,15.5,25.6,15.5z"/>
	<path class="st1" d="M34.5,12.5c-0.1,0-0.2,0.1-0.3,0.1s-0.2,0.1-0.3,0.1c-0.1,0.1-0.2,0.1-0.2,0.2c-0.3,0.3-0.4,0.7-0.4,1.1
		c0,0.1,0,0.2,0,0.3s0,0.2,0.1,0.3c0,0.1,0.1,0.2,0.1,0.3c0.1,0.1,0.1,0.2,0.2,0.2c0.1,0.1,0.2,0.1,0.2,0.2c0.1,0.1,0.2,0.1,0.3,0.1
		s0.2,0.1,0.3,0.1s0.2,0,0.3,0c0.4,0,0.8-0.2,1.1-0.4C36,15,36,15,36.1,14.9c0.1-0.1,0.1-0.2,0.1-0.3s0.1-0.2,0.1-0.3s0-0.2,0-0.3
		c0-0.4-0.2-0.8-0.4-1.1C35.5,12.6,35,12.4,34.5,12.5z"/>
	<path class="st1" d="M32.6,19.5c-2.5,2.3-4.4,0.5-4.7,0.1c-0.6-0.6-1.5-0.7-2.1-0.1s-0.7,1.5-0.1,2.1c0.2,0.2,1.8,1.9,4.2,2
		c0.1,0,0.2,0,0.3,0c1.6,0,3.1-0.6,4.5-1.9c0.6-0.6,0.7-1.5,0.1-2.1C34.1,18.9,33.2,18.9,32.6,19.5z"/>
	<path class="st1" d="M30.2,30.3c-2.7,0-4.9,2.2-4.9,4.9s2.2,4.9,4.9,4.9s4.9-2.2,4.9-4.9S32.8,30.3,30.2,30.3z M30.2,37
		c-1,0-1.9-0.8-1.9-1.9s0.8-1.9,1.9-1.9s1.9,0.8,1.9,1.9S31.2,37,30.2,37z"/>
	<path class="st1" d="M30.2,43.5c-2.7,0-4.9,2.2-4.9,4.9s2.2,4.9,4.9,4.9s4.9-2.2,4.9-4.9S32.8,43.5,30.2,43.5z M30.2,50.2
		c-1,0-1.9-0.8-1.9-1.9s0.8-1.9,1.9-1.9s1.9,0.8,1.9,1.9S31.2,50.2,30.2,50.2z"/>
</g>
</svg>
