<?xml version="1.0" encoding="utf-8"?>
<!-- Generator: Adobe Illustrator 21.0.0, SVG Export Plug-In . SVG Version: 6.00 Build 0)  -->
<svg version="1.1" id="Layer_1" xmlns="http://www.w3.org/2000/svg" xmlns:xlink="http://www.w3.org/1999/xlink" x="0px" y="0px"
	 viewBox="0 0 87.5 84.4" style="enable-background:new 0 0 87.5 84.4;" xml:space="preserve">
<style type="text/css">
	.st0{fill:#FFFFFF;stroke:#FFFFFF;stroke-width:2;stroke-miterlimit:10;}
	.st1{fill:#FFFFFF;}
</style>
<g>
	<path class="st0" d="M82.7,34.7c-1.3-1.1-2.4-2.1-3.1-4.1c-0.7-2.1-0.3-3.5,0.1-5.2c0.5-2.2,1.2-4.9-1.3-8.3s-5.3-3.6-7.5-3.8
		c-1.7-0.1-3.2-0.3-4.9-1.5c-1.8-1.3-2.3-2.6-3-4.2c-0.9-2.1-1.9-4.6-6-5.9c-4-1.3-6.4,0.1-8.3,1.3c-1.5,0.9-2.7,1.7-4.9,1.7
		S40.4,3.9,38.9,3c-1.9-1.2-4.3-2.6-8.3-1.3s-5.1,3.9-6,5.9c-0.7,1.6-1.2,2.9-3,4.2s-3.2,1.4-4.9,1.5c-2.2,0.2-5,0.4-7.5,3.8
		s-1.8,6.1-1.3,8.3c0.4,1.7,0.7,3.1,0.1,5.2c-0.7,2.1-1.8,3-3.1,4.1C3.1,36.1,1,37.9,1,42.2s2.1,6,3.8,7.5c1.3,1.1,2.4,2.1,3.1,4.1
		s0.3,3.5-0.1,5.2c-0.5,2.2-1.2,4.9,1.3,8.3s5.3,3.6,7.5,3.8c1.7,0.1,3.2,0.3,4.9,1.5c1.8,1.3,2.3,2.6,3,4.2c0.9,2.1,1.9,4.6,6,5.9
		c1.3,0.4,2.5,0.6,3.4,0.6c2.1,0,3.6-0.8,5-1.6c1.3-0.7,2.6-1.5,4.9-1.9c2.1-0.4,3.3,0.4,4.9,1.4c1.9,1.2,4.4,2.8,8.2,1.5
		c4-1.3,5.1-3.9,6-5.9c0.7-1.6,1.2-2.9,3-4.2c1.8-1.3,3.2-1.4,4.9-1.5c2.2-0.2,5-0.4,7.5-3.8s1.8-6.1,1.3-8.3
		c-0.4-1.7-0.7-3.1-0.1-5.2c0.7-2.1,1.8-3,3.1-4.1c1.7-1.5,3.8-3.3,3.8-7.5C86.5,37.9,84.4,36.1,82.7,34.7z M80,46.6
		c-1.5,1.2-3.3,2.8-4.3,5.9s-0.5,5.5,0,7.3c0.5,2,0.7,3.1-0.7,5c-1.4,1.9-2.5,2-4.6,2.2c-1.9,0.2-4.3,0.3-7,2.3
		c-2.7,1.9-3.6,4.1-4.3,5.9c-0.8,1.9-1.2,2.9-3.5,3.7c-2.1,0.7-3.1,0-4.8-1.1c-1.8-1.2-4.1-2.6-7.8-2c-3,0.5-4.8,1.6-6.2,2.4
		c-1.8,1-2.6,1.5-5.1,0.7c-2.3-0.7-2.7-1.8-3.5-3.7c-0.7-1.8-1.7-4-4.3-5.9c-2.7-1.9-5-2.1-7-2.3c-2-0.2-3.2-0.3-4.6-2.2
		c-1.4-1.9-1.1-3-0.7-5c0.4-1.9,1-4.2,0-7.3s-2.8-4.7-4.3-5.9C5.9,45.3,5,44.5,5,42.2s0.9-3.1,2.4-4.5c1.5-1.2,3.3-2.8,4.3-5.9
		s0.5-5.5,0-7.3c-0.5-2-0.7-3.1,0.7-5s2.5-2,4.6-2.2c1.9-0.2,4.3-0.3,7-2.3s3.6-4.1,4.3-5.9c0.8-1.9,1.2-2.9,3.5-3.7
		C32.5,5.1,33,5,33.6,5c1.2,0,2,0.5,3.2,1.2c1.6,1,3.7,2.2,7,2.2s5.3-1.2,7-2.2c1.8-1.1,2.7-1.7,5-0.9C58,6.1,58.4,7.1,59.2,9
		c0.7,1.8,1.7,4,4.3,5.9c2.7,1.9,5,2.1,7,2.3c2,0.2,3.2,0.3,4.6,2.2c1.4,1.9,1.1,3,0.7,5c-0.4,1.9-1,4.2,0,7.3
		c1,3.1,2.8,4.7,4.3,5.9c1.6,1.3,2.4,2.1,2.4,4.5S81.6,45.3,80,46.6z"/>
	<path class="st1" d="M42.5,26.3c0.8,1,2.3,1.2,3.3,0.4l0.2-0.2c1-0.8,1.2-2.3,0.4-3.3l-5-6.2c-0.8-1-2.3-1.2-3.3-0.4L38,16.8
		c-1,0.8-1.2,2.3-0.4,3.3L42.5,26.3z"/>
	<path class="st1" d="M20.9,34.6l3.2-7.3c0.5-1.2,0-2.6-1.2-3.1l-0.2-0.1c-1.2-0.5-2.6,0-3.1,1.2l-3.2,7.3c-0.5,1.2,0,2.6,1.2,3.1
		l0.2,0.1C19,36.3,20.3,35.7,20.9,34.6z"/>
	<path class="st1" d="M69.5,45.3c-1.1-0.7-2.5-0.3-3.2,0.8l-4.1,6.8c-0.7,1.1-0.3,2.5,0.8,3.2l0.2,0.1c1.1,0.7,2.5,0.3,3.2-0.8
		l4.1-6.8c0.7-1.1,0.3-2.5-0.8-3.2L69.5,45.3z"/>
	<path class="st1" d="M53.7,63.2c-0.5-1.2-1.9-1.7-3.1-1.2l-7.3,3.3c-1.2,0.5-1.7,1.9-1.2,3.1l0.1,0.2c0.5,1.2,1.9,1.7,3.1,1.2
		l7.3-3.3c1.2-0.5,1.7-1.9,1.2-3.1L53.7,63.2z"/>
	<path class="st1" d="M28.7,56.6L21,54.8c-1.2-0.3-2.5,0.5-2.8,1.7l-0.1,0.2c-0.3,1.2,0.5,2.5,1.7,2.8l7.7,1.8
		c1.2,0.3,2.5-0.5,2.8-1.7l0.1-0.2C30.8,58.2,30,56.9,28.7,56.6z"/>
</g>
<path class="st1" d="M28.4,41.9c-1.1,0.6-1.5,2-0.9,3.2l0.1,0.2c0.6,1.1,2,1.5,3.2,0.9l7-3.8c1.1-0.6,1.5-2,0.9-3.2L38.6,39
	c-0.6-1.1-2-1.5-3.2-0.9L28.4,41.9z"/>
<path class="st1" d="M48,47.6c0,1.3,1,2.3,2.3,2.3h0.2c1.3,0,2.3-1,2.3-2.3v-8c0-1.3-1-2.3-2.3-2.3h-0.2c-1.3,0-2.3,1-2.3,2.3V47.6z
	"/>
<path class="st1" d="M64.6,25.7l-7.7-1.8c-1.2-0.3-2.5,0.5-2.8,1.7L54,25.8c-0.3,1.2,0.5,2.5,1.7,2.8l7.7,1.8
	c1.2,0.3,2.5-0.5,2.8-1.7l0.1-0.2C66.7,27.2,65.9,26,64.6,25.7z"/>
</svg>
