<?xml version="1.0" encoding="utf-8"?>
<!-- Generator: Adobe Illustrator 21.0.0, SVG Export Plug-In . SVG Version: 6.00 Build 0)  -->
<svg version="1.1" id="Layer_1" xmlns="http://www.w3.org/2000/svg" xmlns:xlink="http://www.w3.org/1999/xlink" x="0px" y="0px"
	 viewBox="0 0 78.5 79" style="enable-background:new 0 0 78.5 79;" xml:space="preserve">
<style type="text/css">
	.st0{fill:#FFFFFF;stroke:#FFFFFF;stroke-width:2;stroke-miterlimit:10;}
	.st1{fill:#FFFFFF;}
</style>
<g>
	<g>
		<path class="st0" d="M77.5,24.8c0-2.9-1.3-5.5-3.4-7.2c2.1-1.7,3.4-4.3,3.4-7.2c0-5.1-4.2-9.3-9.3-9.3c-2.9,0-5.6,1.4-7.3,3.5
			c-1.7-2.1-4.3-3.3-7.2-3.3s-5.5,1.3-7.2,3.4c-1.7-2.1-4.3-3.4-7.2-3.4s-5.5,1.3-7.2,3.4c-1.7-2.1-4.3-3.4-7.2-3.4
			s-5.6,1.4-7.3,3.5c-1.7-2.1-4.3-3.3-7.2-3.3C5.2,1.4,1,5.6,1,10.7c0,2.9,1.3,5.5,3.4,7.2C2.3,19.7,1,22.3,1,25.2s1.3,5.5,3.4,7.2
			C2.3,34.1,1,36.8,1,39.6s1.3,5.5,3.4,7.2C2.3,48.6,1,51.2,1,54.1c0,2.9,1.3,5.5,3.4,7.2C2.3,63,1,65.7,1,68.6
			c0,5.1,4.2,9.3,9.3,9.3c2.9,0,5.5-1.3,7.2-3.4c1.7,2.1,4.4,3.5,7.3,3.5s5.5-1.3,7.2-3.4c1.7,2.1,4.3,3.4,7.2,3.4s5.5-1.3,7.2-3.4
			c1.7,2.1,4.3,3.4,7.2,3.4c3,0,5.7-1.4,7.4-3.7c1.7,2,4.3,3.2,7,3.2c5.1,0,9.3-4.2,9.3-9.3c0-2.9-1.3-5.5-3.4-7.2
			c2.1-1.7,3.4-4.3,3.4-7.2s-1.3-5.5-3.4-7.2c2.1-1.7,3.4-4.3,3.4-7.2s-1.3-5.5-3.4-7.2C76.2,30.3,77.5,27.7,77.5,24.8z M69.4,19.4
			c2.5,0.6,4.3,2.8,4.3,5.4s-1.8,4.8-4.3,5.4c-0.9,0.2-1.5,1-1.5,1.9c0,0.9,0.6,1.7,1.5,1.9c2.5,0.6,4.3,2.8,4.3,5.4
			c0,2.6-1.8,4.8-4.3,5.4c-0.9,0.2-1.5,1-1.5,1.9s0.6,1.7,1.5,1.9c2.5,0.6,4.3,2.8,4.3,5.4c0,2.6-1.8,4.8-4.3,5.4
			c-0.9,0.2-1.5,1-1.5,1.9s0.6,1.7,1.5,1.9c2.5,0.6,4.3,2.8,4.3,5.4c0,3-2.5,5.5-5.5,5.5c-2.5,0-4.7-1.7-5.3-4.1
			c-0.2-0.9-1-1.5-1.9-1.4c-0.9,0-1.6,0.7-1.8,1.5c-0.5,2.6-2.8,4.5-5.4,4.5c-2.6,0-4.8-1.8-5.4-4.3c-0.2-0.9-1-1.5-1.9-1.5
			s-1.7,0.6-1.9,1.5c-0.6,2.5-2.8,4.3-5.4,4.3c-2.6,0-4.8-1.8-5.4-4.3c-0.2-0.9-1-1.5-1.9-1.5s-1.7,0.6-1.9,1.5
			c-0.6,2.5-2.8,4.3-5.4,4.3s-4.8-1.8-5.4-4.3c-0.2-0.9-1-1.5-1.8-1.5c-0.9,0-1.7,0.6-1.9,1.5c-0.6,2.5-2.8,4.2-5.4,4.2
			c-3,0-5.5-2.5-5.5-5.5c0-2.6,1.8-4.8,4.3-5.4c0.9-0.2,1.5-1,1.5-1.9S9.8,60,8.9,59.8c-2.5-0.6-4.3-2.8-4.3-5.4s1.8-4.8,4.3-5.4
			c0.9-0.2,1.5-1,1.5-1.9s-0.6-1.7-1.5-1.9c-2.5-0.6-4.3-2.8-4.3-5.4c0-2.6,1.8-4.8,4.3-5.4c0.9-0.2,1.5-1,1.5-1.9
			c0-0.9-0.6-1.7-1.5-1.9c-2.5-0.6-4.3-2.8-4.3-5.4s1.8-4.8,4.3-5.4c0.9-0.2,1.5-1,1.5-1.9S9.8,16.2,8.9,16
			c-2.5-0.6-4.3-2.8-4.3-5.4c0-3,2.5-5.5,5.5-5.5c2.5,0,4.7,1.7,5.4,4.2c0.2,0.9,1,1.5,1.8,1.5l0,0c0.9,0,1.6-0.6,1.8-1.5
			C19.9,6.8,22.2,5,24.8,5s4.8,1.8,5.4,4.3c0.2,0.9,1,1.5,1.9,1.5c0.9,0,1.7-0.6,1.9-1.5C34.5,6.8,36.7,5,39.2,5s4.8,1.8,5.4,4.3
			c0.2,0.9,1,1.5,1.9,1.5s1.7-0.6,1.9-1.5C48.9,6.8,51.1,5,53.7,5c2.5,0,4.7,1.7,5.4,4.2c0.2,0.9,1,1.5,1.8,1.5l0,0
			c0.9,0,1.6-0.6,1.8-1.5c0.5-2.5,2.8-4.3,5.4-4.3c3,0,5.5,2.5,5.5,5.5c0,2.6-1.8,4.8-4.3,5.4c-0.9,0.2-1.5,1-1.5,1.9
			C67.9,18.4,68.5,19.2,69.4,19.4z"/>
		<circle class="st1" cx="23" cy="25.7" r="2.3"/>
		<circle class="st1" cx="33.8" cy="25.7" r="2.3"/>
		<circle class="st1" cx="44.7" cy="25.7" r="2.3"/>
		<circle class="st1" cx="55.5" cy="25.7" r="2.3"/>
		<circle class="st1" cx="23" cy="39.5" r="2.3"/>
		<circle class="st1" cx="33.8" cy="39.5" r="2.3"/>
		<circle class="st1" cx="44.7" cy="39.5" r="2.3"/>
		<circle class="st1" cx="55.5" cy="39.5" r="2.3"/>
		<circle class="st1" cx="23" cy="53.3" r="2.3"/>
		<circle class="st1" cx="33.8" cy="53.3" r="2.3"/>
		<circle class="st1" cx="44.7" cy="53.3" r="2.3"/>
		<circle class="st1" cx="55.5" cy="53.3" r="2.3"/>
	</g>
</g>
</svg>
