<?xml version="1.0" encoding="utf-8"?>
<!-- Generator: Adobe Illustrator 21.0.0, SVG Export Plug-In . SVG Version: 6.00 Build 0)  -->
<svg version="1.1" id="Layer_1" xmlns="http://www.w3.org/2000/svg" xmlns:xlink="http://www.w3.org/1999/xlink" x="0px" y="0px"
	 viewBox="0 0 88 88.1" style="enable-background:new 0 0 88 88.1;" xml:space="preserve">
<style type="text/css">
	.st0{fill:#FFFFFF;stroke:#FFFFFF;stroke-miterlimit:10;}
	.st1{fill:#FFFFFF;}
</style>
<g>
	<g>
		<path class="st0" d="M79.5,44.5c0,0.4,0,0.9,0,1.2c0,0.5-0.1,0.9-0.1,1.3c0,0.4-0.2,0.7-0.5,1l0,0c-0.3,0.3-0.6,0.7-0.7,1.1
			C78,49.5,78,49.9,78,50.4c0,0.3,0,0.5,0.1,0.8c0.1,0.2,0.1,0.5,0.2,0.7c0.2,0.3,0.2,0.7,0.1,1.1l0,0c-0.1,0.4-0.2,0.8-0.4,1.3
			c-0.1,0.4-0.2,0.8-0.4,1.3c-0.1,0.4-0.4,0.7-0.7,0.8l0,0c-0.5,0.3-0.9,0.7-1.2,1.2c-0.3,0.5-0.4,1-0.4,1.6c0,0.1,0,0.3,0,0.4
			c0,0.1,0,0.2,0.1,0.3c0.1,0.4,0,0.8-0.2,1.2s-0.4,0.7-0.6,1.1c-0.2,0.4-0.4,0.8-0.7,1.1c-0.2,0.3-0.5,0.6-0.9,0.7l0,0
			c-0.7,0.2-1.2,0.6-1.7,1.1l0.1-0.1c-0.4,0.5-0.6,1.1-0.6,1.8c0,0.4-0.2,0.7-0.4,1l0,0c-0.3,0.3-0.6,0.6-0.9,1
			c-0.3,0.3-0.6,0.6-0.9,0.9s-0.6,0.4-1,0.4c-0.7,0-1.4,0.3-1.9,0.7c-0.5,0.4-0.9,1-1.1,1.7c-0.1,0.4-0.4,0.8-0.7,0.9
			c-0.3,0.2-0.7,0.4-1,0.7l0,0l0,0c-0.4,0.2-0.8,0.5-1.1,0.7C61.4,75,61,75.1,60.7,75c-0.1,0-0.2,0-0.2,0l0,0l0,0
			c-0.1,0-0.2,0-0.3,0c-0.6,0-1.2,0.2-1.7,0.4c-0.5,0.3-0.9,0.7-1.2,1.2c-0.2,0.3-0.5,0.6-0.8,0.7l0,0c-0.4,0.1-0.8,0.3-1.3,0.4
			c-0.4,0.1-0.9,0.3-1.3,0.4c-0.4,0.1-0.8,0.1-1.1-0.1c-0.2-0.1-0.4-0.1-0.6-0.2c-0.2-0.1-0.5-0.1-0.7-0.1c-0.5,0-0.9,0.1-1.3,0.3
			c-0.4,0.2-0.8,0.4-1.1,0.8c-0.3,0.3-0.6,0.4-1,0.5l0,0c-0.4,0.1-0.9,0.1-1.3,0.1c-0.4,0-0.8,0.1-1.3,0.1c-0.4,0-0.7-0.1-1-0.3l0,0
			c-0.3-0.2-0.6-0.4-0.9-0.5c-0.3-0.1-0.7-0.2-1.1-0.2c-0.3,0-0.6,0-0.9,0.1c-0.3,0.1-0.6,0.2-0.9,0.4c-0.3,0.2-0.7,0.3-1.1,0.2l0,0
			c-0.5-0.1-0.9-0.1-1.3-0.2c-0.4-0.1-0.8-0.1-1.3-0.2c-0.4-0.1-0.7-0.3-0.9-0.6l0,0c-0.3-0.4-0.7-0.7-1.1-0.9
			c-0.4-0.2-0.9-0.3-1.4-0.3c-0.2,0-0.4,0-0.6,0l0,0c-0.2,0-0.3,0.1-0.5,0.1c-0.4,0.1-0.8,0.1-1.1,0c-0.3-0.1-0.7-0.3-1.2-0.5l0,0
			l0,0c-0.4-0.2-0.8-0.3-1.2-0.5c-0.4-0.2-0.6-0.4-0.8-0.8l0,0c-0.2-0.6-0.7-1.1-1.2-1.4s-1.1-0.5-1.8-0.5H25c-0.1,0-0.1,0-0.2,0
			c-0.4,0-0.8-0.1-1-0.3l0,0c-0.4-0.2-0.7-0.5-1.1-0.8c-0.3-0.2-0.7-0.5-1-0.8c-0.3-0.2-0.5-0.6-0.5-0.9l0,0
			c-0.1-0.7-0.5-1.3-0.9-1.8c-0.5-0.5-1.1-0.8-1.8-0.9c-0.4-0.1-0.8-0.3-1-0.6c-0.3-0.3-0.5-0.6-0.8-1s-0.6-0.7-0.8-1
			s-0.3-0.7-0.3-1.1v-0.1c0-0.1,0,0,0-0.1c0-0.7-0.2-1.3-0.6-1.8c-0.4-0.5-0.9-1-1.5-1.2c-0.4-0.2-0.7-0.5-0.9-0.8
			c-0.2-0.4-0.4-0.7-0.5-1.1l0,0l0,0c-0.1-0.3-0.3-0.7-0.5-1.2c-0.1-0.4-0.2-0.7,0-1.1l0,0c0.1-0.2,0.1-0.3,0.1-0.5l0,0l0,0
			c0-0.1,0-0.3,0-0.5c0-0.5-0.1-1-0.4-1.5c-0.2-0.5-0.6-0.9-1-1.2c-0.3-0.2-0.5-0.6-0.6-0.9l0,0c-0.1-0.4-0.2-0.8-0.3-1.3l0,0
			c-0.1-0.4-0.1-0.8-0.2-1.3c-0.1-0.4,0-0.8,0.2-1.1l0,0c0.2-0.2,0.3-0.5,0.4-0.8c0.1-0.3,0.1-0.6,0.1-0.9c0-0.4-0.1-0.8-0.2-1.1
			v-0.1C9.4,45.4,9.2,45,9,44.8c-0.3-0.3-0.4-0.7-0.4-1.1c0-0.4,0-0.9,0-1.2c0-0.5,0.1-0.9,0.1-1.3c0-0.4,0.2-0.8,0.5-1
			c0.3-0.3,0.5-0.6,0.7-1s0.2-0.8,0.2-1.3c0-0.3,0-0.5-0.1-0.7s-0.1-0.5-0.2-0.7c-0.2-0.4-0.2-0.8-0.1-1.2c0.1-0.5,0.2-0.9,0.3-1.2
			c0.1-0.4,0.3-0.8,0.4-1.3c0.1-0.4,0.4-0.7,0.7-0.8c0.5-0.3,0.9-0.7,1.2-1.2s0.4-1,0.4-1.6c0-0.1,0-0.3,0-0.4s0-0.2-0.1-0.3
			c-0.1-0.4,0-0.8,0.2-1.1c0.2-0.3,0.4-0.7,0.6-1.1l0,0l0,0c0.2-0.4,0.4-0.8,0.7-1.1c0.2-0.3,0.5-0.6,0.9-0.7
			c0.6-0.2,1.2-0.6,1.6-1.1s0.7-1.2,0.7-1.9c0-0.4,0.2-0.7,0.4-1l0,0c0.3-0.3,0.6-0.6,0.9-1c0.3-0.3,0.6-0.6,0.9-0.9s0.6-0.4,1-0.4
			c0.7,0,1.3-0.3,1.9-0.7c0.5-0.4,0.9-1,1.1-1.7c0.1-0.4,0.3-0.7,0.6-0.9l0,0c0.3-0.2,0.7-0.4,1-0.7c0.3-0.2,0.7-0.4,1-0.6
			c0.3-0.2,0.7-0.2,1.1-0.2l0,0l0,0c0.1,0,0.2,0,0.3,0c0.1,0,0.2,0,0.3,0c0.6,0,1.2-0.2,1.7-0.4c0.5-0.3,0.9-0.7,1.2-1.2
			c0.2-0.3,0.5-0.6,0.8-0.7l0,0c0.5-0.2,0.9-0.3,1.3-0.4c0.3-0.1,0.8-0.2,1.3-0.4c0.4-0.1,0.8-0.1,1.1,0.1c0.2,0.1,0.4,0.2,0.7,0.2
			c0.2,0.1,0.4,0.1,0.7,0.1c0.5,0,0.9-0.1,1.3-0.3c0.4-0.2,0.8-0.4,1.1-0.8c0.3-0.3,0.6-0.4,1-0.5l0,0C40.4,9,40.9,9,41.3,9
			c0.4,0,0.8-0.1,1.3-0.1c0.4,0,0.7,0.1,1,0.3l0,0c0.3,0.2,0.6,0.4,0.9,0.5c0.3,0.1,0.7,0.2,1.1,0.2c0.3,0,0.6-0.1,0.9-0.1
			c0.3-0.1,0.6-0.2,0.9-0.4C47.9,9,48.3,8.9,48.7,9s0.8,0.1,1.2,0.2c0.4,0.1,0.8,0.1,1.3,0.2c0.4,0.1,0.7,0.3,0.9,0.6l0,0
			c0.3,0.4,0.7,0.7,1.1,0.9c0.4,0.2,0.9,0.3,1.4,0.3c0.2,0,0.4,0,0.6,0c0.2,0,0.4-0.1,0.5-0.1c0.4-0.1,0.8-0.1,1.2,0.1v-0.1l0,0l0,0
			l0,0l0,0l3.1,1.8c0,0.1,0,0.1,0.1,0.2c0.3,0.5,0.6,0.9,1.1,1.2l-1.7,2.6c-0.9-0.6-1.6-1.3-2.1-2.2c-0.2-0.1-0.4-0.2-0.6-0.3
			c-0.2-0.1-0.4-0.2-0.6-0.3c-0.2,0-0.3,0.1-0.5,0.1c-0.4,0.1-0.7,0.1-1.1,0.1c-1,0-2-0.2-2.8-0.7c-0.7-0.3-1.3-0.8-1.8-1.4
			c-0.2,0-0.4-0.1-0.7-0.1c-0.2,0-0.5-0.1-0.7-0.1c-0.4,0.2-0.8,0.4-1.2,0.5c-0.6,0.2-1.2,0.3-1.8,0.3c-0.7,0-1.4-0.1-2.1-0.4
			c-0.5-0.2-0.9-0.4-1.4-0.7c-0.2,0-0.4,0-0.7,0.1c-0.2,0-0.5,0-0.7,0.1c-0.5,0.4-1.1,0.8-1.7,1.1c-0.8,0.3-1.6,0.5-2.5,0.5
			c-0.5,0-0.9-0.1-1.4-0.1c-0.2-0.1-0.5-0.1-0.7-0.2c-0.2,0.1-0.4,0.1-0.6,0.2c-0.2,0.1-0.5,0.2-0.7,0.2c-0.5,0.8-1.2,1.4-2,1.9
			c-1,0.6-2.1,0.9-3.2,0.9c-0.1,0-0.3,0-0.6,0c-0.2,0.1-0.3,0.2-0.5,0.3c-0.2,0.1-0.3,0.2-0.5,0.3c-0.4,1.1-1.1,2-2,2.7
			s-1.9,1.2-3.1,1.3c-0.2,0.2-0.3,0.3-0.5,0.5s-0.3,0.3-0.5,0.5c-0.1,1.2-0.6,2.2-1.3,3.1c-0.7,0.9-1.6,1.6-2.7,2
			c-0.1,0.2-0.2,0.4-0.3,0.6l0,0c-0.1,0.2-0.2,0.4-0.3,0.6v0.1c0,0.2,0,0.5,0,0.7c0,1.1-0.3,2.2-0.8,3.2c-0.4,0.8-1.1,1.5-1.8,2
			c-0.1,0.2-0.1,0.4-0.2,0.6c-0.1,0.2-0.1,0.4-0.2,0.6c0.1,0.3,0.2,0.5,0.2,0.8c0.1,0.5,0.2,1,0.2,1.4c0,0.9-0.2,1.7-0.5,2.5
			c-0.2,0.6-0.6,1.1-1,1.6c0,0.2,0,0.5,0,0.7s0,0.5,0,0.7c0.3,0.4,0.5,0.9,0.7,1.3v0.1c0.2,0.7,0.4,1.4,0.4,2.2
			c0,0.6-0.1,1.2-0.2,1.8c-0.1,0.4-0.2,0.7-0.4,1.1c0,0.2,0.1,0.4,0.1,0.7l0,0l0,0c0,0.2,0.1,0.4,0.1,0.6c0.6,0.5,1.1,1.2,1.5,1.9
			c0.4,0.9,0.7,1.9,0.7,2.9c0,0.3,0,0.7-0.1,1l0,0c0,0.1,0,0.2-0.1,0.4c0.1,0.2,0.2,0.4,0.3,0.6l0,0c0.1,0.2,0.2,0.4,0.3,0.6
			c0.9,0.5,1.8,1.2,2.3,2.1c0.7,1,1.1,2.2,1.1,3.4c0.1,0.2,0.3,0.4,0.4,0.5c0.1,0.2,0.3,0.4,0.4,0.5c1.1,0.3,2.1,0.8,2.9,1.6
			c0.8,0.8,1.4,1.8,1.7,2.9c0.2,0.1,0.3,0.3,0.5,0.4s0.4,0.3,0.5,0.4c1.3,0,2.5,0.4,3.5,1c0.9,0.6,1.6,1.3,2.1,2.2
			c0.2,0.1,0.4,0.2,0.6,0.3l0,0c0.2,0.1,0.4,0.2,0.6,0.3c0.1,0,0.3-0.1,0.4-0.1h0.1c0.4-0.1,0.7-0.1,1.1-0.1c1,0,2,0.2,2.8,0.7
			c0.7,0.3,1.3,0.8,1.8,1.4c0.2,0,0.4,0.1,0.7,0.1c0.2,0,0.5,0.1,0.7,0.1c0.4-0.2,0.7-0.4,1.1-0.5c0.6-0.2,1.2-0.3,1.8-0.3
			c0.7,0,1.4,0.1,2.1,0.4c0.5,0.2,0.9,0.4,1.4,0.7c0.2,0,0.4,0,0.7,0c0.2,0,0.5,0,0.7-0.1c0.5-0.4,1.1-0.8,1.7-1.1
			c0.8-0.3,1.6-0.5,2.5-0.5c0.5,0,0.9,0.1,1.4,0.1c0.3,0.1,0.5,0.1,0.7,0.2c0.2-0.1,0.4-0.1,0.6-0.2c0.2-0.1,0.4-0.1,0.6-0.2
			c0.5-0.8,1.2-1.4,2-1.9c0.9-0.6,2.1-0.9,3.2-0.9c0.2,0,0.4,0,0.6,0c0.2-0.1,0.4-0.2,0.6-0.4l0,0c0.2-0.1,0.4-0.2,0.6-0.4
			c0.4-1.1,1.1-2,2-2.7c0.9-0.7,1.9-1.2,3.1-1.3c0.2-0.2,0.3-0.3,0.5-0.5s0.3-0.3,0.5-0.5c0.1-1.1,0.6-2.1,1.2-3c0,0,0-0.1,0.1-0.1
			c0.7-0.9,1.6-1.6,2.7-2c0.1-0.2,0.2-0.4,0.3-0.6c0.1-0.2,0.2-0.4,0.3-0.6v-0.1c0-0.2,0-0.5,0-0.7c0-1.1,0.3-2.2,0.8-3.2
			c0.4-0.8,1.1-1.5,1.8-2c0.1-0.2,0.1-0.4,0.2-0.6c0.1-0.2,0.1-0.4,0.2-0.7c-0.1-0.3-0.2-0.5-0.2-0.8c-0.1-0.5-0.2-1-0.2-1.5
			c0-0.9,0.2-1.7,0.5-2.5c0.2-0.6,0.6-1.1,1-1.6c0-0.2,0-0.5,0-0.7s0-0.5,0-0.7L79.5,44.5z M85.8,45.2c0,0.2,0.6,0.6,0.6,0.8
			s0,0.4,0,0.6c0.3,0.4,0.6,0.9,0.8,1.5c0.3,0.7,0.4,1.5,0.4,2.3c0,1.2-0.3,2.3-0.9,3.2c-0.5,0.8-1.1,1.5-1.8,2
			c-0.1,0.2-0.1,0.4-0.2,0.5c-0.1,0.2-0.1,0.4-0.2,0.5c0.1,0.3,0.2,0.6,0.3,0.8c0.1,0.5,0.2,1,0.2,1.6c0,1.5-0.5,2.8-1.3,3.9
			C83,63.8,82,64.5,80.9,65c-0.1,0.2-0.2,0.3-0.3,0.5L80.3,66v0.1c0,0.3,0.1,0.6,0.1,0.8c0,1.7-0.7,3.3-1.8,4.5
			c-1,1-2.3,1.7-3.7,1.9c-0.1,0.1-0.3,0.3-0.4,0.4s-0.3,0.3-0.4,0.4C74,75.6,73.3,77,72.3,78l0,0c-1.2,1.2-2.8,1.9-4.5,1.9
			c-0.2,0-0.5,0-0.7,0l0,0c-0.2,0.1-0.3,0.2-0.5,0.3c-0.1,0.1-0.3,0.2-0.5,0.3c-0.4,1.1-1.1,2.1-2.1,2.9c-1.1,0.9-2.5,1.4-4,1.4
			c-0.5,0-1-0.1-1.5-0.2h-0.1c-0.2-0.1-0.5-0.1-0.7-0.2c-0.2,0.1-0.4,0.1-0.5,0.2c-0.2,0.1-0.4,0.1-0.6,0.2c-0.5,0.8-1.2,1.4-2,1.9
			c-1,0.6-2.1,0.9-3.3,0.9c-0.8,0-1.5-0.1-2.2-0.4c-0.5-0.2-1-0.4-1.4-0.7c-0.2,0-0.4,0-0.6,0c-0.2,0-0.4,0-0.6,0
			c-0.5,0.5-1.1,0.8-1.7,1.1c-0.8,0.4-1.7,0.6-2.7,0.6s-2-0.3-2.9-0.7l0,0l0,0c-0.6-0.5-1.2-1-1.7-1.5c-0.2,0-0.4-0.1-0.6-0.1
			c-0.2,0-0.4-0.1-0.6-0.1c-0.4,0.2-0.8,0.4-1.2,0.5c-0.6,0.2-1.3,0.3-1.9,0.3c-1.3,0-2.5-0.4-3.6-1.1c-0.9-0.6-1.6-1.4-2.1-2.3
			c-0.2-0.1-0.4-0.1-0.5-0.2c-0.2-0.1-0.3-0.1-0.5-0.2c-0.2,0-0.3,0.1-0.5,0.1C25.6,83,25.2,83,24.8,83c-1.6,0-3.1-0.6-4.2-1.6
			c-1-0.8-1.7-2-2-3.3c-0.2-0.1-0.3-0.2-0.5-0.3c-0.1-0.1-0.3-0.2-0.4-0.3h-0.1c-1.8,0-3.4-0.7-4.5-1.9l0,0
			c-1.1-1.1-1.9-2.7-1.9-4.5c-0.1-0.1-0.2-0.3-0.4-0.4c-0.1-0.1-0.2-0.3-0.4-0.4c-1.3-0.3-2.5-1-3.4-2c-1-1.1-1.6-2.6-1.6-4.3
			c0-0.4,0-0.7,0.1-1.1c0-0.1,0.1-0.3,0.1-0.4c-0.1-0.2-0.2-0.4-0.2-0.5c-0.1-0.2-0.2-0.3-0.2-0.5c-1-0.5-1.8-1.2-2.4-2.1
			c-0.7-1-1.1-2.3-1.1-3.6c0-0.6,0.1-1.3,0.3-1.8v-0.1c0.1-0.3,0.3-0.7,0.4-1c0-0.2-0.1-0.4-0.1-0.6c0-0.2-0.1-0.4-0.1-0.6
			c-0.6-0.5-1.1-1.2-1.5-1.9c-0.5-0.9-0.7-1.9-0.7-3c0-0.9,0.2-1.8,0.5-2.6c0.3-0.6,0.6-1.2,1-1.6c0-0.2,0-0.4,0-0.6
			c0-0.2,0-0.4,0-0.6C1.3,41,1.1,40.5,0.9,40c-0.3-0.7-0.4-1.5-0.4-2.3c0-1.2,0.3-2.3,0.9-3.3c0.5-0.8,1.1-1.5,1.8-2
			c0.1-0.2,0.1-0.4,0.2-0.6c0.1-0.2,0.1-0.4,0.2-0.6c-0.1-0.3-0.2-0.5-0.3-0.8C3.1,30,3,29.5,3,29c0-1.5,0.5-2.8,1.3-3.9
			c0.8-1,1.7-1.7,2.8-2.1c0.1-0.2,0.2-0.3,0.3-0.5c0.1-0.2,0.2-0.3,0.3-0.5v-0.1c0-0.3-0.1-0.5-0.1-0.8c0-1.7,0.7-3.3,1.8-4.5
			c1-1,2.3-1.7,3.8-1.9c0.1-0.1,0.3-0.3,0.4-0.4c0.1-0.1,0.3-0.3,0.4-0.4c0.1-1.5,0.8-2.9,1.8-3.9l0,0l0,0l0,0
			c1.2-1.2,2.8-1.9,4.5-1.9l0.1,0.1l0,0l0,0l0,0c0.2,0,0.5,0,0.7,0l0,0C21.2,8.1,21.3,8,21.5,8c0.1-0.1,0.2-0.2,0.4-0.2
			C22.3,6.7,23.1,5.7,24,5c1.1-0.9,2.5-1.4,4-1.4c0.5,0,1,0.1,1.5,0.2C29.7,3.9,30,3.9,30.2,4c0.2-0.1,0.4-0.1,0.5-0.2
			c0.2-0.1,0.4-0.1,0.5-0.2c0.5-0.8,1.2-1.4,2-2c1-0.6,2.1-0.9,3.3-0.9c0.8,0,1.5,0.1,2.2,0.4c0.5,0.2,0.9,0.4,1.4,0.7
			c0.2,0,0.4,0,0.6-0.1c0.2,0,0.4,0,0.6,0c0.5-0.5,1.1-0.8,1.7-1.1C43.8,0.2,44.7,0,45.7,0s2,0.2,2.9,0.7c0.7,0.4,1.3,0.8,1.8,1.4
			c0.2,0,0.4,0.1,0.6,0.1c0.2,0,0.4,0.1,0.6,0.1c0.4-0.2,0.8-0.4,1.2-0.5c0.6-0.2,1.3-0.3,1.9-0.3c1.3,0,2.5,0.4,3.6,1.1
			c0.9,0.6,1.6,1.4,2.1,2.3C60.6,5,60.8,5,60.9,5.1l0,0c0.2,0.1,0.3,0.1,0.5,0.2c0.2,0,0.3-0.1,0.5-0.1c0.4-0.1,0.8-0.1,1.2-0.1
			c1.6,0,2.6-0.2,3.8,0.8l-1.7,3c-0.6-0.5-1.3-0.7-2.1-0.7c-0.2,0-0.4,0-0.6,0.1c-0.2,0-0.4,0.1-0.6,0.2l0,0c-0.4,0.1-0.8,0.1-1.2,0
			c-0.3-0.1-0.6-0.3-1-0.4l0,0l0,0c-0.3-0.1-0.6-0.3-0.9-0.4c-0.4-0.1-0.8-0.5-0.9-0.9c-0.2-0.6-0.7-1.1-1.2-1.5
			c-0.5-0.3-1.1-0.6-1.8-0.6c-0.4,0-0.7,0.1-1,0.1c-0.3,0.1-0.6,0.2-0.8,0.4c-0.3,0.3-0.8,0.4-1.2,0.3s-0.8-0.1-1.1-0.2
			s-0.7-0.1-1-0.2c-0.4,0-0.9-0.3-1.1-0.6c-0.3-0.4-0.7-0.8-1.2-1c-0.4-0.2-0.9-0.3-1.5-0.3c-0.5,0-0.9,0.1-1.4,0.3
			c-0.4,0.2-0.8,0.5-1.1,0.8s-0.7,0.5-1.1,0.6c-0.3,0-0.7,0-1.1,0.1c-0.4,0-0.8,0.1-1.1,0.1c-0.4,0-0.8-0.1-1.2-0.4
			c-0.3-0.2-0.6-0.4-1-0.6c-0.3-0.1-0.7-0.2-1.1-0.2c-0.6,0-1.2,0.2-1.7,0.5c-0.5,0.3-0.9,0.8-1.2,1.3l0,0c-0.2,0.4-0.5,0.7-0.9,0.8
			c-0.3,0.1-0.7,0.2-1.1,0.3c-0.4,0.1-0.8,0.3-1,0.4l0,0c-0.4,0.1-0.8,0.1-1.2-0.1c-0.2-0.1-0.4-0.2-0.7-0.2
			c-0.2-0.1-0.5-0.1-0.8-0.1c-0.8,0-1.5,0.3-2,0.7c-0.6,0.4-1,1.1-1.1,1.8c-0.1,0.4-0.3,0.8-0.7,1c-0.6,0.3-1.1,0.7-1.7,1
			c-0.3,0.2-0.8,0.3-1.2,0.2c-0.1,0-0.2-0.1-0.4-0.1l0,0l0,0l0,0l0,0c-0.1,0-0.2,0-0.4,0c-0.9,0-1.7,0.4-2.3,0.9l0,0
			c-0.6,0.6-0.9,1.4-0.9,2.3l0,0c0,0.4-0.1,0.8-0.5,1.2c-0.3,0.2-0.5,0.5-0.8,0.8c-0.2,0.2-0.5,0.5-0.8,0.8l0,0
			c-0.3,0.3-0.7,0.5-1.1,0.5c-0.9,0-1.7,0.4-2.3,1s-0.9,1.4-0.9,2.3c0,0.1,0,0.3,0,0.4s0,0.3,0.1,0.4l0,0c0.1,0.4,0,0.8-0.2,1.2
			c-0.2,0.3-0.4,0.6-0.6,0.9c-0.2,0.3-0.4,0.6-0.5,0.9l0,0c-0.2,0.4-0.5,0.6-1,0.8C8.3,26,7.7,26.4,7.2,27c-0.4,0.5-0.7,1.2-0.7,2
			c0,0.3,0,0.6,0.1,0.8c0.1,0.2,0.1,0.5,0.2,0.7c0.2,0.4,0.3,0.8,0.1,1.3c-0.1,0.4-0.2,0.7-0.3,1.1c-0.1,0.4-0.2,0.7-0.3,1.1l0,0
			c-0.1,0.4-0.4,0.8-0.8,1c-0.5,0.3-0.9,0.7-1.2,1.2c-0.3,0.5-0.4,1.1-0.4,1.7c0,0.4,0.1,0.8,0.2,1.2s0.3,0.7,0.6,1
			c0.3,0.3,0.4,0.7,0.4,1.2c0,0.4-0.1,0.8-0.1,1.1c0,0.4,0,0.7,0,1c0,0.4-0.2,0.9-0.5,1.2s-0.6,0.7-0.8,1.1
			c-0.2,0.4-0.3,0.8-0.3,1.3c0,0.6,0.1,1.1,0.4,1.5c0.2,0.5,0.6,0.9,1,1.2l0,0c0.3,0.2,0.6,0.6,0.7,1c0.1,0.3,0.1,0.7,0.2,1.1
			c0.1,0.4,0.2,0.8,0.2,1.1l0,0c0.1,0.4,0,0.8-0.2,1.2c-0.2,0.2-0.3,0.5-0.4,0.8V55c-0.1,0.3-0.1,0.6-0.1,0.9c0,0.7,0.2,1.3,0.6,1.9
			c0.4,0.5,0.9,0.9,1.5,1.2c0.4,0.1,0.8,0.4,0.9,0.9c0.1,0.3,0.3,0.7,0.5,1c0.2,0.4,0.4,0.8,0.5,1l0,0l0,0c-0.2,0.1-0.1,0.6-0.3,1
			c-0.1,0.2-0.1,0.3-0.1,0.5s0,0.4,0,0.6c0,0.8,0.3,1.6,0.8,2.2s1.3,1,2.1,1.1l0,0c0.4,0,0.8,0.2,1.1,0.6c0.2,0.2,0.4,0.5,0.7,0.9
			c0.2,0.3,0.5,0.6,0.7,0.8l0,0c0.3,0.3,0.4,0.7,0.4,1.2c0,0.1,0,0.1,0,0.1l0,0l0,0l0,0v0.2c0,0.9,0.4,1.7,0.9,2.3
			c0.6,0.6,1.4,0.9,2.3,0.9c0.1,0,0.2,0,0.2,0h0.2c0.4-0.1,0.9,0,1.2,0.3c0.3,0.2,0.6,0.4,0.9,0.7c0.3,0.2,0.6,0.4,0.8,0.6
			c0.4,0.2,0.6,0.6,0.7,1.1c0.1,0.8,0.5,1.5,1.1,2s1.3,0.8,2.1,0.8c0.2,0,0.4,0,0.6-0.1c0.2,0,0.4-0.1,0.6-0.2l0,0
			c0.4-0.1,0.8-0.1,1.2,0c0.3,0.1,0.6,0.3,1,0.5c0.3,0.1,0.7,0.3,1,0.4c0.4,0.2,0.7,0.5,0.9,0.9c0.2,0.6,0.7,1.1,1.2,1.5
			c0.5,0.3,1.1,0.6,1.8,0.6c0.3,0,0.7-0.1,1-0.1c0.3-0.1,0.6-0.2,0.8-0.4c0.3-0.3,0.8-0.4,1.2-0.3s0.8,0.1,1.1,0.2s0.7,0.1,1,0.2
			c0.4,0,0.9,0.3,1.1,0.6c0.3,0.4,0.7,0.8,1.2,1l0,0c0.4,0.2,0.9,0.4,1.5,0.4c0.5,0,0.9-0.1,1.4-0.3c0.4-0.2,0.8-0.5,1.1-0.8
			s0.7-0.5,1.1-0.5c0.3,0,0.7,0,1.1-0.1c0.4,0,0.8-0.1,1.1-0.1c0.4-0.1,0.9,0.1,1.2,0.4c0.3,0.2,0.6,0.4,1,0.6
			c0.4,0.1,0.7,0.2,1.1,0.2c0.6,0,1.2-0.2,1.7-0.5s0.9-0.7,1.2-1.2c0.2-0.4,0.5-0.7,1-0.8c0.3-0.1,0.7-0.2,1.1-0.3
			c0.4-0.1,0.7-0.2,1-0.3c0.4-0.2,0.9-0.2,1.3,0c0.2,0.1,0.4,0.2,0.7,0.2h0.1c0.2,0.1,0.5,0.1,0.8,0.1c0.8,0,1.5-0.3,2-0.7
			c0.6-0.4,1-1.1,1.2-1.8l0,0c0.1-0.4,0.3-0.8,0.7-1c0.3-0.1,0.6-0.3,0.9-0.6c0.3-0.2,0.6-0.4,0.9-0.6l0,0c0.3-0.2,0.8-0.3,1.2-0.2
			c0.1,0,0.2,0,0.4,0.1c0.1,0,0.2,0,0.4,0c0.9,0,1.7-0.4,2.3-0.9c0.6-0.6,0.9-1.4,0.9-2.3l0,0c0-0.4,0.1-0.9,0.5-1.2
			c0.3-0.2,0.5-0.5,0.8-0.8c0.2-0.2,0.5-0.5,0.8-0.8l0,0c0.3-0.3,0.7-0.5,1.1-0.5c0.9,0,1.7-0.4,2.3-1c0.6-0.6,0.9-1.4,0.9-2.3
			c0-0.2,0-0.3,0-0.4s0-0.2-0.1-0.3c-0.1-0.4-0.1-0.9,0.2-1.3c0.2-0.4,0.4-0.7,0.6-0.9c0.1-0.2,0.3-0.6,0.5-1l0,0
			c0.2-0.4,0.5-0.6,1-0.8c0.7-0.2,1.3-0.6,1.8-1.2c0.4-0.5,0.7-1.2,0.7-2c0-0.3,0-0.6-0.1-0.8s-0.2-0.5-0.3-0.7l0,0
			c-0.2-0.4-0.3-0.8-0.1-1.2c0.1-0.4,0.2-0.7,0.3-1.1c0.1-0.3,0.2-0.7,0.3-1c0.1-0.4,0.4-0.8,0.8-1c0.5-0.3,0.9-0.7,1.2-1.2
			c0.3-0.5,0.4-1.1,0.4-1.7c0-0.4-0.1-0.8-0.2-1.2s-0.3-0.7-0.6-1c-0.3-0.3-0.5-0.7-0.4-1.2c0-0.4,0.1-0.8,0.1-1.1
			c0-0.4-0.8-0.7-0.8-1c0-0.4,0.5-0.1,0.8-0.4h3.2c-0.2,1-0.5,1.3-0.6,1.5 M44.7,83.9L44.7,83.9z"/>
	</g>
</g>
<g>
	<circle class="st1" cx="22.5" cy="44" r="2.8"/>
	<circle class="st1" cx="66.5" cy="44" r="2.8"/>
</g>
<g>
	<ellipse transform="matrix(0.5 -0.866 0.866 0.5 -37.8813 60.5265)" class="st1" cx="33.5" cy="63.1" rx="2.8" ry="2.8"/>
	<ellipse transform="matrix(0.5 -0.866 0.866 0.5 6.1182 60.533)" class="st1" cx="55.5" cy="25" rx="2.8" ry="2.8"/>
</g>
<g>
	<ellipse transform="matrix(0.866 -0.5 0.5 0.866 -24.1059 36.1983)" class="st1" cx="55.5" cy="63.1" rx="2.8" ry="2.8"/>
	<ellipse transform="matrix(0.866 -0.5 0.5 0.866 -8.0027 20.095)" class="st1" cx="33.5" cy="25" rx="2.8" ry="2.8"/>
</g>
<g>
	<path class="st1" d="M83.3,45.8L83.3,45.8l-41.1-1.4L64.6,6.6C64.9,6.1,65.5,6,66,6.2c0.5,0.3,0.6,0.9,0.4,1.4L45.7,42.5l37.7,1.3
		c0.6,0,1,0.5,1,1C84.3,45.4,83.9,45.8,83.3,45.8z"/>
</g>
<g>
	<path class="st1" d="M23.8,81c-0.2,0-0.3,0-0.5-0.1c-0.5-0.3-0.7-0.9-0.4-1.4l21-38.1l21.8,35.4c0.3,0.5,0.1,1.1-0.3,1.4
		c-0.5,0.3-1.1,0.1-1.4-0.3L44,45.4L24.7,80.5C24.5,80.9,24.2,81,23.8,81z"/>
</g>
<g>
	<path class="st1" d="M45.7,44.4l-41-0.2c-0.6,0-1-0.5-1-1c0-0.6,0.5-1,1-1l0,0l37.6,0.2L23.5,7.6c-0.3-0.5-0.1-1.1,0.4-1.4
		s1.1-0.1,1.4,0.4L45.7,44.4z"/>
</g>
<g>
	<path class="st0" d="M83.9,44.1h-4c0-13-7.1-25-18.5-31.3l1.9-3.5C76,16.3,83.9,29.6,83.9,44.1z"/>
</g>
<path class="st1" d="M75.7,44c0-11.8-6.4-22-15.9-27.5l-16,27.4L75.7,44z"/>
</svg>
