<?xml version="1.0" encoding="utf-8"?>
<!-- Generator: Adobe Illustrator 21.0.0, SVG Export Plug-In . SVG Version: 6.00 Build 0)  -->
<svg version="1.1" id="Layer_1" xmlns="http://www.w3.org/2000/svg" xmlns:xlink="http://www.w3.org/1999/xlink" x="0px" y="0px"
	 viewBox="0 0 87.3 87.3" style="enable-background:new 0 0 87.3 87.3;" xml:space="preserve">
<style type="text/css">
	.st0{fill:#FFFFFF;stroke:#FFFFFF;stroke-width:2;stroke-miterlimit:10;}
	.st1{fill:#FFFFFF;}
</style>
<g>
	<path class="st0" d="M71.6,13.6c-1.3-0.4-2.6-0.7-4.3-2c-1.7-1.3-2.4-2.4-3.1-3.6c-1-1.7-2.1-3.5-5.7-4.9C54.9,1.8,52.9,2.4,51,3
		c-1.3,0.4-2.6,0.8-4.7,0.7C44.1,3.6,43,3,41.7,2.3c-1.8-0.9-3.7-1.8-7.4-1c-3.8,0.8-5.1,2.4-6.3,4c-0.9,1.1-1.7,2.1-3.6,3.1
		s-3.2,1.2-4.6,1.3c-2,0.2-4.1,0.4-6.8,3.1s-3,4.8-3.2,6.8c-0.2,1.4-0.3,2.7-1.3,4.6s-2.1,2.7-3.1,3.6c-1.6,1.3-3.2,2.6-4,6.3
		s0.1,5.6,1,7.4c0.6,1.2,1.2,2.4,1.3,4.6c0.1,2.1-0.3,3.4-0.7,4.7c-0.6,1.9-1.3,3.9,0,7.5S6.1,63,7.9,64c1.2,0.7,2.3,1.4,3.6,3.1
		s1.6,3,1.9,4.3c0.5,2,1,4,4.1,6.3s5.2,2.2,7.2,2.2c1.4,0,2.7-0.1,4.7,0.7s3,1.6,4,2.6c1.5,1.4,3,2.8,6.8,3.1c3.8,0.3,5.5-0.9,7.2-2
		c1.1-0.8,2.2-1.5,4.3-2c2.1-0.4,3.4-0.2,4.7,0c2,0.4,4,0.7,7.4-1.1l0,0c1.4-0.8,2.4-1.5,3.1-2.2c1.2-1.1,1.7-2.3,2.2-3.5
		c0.5-1.1,1.1-2.4,2.3-4c1.3-1.7,2.5-2.2,3.9-2.7c1.8-0.7,3.9-1.5,5.6-4.7c1.8-3.4,1.5-5.4,1.1-7.4c-0.2-1.4-0.5-2.7,0-4.7
		c0.5-2.1,1.2-3.2,2-4.3c1.2-1.7,2.3-3.4,2.1-7.2c-0.3-3.8-1.7-5.4-3-6.9c-0.9-1-1.8-2-2.6-4c-0.7-2-0.7-3.3-0.6-4.7
		c0.1-2,0.1-4.1-2.1-7.2S73.5,14.1,71.6,13.6z M74.9,19.9c1.5,2.1,1.5,3.1,1.4,4.9c-0.1,1.5-0.1,3.4,0.9,6.1s2.3,4.1,3.3,5.2
		c1.2,1.3,1.9,2.1,2.1,4.6c0.2,2.6-0.4,3.4-1.4,4.9c-0.9,1.3-2,2.8-2.6,5.6s-0.3,4.7,0,6.2c0.3,1.7,0.5,2.8-0.7,5
		c-1.1,2-2.2,2.4-3.7,3c-1.6,0.6-3.6,1.3-5.5,3.9c-1.5,2-2.2,3.5-2.7,4.7c-0.8,1.8-1.2,2.6-3.7,4c-2.2,1.2-3.3,1-5,0.7
		c-1.5-0.3-3.4-0.6-6.2,0s-4.4,1.7-5.6,2.5c-1.5,1-2.3,1.6-4.9,1.4c-2.6-0.2-3.3-0.9-4.6-2.1c-1.1-1-2.5-2.3-5.2-3.3
		s-4.6-0.9-6.1-0.9c-1.8,0.1-2.8,0.1-4.9-1.5c-2-1.5-2.3-2.6-2.7-4.3c-0.4-1.5-0.8-3.3-2.5-5.6c-1.7-2.3-3.3-3.3-4.6-4
		C8.2,60,7.3,59.4,6.4,57s-0.6-3.4,0-5.1c0.5-1.4,1.1-3.2,0.9-6.1c-0.2-2.8-1-4.5-1.7-5.9c-0.8-1.6-1.3-2.5-0.7-5
		c0.4-1.7,0.9-2.6,1.6-3.3c0.3-0.3,0.7-0.6,1.1-1c1.2-1,2.7-2.1,4-4.6c1.4-2.5,1.6-4.4,1.8-5.9c0.2-1.8,0.3-2.8,2.1-4.6
		s2.9-1.9,4.6-2.1c1.5-0.2,3.4-0.4,5.9-1.7c2.5-1.4,3.7-2.8,4.7-4C31.8,6.3,32.5,5.5,35,5s3.5-0.1,5,0.7c1.4,0.7,3.1,1.5,5.9,1.7
		C48.7,7.6,50.5,7,52,6.5c1.7-0.5,2.7-0.9,5.1,0c2.4,0.9,2.9,1.8,3.8,3.3c0.8,1.3,1.7,2.9,4,4.7c2.3,1.7,4.1,2.2,5.6,2.6
		C72.3,17.5,73.4,17.8,74.9,19.9z"/>
	<ellipse transform="matrix(0.7091 -0.7051 0.7051 0.7091 -22.982 36.15)" class="st1" cx="32.3" cy="45.9" rx="2.6" ry="2.6"/>
	<ellipse transform="matrix(0.7091 -0.7051 0.7051 0.7091 -9.4979 41.7963)" class="st1" cx="45.9" cy="32.4" rx="2.6" ry="2.6"/>
</g>
<g>
	<path class="st1" d="M65.6,65.8c-12.5,12.4-32.7,12.3-45.1-0.1C8.1,53.2,8.1,32.9,20.6,20.5s32.7-12.3,45.1,0.2
		C78.1,33.1,78.1,53.4,65.6,65.8z M23.4,23.4c-10.9,10.8-11,28.6-0.1,39.5s28.6,11,39.5,0.1s11-28.6,0.1-39.5S34.4,12.5,23.4,23.4z"
		/>
</g>
<g>
	<path class="st1" d="M55.8,55.9c-5.5,5.5-14.5,5.5-20-0.1c-0.8-0.8-0.8-2,0-2.8s2-0.8,2.8,0c3.9,4,10.4,4,14.3,0
		c4-3.9,4-10.4,0-14.3c-0.8-0.8-0.8-2,0-2.8s2-0.8,2.8,0C61.4,41.5,61.4,50.5,55.8,55.9z"/>
</g>
</svg>
