<?xml version="1.0" encoding="utf-8"?>
<!-- Generator: Adobe Illustrator 21.0.0, SVG Export Plug-In . SVG Version: 6.00 Build 0)  -->
<svg version="1.1" id="Layer_1" xmlns="http://www.w3.org/2000/svg" xmlns:xlink="http://www.w3.org/1999/xlink" x="0px" y="0px"
	 viewBox="0 0 77.4 75.8" style="enable-background:new 0 0 77.4 75.8;" xml:space="preserve">
<style type="text/css">
	.st0{fill:none;stroke:#FFFFFF;stroke-width:4;stroke-miterlimit:10;}
	.st1{fill:#FFFFFF;}
</style>
<path class="st0" d="M71,57.3L22.3,29.4c-2.5-1.4-3.4-4.6-1.9-7.1c1.4-2.5,4.6-3.4,7.1-1.9c4.2,2.4,9.6,1,12.1-3.3
	c1.2-2,1.5-4.4,0.9-6.7S38.4,6.2,36.4,5C33,3,29.2,2.1,25.5,2l0,0c0,0,0,0-0.1,0C18.7,1.9,12.2,4.7,7.7,9.8l0,0c0,0,0,0,0,0.1
	c-1,1.1-1.8,2.3-2.6,3.6C2.2,18.4,1.4,24,2.4,29.2c0,0.1,0,0.1,0,0.2s0,0.1,0.1,0.2c1,4.6,3.3,8.9,6.9,12.2l0.1,0.1
	c1.2,1.1,2.5,2.1,4,2.9l48.7,27.9c2.1,1.2,4.5,1.5,6.7,0.9c2.2-0.6,4.1-2,5.4-4.1c1.2-2,1.5-4.4,0.9-6.7C74.5,60.4,73,58.5,71,57.3z
	"/>
<path class="st1" d="M71,57.3L22.3,29.4c-2.5-1.4-3.4-4.6-1.9-7.1c1.4-2.5,4.6-3.4,7.1-1.9c4.2,2.4,9.6,1,12.1-3.3
	c1.2-2,1.5-4.4,0.9-6.7S38.4,6.2,36.4,5C33,3,29.2,2.1,25.5,2l0,0c0,0,0,0-0.1,0C18.7,1.9,12.2,4.7,7.7,9.8l0,0c0,0,0,0,0,0.1
	c-1,1.1-1.8,2.3-2.6,3.6C2.2,18.4,1.4,24,2.4,29.2c0,0.1,0,0.1,0,0.2s0,0.1,0.1,0.2c1,4.6,3.3,8.9,6.9,12.2l0.1,0.1
	c1.2,1.1,2.5,2.1,4,2.9l48.7,27.9c2.1,1.2,4.5,1.5,6.7,0.9c2.2-0.6,4.1-2,5.4-4.1c1.2-2,1.5-4.4,0.9-6.7C74.5,60.4,73,58.5,71,57.3z
	 M47.2,60.6l11-7.2l8.4,4.8l-11,7.2L47.2,60.6z M35.9,54.2l11-7.2l8.4,4.8l-11,7.2L35.9,54.2z M24.7,47.7l11-7.2l8.4,4.8l-11,7.2
	L24.7,47.7z M5.7,30.2l11.5-2.4c0.7,1.7,1.9,3.2,3.6,4.2l0.6,0.3l-10.7,6.5C8.3,36.4,6.6,33.5,5.7,30.2z M37.5,11.2
	c0.4,1.5,0.2,3.1-0.6,4.4c-1.6,2.8-5.2,3.8-8,2.2c-0.8-0.4-1.6-0.7-2.4-0.9l0.2-11.8c2.7,0.3,5.5,1.1,8,2.5
	C36.1,8.4,37.1,9.7,37.5,11.2z M23.8,5l-0.2,11.8c-1.4,0.2-2.7,0.8-3.8,1.7L11,10.7c2.5-2.4,5.5-4.2,8.8-5C21,5.3,22.4,5.1,23.8,5z
	 M7.6,15C8,14.3,8.5,13.6,9,13l8.8,7.8c0,0,0,0,0,0.1c-0.7,1.3-1.1,2.7-1.1,4.1L5.2,27.3C4.6,23,5.5,18.7,7.6,15z M13,40.9L24.4,34
	l8.4,4.8l-11,7.2L15,42.1C14.3,41.8,13.7,41.3,13,40.9z M71.6,67.9c-0.8,1.4-2,2.3-3.5,2.7C66.6,71,65,70.8,63.7,70l-5.2-3l11-7.2
	c1.3,0.8,2.3,2,2.7,3.5C72.6,65,72.4,66.6,71.6,67.9z"/>
</svg>
