<?xml version="1.0" encoding="utf-8"?>
<!-- Generator: Adobe Illustrator 21.0.0, SVG Export Plug-In . SVG Version: 6.00 Build 0)  -->
<svg version="1.1" id="Layer_1" xmlns="http://www.w3.org/2000/svg" xmlns:xlink="http://www.w3.org/1999/xlink" x="0px" y="0px"
	 viewBox="0 0 103.6 99.7" style="enable-background:new 0 0 103.6 99.7;" xml:space="preserve">
<style type="text/css">
	.st0{fill:#FFFFFF;}
</style>
<g>
	<path class="st0" d="M49.8,23.4c-14.5,0-26.4,11.8-26.4,26.4c0,14.5,11.8,26.4,26.4,26.4c14.5,0,26.4-11.8,26.4-26.4
		S64.5,23.4,49.8,23.4z M29,50.3c-0.8,0-1.5-0.7-1.5-1.5c0-11.7,9.6-21.3,21.3-21.3c0.8,0,1.5,0.7,1.5,1.5s-0.7,1.5-1.5,1.5
		c-10.1,0-18.3,8.2-18.3,18.3C30.5,49.7,29.9,50.3,29,50.3z"/>
	<path class="st0" d="M49.7,19c15.5,0,28.5,11.4,30.5,26.7h11.4c2.3,0,4.1,1.9,4,4c0,2.2-1.8,4-4,4H80.2c-2,15.3-15,26.7-30.5,26.7
		C32.8,80.4,19,66.6,19,49.7S32.8,19,49.7,19 M49.7,11C28.4,11,11,28.4,11,49.7s17.4,38.7,38.7,38.7c9.4,0,18.5-3.4,25.6-9.6
		c5.3-4.6,9.1-10.5,11.3-17.1h5c6.6,0,11.9-5.3,12-11.8c0.1-3.1-1.1-6.2-3.3-8.4c-2.3-2.4-5.4-3.7-8.7-3.7h-5
		c-2.1-6.6-6-12.5-11.3-17.1C68.3,14.5,59.2,11,49.7,11L49.7,11z"/>
</g>
<g>
	<path class="st0" d="M49.8,99.7C22.4,99.7,0,77.3,0,49.8S22.4,0,49.8,0c27.5,0,49.8,22.4,49.8,49.8S77.3,99.7,49.8,99.7z M49.8,4
		C24.6,4,4,24.6,4,49.8c0,25.3,20.6,45.8,45.8,45.8S95.6,75,95.6,49.8C95.7,24.6,75.1,4,49.8,4z"/>
</g>
</svg>
